<mxfile host="app.diagrams.net" modified="2022-11-13T01:55:20.859Z" agent="5.0 (Windows NT 10.0; Win64; x64) AppleWebKit/537.36 (KHTML, like Gecko) Chrome/107.0.0.0 Safari/537.36 Edg/107.0.1418.35" etag="WYGpXLCGH_DbHK6li4uK" version="20.5.3" type="github" pages="2">
  <diagram id="n8r_0Cna9fIMzJHKRakR" name="Page-1">
    <mxGraphModel dx="450" dy="925" grid="1" gridSize="10" guides="1" tooltips="1" connect="1" arrows="1" fold="1" page="1" pageScale="1" pageWidth="850" pageHeight="1100" math="0" shadow="0">
      <root>
        <mxCell id="0" />
        <mxCell id="1" parent="0" />
        <mxCell id="n3eoc5fLVPkFFxaEzCm6-1" value="" style="shape=image;verticalLabelPosition=bottom;labelBackgroundColor=default;verticalAlign=top;aspect=fixed;imageAspect=0;image=data:image/png,iVBORw0KGgoAAAANSUhEUgAABfIAAAFCCAYAAAC6giwnAAAgAElEQVR4nOzdd5hk2V3m+e85994w6TPLdZm2aq9utSSQQQIhhBEaDe6BR1pWYsUMg0C7gxMwuGWYBw2PZmGZQTCYwc4gdvHSCsQg80ggBsFIyHS3pG5VdXdVl6/KSp9hrzln/zgRkZHlqzozIyrr/TzPrYh740bEyazMyIj3nPM7xnvvERERERERERERERGRoWQH3QAREREREREREREREbk0BfkiIiIiIiIiIiIiIkNMQb6IiIiIiIiIiIiIyBBTkC8iIiIiIiIiIiIiMsQU5IuIiIiIiIiIiIiIDDEF+SIiIiIiIiIiIiIiQ0xBvoiIiIiIiIiIiIjIEFOQLyIiIiIiIiIiIiIyxBTki4iIiIiIiIiIiIgMMQX5IiIiIiIiIiIiIiJDTEG+iIiIiIiIiIiIiMgQU5AvIiIiIiIiIiIiIjLEFOSLiIiIiIiIiIiIiAwxBfkiIiIiIiIiIiIiIkNMQb6IiIiIiIiIiIiIyBBTkC8iIiIiIiIiIiIiMsQU5IuIiIiIiIiIiIiIDDEF+SIiIiIiIiIiIiIiQ0xBvoiIiIiIiIiIiIjIEFOQLyIiIiIiIiIiIiIyxBTki4iIiIiIiIiIiIgMMQX5IiIiIiIiIiIiIiJDTEG+iIiIiIiIiIiIiMgQU5AvIiIiIiIiIiIiIjLEFOSLiIiIiIiIiIiIiAwxBfkiIiIiIiIiIiIiIkNMQb6IiIiIiIiIiIiIyBBTkC8iIiIiIiIiIiIiMsQU5IuIiIiIiIiIiIiIDDEF+SIiIiIiIiIiIiIiQ0xBvoiIiIiIiIiIiIjIEFOQLyIiIiIiIiIiIiIyxBTki4iIiIiIiIiIiIgMMQX5IiIiIiIiIiIiIiJDTEG+iIiIiIiIiIiIiMgQU5AvIiIiIiIiIiIiIjLEFOSLiIiIiIiIiIiIiAwxBfkiIiIiIiIiIiIiIkNMQb6IiIiIiIiIiIiIyBBTkC8iIiIiIiIiIiIiMsQU5IuIiIiIiIiIiIiIDDEF+SIiIiIiIiIiIiIiQ0xBvoiIiIiIiIiIiIjIEFOQLyIiIiIiIiIiIiIyxBTki4iIiIiIiIiIiIgMMQX5IiIiIiIiIiIiIiJDTEG+iIiIiIiIiIiIiMgQU5AvIiJyI8nmAD/oVoiIiIiIiIjIFlKQLyIiciN5/Ntg9dFBt0JEREREREREtpCCfBERkaHnofY58BmUdsFnvw5cOuhGiYiIiIiIiMgWUZAvIiIy7FwKn3kNfOEtsPctYCzUPz/oVomIiIiIiIjIFlGQLyIiMuxsGe78aVj4MFTuAJPAufcNulUiIiIiIiIiskWM914r5omIiAy7fAn+4R6462dDiZ2xh2D6NYNulYiIiIiIiIhsAQX5IiIiN4rPfi3YMXjo9yEaH3RrRERERERERGSLKMgXEREZZt6DMeF60YCP3w5TXw4veO9g2yUiIiIiIiIiW0ZBvoiIyDDyBRz8AZj9Y3jVubXj8x+EkXugetfg2iYiIjcAD5hBN0JERERENogWuxURERk6Hk6/O4T4yY71N+14rUJ8ERG5uJVPwZF/D80jcPjfQfvUoFskIiIiIhtEQb6IiMiwcSksfAgwcNsPDbo1IiJyo3jmp+D4u6D5DJz4dWgcGnSLRERERGSDKMgXERHZaqufhdP/7dK3z38QFj4MYy+Avf9i69olIiI3tgNvC5fRKOAhPTvQ5oiIiIjIxlGNfBERka3iM/jc/wpLfxv2xx6GF390/Tnts/DJR8Iit9EovPRTEE92FrxV/7uIiFzB3+0GPJRvh/ZReNUsqpUvIiIicuNTIiAiIrIVigZ88f8IIf4dPwm7vhlcC/LV9eeVdsEL3gv3/waMPQj/eD889g3w5HeHuvm1zxEWMBQREbmIvW8Jlzu+Gkq7ofHUYNsjIiIiIhtCI/JFREQ2W74Cj39zCOEf+iOY+eqwEOFnvxYe+mOY+JJL3NFD0YTlT8LTPwytk+HYK56CeGIrvwIREblR+CLMALMV8A6Mxm6JXODg98HyP8KX/C24HJKpQbdIRETkivSuTkREZDO5FJ74Tkhn4b7/DDOvCcerd4aAZfkfLnNnA9EIzLwaXvppeOVhwEH71Fa0XEREhln9CTj7J1B7HHy+dtxEIcQHhfgilzLxUmgdhSe/F478zKBbIyIiclXiQTdARERkWysasPIpeMF7YOJL1992+4+F0WAAK5+B7CzseN2Fj+EdPPMTEO8I+9U7NrfNIiIyIA6e+jcw++fwyiOXPi1fhse/FfIFMDFMvCz8nRGRq7Prm+D4L8HqZ8IMlnvfNegWiYiIXJGGaIiIiGwU72Dp47DyyXAdwlTtLz92YYgP4djKJ0IY8+hr4fivrt1v3eNmcOp34dgvwO5vA1Pa3K9DREQG49mfh9O/Dzu+PpTIaRyCZ34SsoW1c2qfg0++GIoV2PPtMPM1YXZXNj+4dovcCLwLv1cA8ThMvRqyubBmUTo72LaJiIhcBQX5IiIiG+XpH4PPvzEE8wsfvvL52Wz4AFl/El70YXj4j69cBuGeX1CpBBGR7aj2BTj2i3DbD4ZSbD6HR18PJ38Litraeef+v7D2istg/oNw6w9DPAnzfz24tosMu6IRSh1+5tUhuMdAVAY8uDac/PVBt1BEROSKVFpHRETkWrkWzH8Adn5jCNWX/gcc/YVQa3X3G6B1DL7wZnjF0yFc6Zeehbm/hLm/DiP3o3HY/1YYf2Hn9lmY/+9QPhBGWQLYMrz885DsBmO29msVEZGN1z4FpVvWd8yufCK83u/9F6HO/anfCSV0Rp8Ppd3hnPohOP7LnTt4mHoFRJVQXsckW/5liAydU78XyhHu+Gfw4O+uHX/2naGzKxoPAyjGXwT73tpZHLqAvHbpxxQRERkSGtInIiJyrU6/G774Njj6f4f9Q28Pte4f+iO49xfh9h+BaAxO/9cL73vuL+Hpn4ClvwsL3k6+HObet3b78V+Cp34UTv72+vuV9ijEFxHZDp7+MfjMV8HZP1o75vMQ5GOhvDccy1cAHwLHbkm1xY+s3efW74f7fwMaT4XZXcmurfoKRAbj2H+CZ3/u8ucc/rchmN/7lvXHT/5GuCxqUP9CuF69A+7+v+Dud8I9P7/x7RUREdlgCvJFRESu1cxrwnb2DyFfghd9EL7iDIw+AJhQ+768Lyygdr793wWvPAy3/3gYEbbwYciW12ob3/GTsPc79YFSRGQ7ap8K5XBKt8Dx8xbX9B72vHFtPx4DTKd2d6eu9/wHYM//Al9xFu786TAKf/kfwVRg+iu36qsQ2Xornw6zUY79EjSfufg5jWfAluBFH1r/+9A+HS5H7gP8hesRmQTQYAkRERl+CvJFRESuVfV58MDvhMUHD/0wJDOhDEKXiWHkHiC6yJ1NmNZ9+9vhkfdDeT+kp8JChRBG8t/zC1C5bSu+EhER2UrtU9A+Cff9KjQP9y2w6cE1Ye6v1s4tWpDsgHv/01rZnMahEFR2S/K0jsGp34a7f3793yGR7ab22NpaEbXPX/ycI/8u/M6UzpudYivhsnrX5rVPRERkCyjIFxERuR62EkrozP1lCGYuxjVCuYQun8Pi33RGhhmYfBnc9bNQuR3syJY0W0REBiidDbW7S7tC3ftjvxiOmwQmvyzM8lr5dBgxfPLXQ/mcbn18CCXZ6gdDoNl8Gh59HUy/BnZ/42C+HpGtEk/ALW+C234Ezv7Zxc+p3AHxTFhTqF8yDRMvCTXy4ymYeOnmt1dERGQTGO+9H3QjREREbkjpLHzma2DPG+DOn2LdtOxH/1kYNWlHw/69vwT5Ijz+LaHe8fP/oO9xzoQPnra0pc0XEZEt5ovQqWsSeOqHQ337F74/3JYvwT/cA8nOsPk2vPhvIerr6G0dg09+CVTvDmF+egZe+qnQISyynfkcMLD4Mfjid8NLPhF+T/p97tvAteHeX4aD3wf3/kcYuTfc1j4NX3gT1J+AsRfBQ/9vCPhFRERuIBqRLyIicr1Ku+Hu/wBz/x3Sc+tvm/pyWH0Mlj4Gyx+HL7w5fHh0GRf8+S3dohBfRORmYCKw5VAaZ/LLoPkUpGfDbfEUvPIoTL4UGl+E5hH4zFfD7HvBpeGcym3w4H8NI/MnXgIv/axCfLk5mDj8/ozeH2YxnvuLC88p7Q2dY4++Piwe/UTfgrelXWHEvknC79w/vQTaJ7au/SIiIhtAQb6IiMhzsePrQ7DS/2ERYOnjYbSka8NDfxJG4x/6oXC59zsG01YRERkek6+Aohnq3ndFI6F0CMCB/z3sH/xeePS1UNTD8Z2vh+e/Gx78Hagc2Pp2iwxS+RaIqrD0Py5ctHb0IcjmIR6H+/4zNJ7uu9GEDrSR++DhP4V8BeY/vKVNFxERea4U5ItshTN/BIf/7dpoKhHZPoyFPd8Gq4+G0ZNdY4+Ey/KtYXTlI38ZarLe/qMw87WDaauIiAyPyoGwwO3qZ9cfbxwKo4Zv/QF48Ufg9h8Pi3s++3Nr55iIdeXcRG4aFm57e1g0ulhZf9Oebw2XYy8K6xeZeO02E4X1jZqH4dD3h/14YuuaLSIisgHiK58iIs/Z7J+Aa4Vt6e9D8GeirXlu76H5DIw8jy39wNc6CuUDW/d1DkrRDB8kRu4edEu2gIfWyZtj9F/7DKx+Bu5+59Wdv+O1kMzAiV8LpXZMBDNfA6d+C2759nBOaQ88/Mcb31afwTM/HToOuv833ocPqiN30fu990Xn2D1X8ZgOao/D+CNc1etG8yhUb+s710PtCRh9ILze4UPpocZhmPzS9R+sB615GMr7Q6mLoeGhdTx0AhkFdVfF552/dfcNuiUXSs+FUdXR6KBbsl56NoTFycygW7Je+xREY8MVsGVLgIFd/3zjH3v/90DtC30HfAj2TbT2f1N7PFze8r9t/PNvpJV/gnx5yF5PB6BxKAze6b4HzpbAJjDxpZv3nPVDUL3j8mX6XDu0pbzn8o+Vzoa/05d7bXDt8P63etelzynq4fd537+8/PNdjx2vg8PvgGwxlKTq6tbMP/fncA649QfX3+/W7w+/b9kc3P+bsONrNr5t16vxNBz5Wdj/3YNuidxIXLPze7130C2RG4oP77XGXzzohsh1GKJP0iLb2PRXweJHwxTOp/8NYLcwnPHheeMJtjTIz1fDH4ftHkL5PJRP6f8QsZ0VtfD/ut0VtfAh/PYfgWTHlc+PxsOHysW/geVPwtSXQXlfCO92vn5z29p4Cs7+Ccz95fr/m3x5/e+991AsX+XPqg9T05MdXNXrRr4SprH3B/nZYmcRORM6vNLToT2zM51wf0jky53XqiHrdMxXO99TuSrehf/LYVy4sGiEEM8kg27JekUj/C7ayqBbsl5RA1MarnVDXCssUr7ztRv//3jLm0Id/CMHwuv0nf9n6PzxOSz+HXz+jSFQfeR9oTb4sHJNOPqL0Hx6+F5Pt1q+Ajh6fxNdGt4Pn78w64Y+51J4L3K5770vws/ylToVr+a1wRed97+Tlz7HpeG5dn5DqE+/keLJEFzO/VXoKOhfEPqFH4DDPxPWMdr/XevvN3IvfMnfbGxbNsrCB2D+r6FxcNAtkRuJz0PH2rANFpDhN/ogPPh7g26FXAfjvfeDboTItnf8V0KQ//z/J4RjxrB1la18eHMfT7G1Qf5KJxwbosBuM/is80FmCMOjDec7Qf5NEC4Wq5AthIUIr5Zrw98fCD8Lr+jUO175FIy9YHMDKe/Cgm7JTN//zUV+773rC/Kv9FrQGUFf2nV1517QWXheR8DqZ+DQD8LDfxaCjGF6XciXOq9VwzS2wfcF+du8M3Sj+KIT5A/Z6HIIo1JtaQiD/HonrKsOuiXrFaudIH+IRnW7ZrisPm/jHztbgE+/OnR23voDcOdPwdM/Aad+pzNjYic89Icw9iBD/3qQnumE1sP0ejoA+XL4m9sdzOLagN34MLtfthD+Dl/ue+/zTpB/hQEZRX2tDM3lHutKA1lcGs4Ze+jyz3e9Dn4/nP1DePhPwqCp89uHubE6lbJFqH8OqjfDLF/ZMFf7ey2yjg/vMUq7B90QuQ43+bsskQGo3Lr1z1neP4Dn3Lf1zykySLYcPqxmi2vHNnMafZexF+9wuOjv/TWURbqW142Lndt/rH0ivFkcf+HVP+ZWGdbXqiHKMG8cA/j7KvJcxRMw9QqYfU8owYYJs8GKepjptfN1DH2A31W6ZdAtGA6D+LsyrH/LNtPub4XmIZh61YW33YidScn0xb8WERGRPjfgXzgREZEh9fx3a1FrERG5eiaGW74DWqfWSrElO+G+Xxlsu0SG3fRXhk1EROQmoiBfRERko5RvgoWARURkY029El74F4NuhYiIiIgMuSEqUisiIiIiIiIiIiIiIudTkC8iIiIiIiKyWXwRFoEXEREReQ4U5IuIiIiIiIhsltaz8Ng3DboVIiIicoNTkC8iIiKbq6hDNjfoVoiIiAyG91CsDroVIiIicoNTkC8iIiKby8RhExEREREREZHroiBfRERENpctQzw16FaIiIiIiIiIS8Fng26FXAcF+SIiIiIiIiIiIiLbnoeTvw5f/NeDbohcBwX5IiIiIiIiIiIiIjeD1gkwyaBbIddBQb6IiIiIiIiIiIjIzcJEg26BXAcF+SIiIiIiIiIiIiI3C58OugVyHRTki4iIiIiIiIiIiGx7Pix0u/R3g26IXAcF+SIiIiIiIiKbxafQPjXoVoiIiAAm1Mef/ppBN0Sug4J8ERER2VyuBfnioFshIiIyGCaCaGzQrRAREZEbnIJ8ERER2Vy+CJuIiMhNKYJ4YtCNEBERkRucgnwRERHZXNEoJDsH3QoREREREZGbnAefw/xfD7ohch0U5IuIiIiIiIiIiMjQyPOcNE3x3g+6KduMARPDzGsG3RC5DvGgGyAiIiIiIiIiIrIddYNoY8yAW3JjSNOUeqNBrd4gL3KqlUoYRO4dkY2wkaVSqVAqlTBAHMeb/r3t/h/meY73Hu89cRxjrb1x/19NedAtkOugIF9ERERERERERGSDNJpNPvy3f8fREycp8pxSuczM1CTHTp7iq175CirVyqCbODje4wnhuDEGA3jWOjqWlpZYWFpmfnGRZqtNFFmssWA8cRSTxAnTU5OUSwl4TxRFlEslKpUKURwBhsha+h6497xZlpNmKXioVCu952y3WiwuLpLlGVEUE0URExPjFIUjSRJcUZBmGcurq7SaLdqtNpOTE+yYniJKYtqtNhhDURS0Wi0+/djn+Y43fCv7btmD854sTTHGMDo6euMG/zIUFOSLiIiIiIiIiIhskHf91u/y1DOHyYsCayzOu16efPCZw4Nt3IA458A5Cu/Ae3Ln8UVOHMfkaRZC/SgCPElSxpuQxYPBGItzBd4XncfyWGOx1mINVEeq1Go1Wq0WBktciinyHNM5J4qi8EjGYuh2HhgKU5CmKeUowlgLtr8CuaHIc4o8Jy4l2CjCdKv8eHCuwLkCawztNMMVndH6BRjjefwLn2ffLXsZHxvDFzn33nsPD9x7N7fu38/OmRmSJNmy7/1FFSuDfX65LgryRURERERERERENsiuHTs49Mwz2CgG77E2CuF1kfXC5ZuF9waDwxogjvDeYrzHAoYEV3jissEYg8fgncN5h/MQGTBYoMCGBwAgCgPvO8G6CSP344SRsTiMwscQJ6VOaO/BWIyxoSMgTAcI93eeJI7BmBDkO49zrtehAJ5yd/ZEJ8R3zuG9CzvG4oBypYIx4J3HxhHdMfdL9RqLKyvYyHJqbo6//cd/pFqp8FVf+Sru2HsLd99xB5OTk1v78+A9uBYsfGTrnlM2jIJ8ERERERERkU3jwLUH3QgR2SLee775678OY+CfHn2cdtrGEMLe2/bfxTe99uvYMTNDFN0cYX6WZSyv1Dj4zDMcfPoZTs+eo9lsUBQFhfMhoDdJJyj3GEIt+m79+3C0s84AIYfu6q+c0729eyCcuzaE3vmic3s4x2IwNgodDN3h/7Yz0j+2oR1pCrHvdAJ4nHdYazAm7ja38/Ch3bYcyvAUeY6xUe+2bkOLwlFvtPnz97yP2++4jZe8+IW86uUvZ9f09NaV3DEGbAV2/vOteT7ZUAryRUREZHMVTciXBt0KERGRwfA5ZAuDboWIbJGiKFhYXGR2bp4sTTuLo0KW5XjniKxlanKCcqk06KZuiTzPqVarrNRWOXN2loWlJVoti7Ee4wvCSramk4l7nAcbWVzhKPI8HHOdWztheqivb0lGRvCFw+BYi+87uTmAMb3rxvtOyL92Tgjjw2O6wuGKAmsjYhODgTgpgYfCOVyeh1H7FwTu3ZYb0sJhC481Ed57iiLHO4jiCG+gcAU2tpQqFc7OnuPDH/kYeTvnK17+EnZMT1OpbOHaCWbApX3kuijIFxERkU3moVPPUkRE5OZjwZYH3QgR2UKtVotarYbzPlRkNwCedpqxUltdP6x8m4uiiPHRUW7bv49Wu02pXGJ5aZlao87iyjIeS95uU3hHnjtia3De44Aiz8lzh7GuN8LeYDEGoijGuKITmBfEUYLHgTV4tzaCPwTvfi3cB7rhu+kE+5GByEYQJ73R/93yO8650B5fYJzDe9tbVDf8//rOuQZTQOHCvnfhPs55XBpKCeVZThInWBtG/LezjPd/+COcm5/n1a/4Mu6+83bK5fJNVXpJro2CfBEREdlctgrx5KBbISIiMhgmhmRm0K0QkS0SRRFmdIQ8RLxYwmhtawzlcolSUhr8QqdbyBhDFEXsmJ7mhc+vcvcdt1NbXaXZatNotUizjDTNqNXrNJoN2u0UbwxpkVNfbbC6ukK93iDNMtpZOwTj3mN8iOVtDJENteopQoCe5zk4TxxFlKpViqLAOMD4vnI7QXevG/KbXpkdE2rwW4vF4a3B2qhThWf9+P/+0f7WdoJ8DxA6F5xzGGNITAR5gTfgTHi8JEn41OOPc/rsLG/4xtdz9113MjY6upn/JXIDU5AvIiIim8uYEGKIiIiIiGxzWZ6z7KGZZb2R2uCxkaVSKhHH8U054jpJEpIkYXxsDL97dxjp7hx5UfTCde88hSvI8qIT6rep1RssLa+wuLjI3PIStVqdRqNJluakaZt2J+BP04zcGWxkiIlxhcMbS9ps4oqccrkSRu37AufDuPvuJf3ZfqeGfq/2jvVYb3G2W6bHrDs1XLGdPd8b5W9Nd91dG8J9wESQ50X3SYiTMLI/yz0nz57hP/6X3+Z73/JmXvTww1QrmzWTy4PPYPbP4L53bdJzyGbRp2oREREREREREZENMD8/z9HHHiOt1+hGvcYa4qREUipRFPlgGzhgxhiMMb3OjPNXCuiG+jNTk2F9AaDIC9I0pdFsUG+2aLaaLC+tUKvXaLRbLC0ts7C0TKPVot6o02i2ybOcNM+wxoRxRZ2wPc9yChfK8RggShIwdMrxdMrkdEL50KC+xXbX1cfvJf3hfN/ZN6Yv4Q83GWPxzuM7HTrdkj9ZltEN9Q0W5zP+7C/ej48ivvT5D1Iub0aY3xlkNf3qTXhs2WwK8kVERERERERERJ4j7z0LC4s8+cVDZGnG2hhuy0i1yvTUJKMjKptyOd2wvD80j6OIcrnE+PgY3nuyLCPLMgrnAEizjMXFJc6em+Pc3BwLS0vUGw0WV2qkaYtWmtFqtsiLAmMt1jtMFBa09YUjz3O8K0jKpU6o7zDW9DcKQ6iH789P6YEQ4Pfvrx/k3985YI294BzTuW8UxZw9N89HP/4/2TUzw/NuPUAURc/l23kJBpKdm/C4stkU5IuIiIiIiIiIiDxH7Xabs3PnWFpawTt6uW5kDFMTExy45RZ27dCaGc+FMYZSqUSpFMbyex/q3o+PjrJ7504KV9BqpSyuLLO0vEyz0eD4mbOcOXuOxeUl6o0mKVlv8dwCR9J9rM7iuXiPNQne+O6TEv5D+4XVD4LuosZhAdzuXXqD9gGMp8gL4qgTxZpQj9+zVoHJGIOxlkOHDvHpz+xl5+QE01NT580EkJuZgnwREREREREREZHnaGV1lSMnT5HmaScE7ix4ay0zU5Ps2bWTSqUy6GZuK91SPeVyuVeKJstypiYnKPbvoygKbp+b59ziEs8+e5QTp0+xsLxCo9kgTfP1WbuJegF84Qp84bBRhPcOa2yoqe/D6PtetN4ZbB9q7fu1A52x+90R/MaEEku+G/A7103v8SbC5RnGgLWhFNCjX3iChx64j/GxsZtqcWS5PAX5IiIiIiIiIiIiz4H3nkajwZkzZyncusIqmAiM91SrVc67STZBksQkyVrkOT42xr5b9nDb3j0sL6+wuLzEkeOnOHriOAtLSxR5Qe48WZpSOIe1lshG5B7yPAcM2Ahv3HkldPzaAri9wfumexO+v3aO91hr8Xh8UeBcgcOQJDGm7zYAi2F+YZETp89w1+23K8iXHgX5IiIisvkumIoqIiIiIrK9ZM5RqzfWFk7FdEZZW0pJichGWJVJ2XJRFDE6Osro6CgH9u8nTVPuvusuzp6dZXZ+gbnFRc6dm+PcwjwLi0ukWY7zHmMMURyiU+dyXFEQRXGol2/MWmGdbmLvz18Ql3UL35oQ+UMcERGTu4I8L4ijKNzZgceBjcjzgk8/9nle+qIXMlKtqryOAAryRUREZLO5FhRLg26FiIiIiMimaacpy7UaaVF0yrV0QltvwFjKlTJxZIkie4VHks1WKpW4Zc8edu/aRZqmrLbbLMwvcPTYCQ4+/TRHjh6j3mqF0fje450jthZnwnK3zrlOoB8R1q71OOfB+DASn06g3x2cf345ns612EYUHvK8wBpDFFksEd5Y8I5Dhw9z+uxZZqamtvx7JMNJQb6IiIhsLt+tEykiIiIisj0tLS1x9Ogx2s1Wr5RKd4R2YmNKSYKxFmsV5A8Lay2VSoVyucxEpcL0xDj79u7mjv37ODU7x6nZWWqrK7TbbQBa7RSPCSV2cESRxdgohFd9R/kAACAASURBVPg4vHdr5XTW8Wul87s18jufjyIbEUVRbwZAON3gCMvpdhf1FQEF+SIiIrLZoirE04NuhYiIiIjIpvDes1yrceTYMdIspbfEqTFgDeOjVQ7ccgs7Z2ZUImUIdRfL3VUqMT05ye379rO4vMSps7MsLC4we26OhaUVzs7OUmu0SPOMoijIC4fPC4y1oQa+CYvZ+v4039Odm0E30Dc+DM/3a+X0Ad/rBDDGh8H93pOn2dZ9I2ToKcgXERERERERERG5Tnmes1xvML+wSOEc3VDWGA/esWf3bnbumCaOFcMNM2MMSZKQJAnlSpmZ6WkajSYrKyvU63VOnj7FM8dOcPTEKRZXV6Cz9m2e53jvKSUlrA1D7r0HvMddfIh+T//c5e5EDhPSfzym83iboKhvzuPKptIriIiIiIiIiIiIyHVqNpscPXqU1UYD531nRLbB4amUyuzeuZPJiYlBN1OuQSlJKCUJ1UqFqclJAO69526ePzfHEwcP8vgTBzl5ZpZ6s471hiiKsXjiOMF7T9FZK8HYzgh9T2e9hPNH4ndH7Ec457C2M6rfeaz3WLPRpZg8+AwWPrDBjytbQUG+iIiIiIiIiIjIdWo0m5w8dZpmqx0WRy1CrfQoihgbqTI5Pkai0fg3pCgKNeyDhNsOHGBmaoq9t+zlCwef4umjzzI/v0CaZeRZTrvdJs9yyuUEGyXgCpxzeNxact8Zg98tl+9w4OhbHBec81gDjXars7huxMYwYBLY9a0b9HiylfQqIiIiIiIiIiIicp0Wl5aYnV/olFEx2CgCDC7NGR0ZpVqpEkWK4LYDYwxjY2Pcc9edTE9OsGvnDEeOHuP4iZPU6k0a7SYYyIoCirCArbWAsTjnQkdPqJ+D8QYfRZiiwADWmFAb3xicAW/sJRbPlZuVXkVERERERERERESuQ6vV4vTZWZaWl9dGXHvwxmMiz9jYGLt376JarQy0nbJxjDGMjoyQxDHVSoWRcoXpySnmF+Y5fOw4y6urFEVOUXiKIgciMHatHr73vevWOYyxEHmcKzDGYowJxyxUK2Ws3ejyOnKjUpAvIiIiIiIiIiJyHRaXljg9O0uaZnjvwkEDGEMUJ8xMTjA2UtnA0igyLEqlErt37SKyEbt27ODZYyeIo5gTp88wOzdH2+e98jneOYwJnQBREhF+VDpxvgFr7NrPT2fEPs6T5wXeh5H9G0tD/W9ECvJFRERERERENo3CEpHt7NzcHKdn58JveneYtQdf5NhSwv69e5iemhpsI2VTTU9PMTJSZWJ8lL17d3H7uTk+9djjPHvsBC4H5z0mMnjve2G9Mb6vbE7nB8dbHAWRsZi+mjobGuJ7D64Fs38K9/3yxj2ubAkF+SIiIiIiIiKbxeeQzg26FSKyCer1OkdPnub0mbN459dCfO+JbESlXKFwjo0eSy3DxVpLtVoljmOq1Sp7du1ibGKCT37qUzx9+Ci1egPrIYljrDVYa3GFI8vzsK6CN2DCD08RVrrFWov3nnijF0k2BmwFpl61sY8rW0JBvoiIiIiIiMim8eDTQTdCRDZBs9VicWWFlVqNwjssYfR0wVq46wpP4dwmlUeRYZIkCRPj43jvmZ6ZYcfYGO8vPspTh4+SZxl5njNSqVApl8kKR1JypGmbLM0BMNYQE+GN6Y3WbzSba7X1N1Jp70Y/omwBBfkiIiIiIiIim8WUoLxv0K0QkQ3mnKNWrzM7N0de5Bg8GIPzDjCkaUaapizXVsnZ4PIoMrS6C9Na7zmwfx+vevnLKCclnjryLPV6nVaakuWOJLZUR6oYA4ULJXc8nvBj1KusjysKvHOgNRYEBfkiIiIiIiIiIiLXJE1TZs/Nce7cHAWd9W09dMdOR3FMuVKmXC4RG6Mg/yZjjGF0ZIQXPPgA5SgCHE8ceqazKHJBtTqCxYALi+ZmWUZRFJ0a9r5TaieU4dHPjnQpyBcREREREREREbkGjUaDxeUVao0Gxpi10idhQD5ZnhGZmEqpBM4NsKUySKUk4Xl33UlWFLSznOMnTpNmKe0sx3hDUeQkpRLgyfMcjMPjMFi8gTiONjjI92Htlvn3A+/awMeVrbC9gvyiBfXPQzIz6JaIrJctQNGE5rMQVQbdmuFXNMBEYMuDbsnQePKLX2T/vn1MTEwMuikiV897qOzv7bbbbT796U9z//33Mz09rZElIiIiInJDyvOchaVlTpw5Q7vZxnqPg/D+1xiM90TWYkiwaET1zcwYw+joKA8/+AA2svzNx/8nJ0+fIcsLwFNvNEiKHGNs9w6dqjq+83O00UG+ARPDzNdt4GPKVtk+QX6+DE98F9Qeg9KeQbdGZL1sAVwdvvivADvo1gy/9HS4vIkXX3HOcezYMRqNRu/Yic8NsEEi12Fy1PDT7x6h1or4tX/d4L59+1hYWABC7cg4jsmyDGMMzjmq1Sqve93rmJ+f5/7776darZIkCXEcr7vsXo/jmJGREUqlEqVSiXK5vO7yYsf6byuVSr0aliIiIiIiV6vRbHLi9GlOnz2LwwE+lNUxJtQ8LxxJUqLVWsXh8d2VS+WmlSQJd999DxjLE08e5MTpU5yanQuLI7sCS4GFUKbJGPAe5yHerNr4prQ5jyubapsE+R7+6WXwkk+E6SEmGXSDRNY7+Zuw9DF44LfBVgfdmuHn03B5E/5habVbfM9bv4cPffjDtNttXFEMukki1y2OYKWxwEvujynyiV6ID6GzKk3D73r3g02z2eQ973kPAB/72Meu6jmstb26kddzOTIywsTERG+2y6FDh3jkkUd44QtfyNTUFJOTk71tamqKiYmJ3vHR0VF1BIiIiIjchIqioN5ssbSygvce7yHPMkwUh2C2yCmXy1hLqHcuNz1jDOPVCg/ffx+jlTK1Rp3ZxSWiOCb3Du8dlggDOO/CZ6RQJl+kZ5sE+YBrhYDU3nzBn9wAbDlMXYrGIRoZdGtkCHnv+chHPsKb3vQmZmdnr+o+IyMjPO95z+N1r3sdO3fu3OQWXr+lpSXOnj3L/v37GRsbG3RzrtrBgwcBuO+++wbckmszjO3eN3aSUumPevs//uM/TpqmpGlKs9kE1oL9ZrPJwsICIyMjOOcoiuKCLc9znnzySW677TaKoug9Vv/WbrfDYlHX4fTp03zgAx+44nnWWqrVKqOjo4yMjPS27n7/8UajwczMDLt372ZkZIRqtUqlUlk3O+BiMwYudUyzCUREREQGo91uU6vVWV5eodlo4jFgIC6VQvlxoFSqEMcRIyMjGKskVtbEccz01DS37tvHidNnWAF84XqhvbUGnKHwDmsjomj7RLfy3G2fn4Z4etAtEBG5bu973/t405vetK6UTrlc5m1vextvfvObmZm5cO2PKIoYGxu76G0iQ2XpH/CP/2lv953vfOcFp3jvcc7hnKPdbhPHcWd008W3lZUVRkZG1t3v/C18yKqxsrLC6uoqq6ur667376+srHD48GGefvrpXkmfWq2Gu8zCZM456vU69Xr9ur4txhiiKOpddmcXXM0WRVFvNsH4+DgTExNMTk72rl9sv38bHx8njrfP20ARERGRrVKr13n25EmeOnyYVpqtr19uwOU5JkmIogg65c41rFr6zUxPceut+zl4+BnOzS+QZTkejwvdQnjAdmrma5a+9NMnOBGRATp9+jRvfetbef/739879pKXvIRXvepVvOMd76BaVSkm2QZ8G0N62VO6YXYURSTJlUvkTU5OblTrLsk5R7PZpNFo9AL787fL3dY/Q+DcuXNAGIHTfzzLsguuN5tN8jzf9Fqq5XK5N2sgSRKOHDnCgQMHePDBBxkdHe1t3dkF/VulUqFcLpMkyQWXF5s90L8lSaIF30REROSG1Ww2mZtbYG5+Hld0Bn30Avvujsc7RykphRHWqLyOrImiiDsOHOCh++/j9OlzZO0slNOxYUqH9773ftlpfQXpoyBfRGRA5jLPy1/+co4dO9Y79sgjj/DBD36Q6WnNMpJtxI7QyMqDbsU1s9b2gutdu3Zd8/37SwN1SwhZa3vHureff9ktH1Sr1dbNHLjYzIJLXdbr9St2BLTbbdrt9rq1C06cOMGJEyeu+LV11xjodr5cy/U4jhkbG7vozIHu9cnJyUvOJLiajh4RERGRzZKmKfVmAxuXwbShs5itCRVRsJHBeU+apuSFI8uyQTdZhtDoyAh33HorBw7sZ2llBZeHTqGwZnJn0ItCfDmPgnwRkS1WePiDs/BrJzyzJoy4f8Mb3sDb3/52Xvaylw24dSKbwBi8v/nquXfL4CRJQqVS2dLn7s4muNRsgfNnEywtLfHUU09hjKFcLtNsNnuzBLozBc6/frFjWzWbYMeOHb1OlrGxsYtev9ht3XUJujMHkiS54PrlbtNMAhERERkfG6dSLuOKLAStZm3EvS8cplMzHwzGgHde4/HlAsYYdu/Ywf49uzl48CmyIgM8xtjwXtoDGK2LJesoyBcR2UK5h3cchb+aB4zl3t/4KF9enOFXX//iQTdNRLaR/tkE18N7f8ECwxe7frH9LMuo1+sXzBK4mpkEq6urVzVqbX5+nvn5+Wv+uvpLOMVx3Lt+sf3zj8VxzOjoaG9mQHcWQff6+fv9swjGx8cpl2+8WSkiIiKynveeUikhSWIKHN3VbUNXv8EagzEG5y3GRmRZRjtNL7vuktycjDFUq1Umx0aoVBPaRfg5McaEgfim0zmkUfnSR0G+iMgWWc7hv53phPgd33b/Pn7o1n2Da5SIyEUYY4jjeCAL4rZaLer1eq9EUK1W6y1a/N73vpeXvexltFotarXauttrtVpvRkB3pkD/dv7x7n673e7tb+YHpSRJejMExsfHe7ME+rfzj3XPrVarGGMYGRkhjmOSJOldXs11LWwsIiKyMbz3zM7Nc/zEaYrMhdH43dHTJpTXCSPxPSayeCCKI7z36+qei0B4f3jH7bdx6969NA8/S+rD+1EDuM6/cRwNupkyRPSuXkRkC8xm8DNH4J9W1479wH540x6wei8nItJTqVSoVCrs2LHjgtu+5Vu+5bL39d6T53lvlkD3+tXs53ne60Do3/rXKujfX1lZWXdbml5+Qecsy1hcXGRxcfG6vzflcrnXwdI/Y+D8Y+df765LMDY2xvj4+LrLS13vPzYyMqLgQUREBMjznDOzs5w+N0uW52FAvitwHiwGogjjIIktFkjihPHRMcrlsv6WygWMMezeuZP777+PxZUa5+bmSLO8M8XDY7whjhTdyhr9NIiIbLLP1+E7v7i2vzuBH7kVXqP1bEVENpQxpjcafauladqbGdAN/M+/fqnb6vV6b1ZAd6ZAfwfDs88+y65du3DO9Y61221qtRp5nm/6dH1jzGVnDlxuGx0dZWRkpDczoLslSUIURRcc79+iKKJUKhFFGokmIiKD572nVm9w5twcq7VGmMlnwHmIrcXhOzXzIY5i8iKn2WxQazZopymVcln1zuUCY2Nj3HfHHZw8dYrlpSWyLO/c4vF4nErrSB8F+SIim+jvl+EnDq/tP68KP3cn3F0dXJtERGTjlUolZmZmmJmZueb7dtckuFSYf7Egv3/rliPq7zA4f/9SW71ep91uX7F93ZkH16O/VNPFtkuF+dZayuUySZJctvPgUrd1j3dLE4mIiDwXeVFwZvYcx0+dJk3bGO9Y60o3eAMmFDen2WqRJAlZlrOwsECj2WJ8dFRBvlzAGMP0zDQ7Z2aISwm+1e4sdmvWSjeJdCjIFxHZBE0Hn1iBH3km7FtCiP/uByBWliAiIn2utCbBbbfdtqnPn2XZBbMEzr+83PVms7muVFH/IsiXKmXUarV6xzd7RoG1dl3Af6WyQt3r3f3u2gRXU8roUsdEROTG5r2n2Wpx4sxpZufnyYs8jJcufAjnrcFGEa4oMBgMoWx+7gpaafg7u2N6SuvWyAWMMZRLJaYnJhmpjrBSq+O9wbsCgFK5NOAWyjDRK4iIyAbzHt7xLHx0ae3Yw2Pwy3crxJeblGtRiS9fP1xEBidJEqanp5mevr6ab865dQsI9y8sfLlj3a3dblOv13uzCLqXH/vYx7jzzjspimLd8fPPvdL6BM45VlZWWFlZua6vr9vRcv4CwldaYLh7rBvo79q166ILGl9pdoFCHxGRwXPOsby8zLPHT7Baq+Gdx3nIioxKUsVYi3cFxnt8Z8Hb7oy7ZqPF/OIS+/bsoVwqrZsl5vtGW3vveyP2tTDuzSWKIkZGRimXytjOAIA8LQBPpVwZbONkqOhdochWWPk0uAzY3BFnMninU3jLk7DQKWs3GsH37oNv3z3YdokMlPcYoymhIttVtwROuVweyPN31yfoX5D4/MWIL7eAcf/sgCtt3dkE/cc2e0ZBuVxmfHyciYmJdZfd7VL7ExMTvfUJoijqbd1ZApc71t1XiLRRXOezgIjcqJz3tFptavUGeZbhCCF9FCf4cAI+90RxhPMeDzjnSdOcxeVl5s7Ns7J/BRtZIhtRuALvPZG1WGvJO39T1gX4HuI46r0e53neq5funMNaS5wk+KLAeR9mgHmP6esM8M717u877bLGhOcwhqIoMMZgO53W/R0L9Npxbe/ju8+lvyFXzxhDZC0mMlgT4XyBL8KIfBupHJOsUZAvshXK+yFfoLP0uGxTfzEHv392LcQH+MXnwYvHBtcmkaEQVWlmgwn4RGT7ey7rE8DajILulqYpeZ6Tpum64+dv3dvb7TaNRqM3U6Ber/f25+bm+NCHPsRdd93F6OjounO6MwryPL9s+9rtNu12m7m5uWv+2voXgE6ShFKpdNX7pVKJSqXC6OgoRVGwsrLCnj17eOCBBy6YNdBflqhbjkh1oPv4HLJzg26FiDwHhtBxbU0IyCNjKQivsyHo9hhrQpheFHjCorceh3OeerPB/OISWeFIkgTjPe0swxpLHMc4V5C70DlsMVhrcd4TRxGRtRTOUbgCawxhtH+nUSYE83g6gb2l8AW40B7vPcaD8w48mCgK5xtDludYY7DWYI2lXCnj8gJjDXlRQJyQhGcjjmOyLMM5RxzHFM4RGQvG4L0j7nQW2CjCWovvnNf/tyAsDmw6X8Pavul8H2/m4N8YQ6kc/vYa4/EudLrg/frOFbnpbZ8gv31i0C0QubTyLdB4AgX525MHfvs0/OapcB3g1jL8xr2wR+XsREREhtqgZxS0Wi1WVlZYXV1leXm5d71bDqh/6x5fXl7uzS7onxlwuet5ntNut9cd26xwoLsuweTkZG+bmppat3/+NjExweTkJOVyed3sAGvtBTMIuse7W5Ikw91xYCKIJgbdChF5DpxztNOUZrNFUTg8BqIolEHpBNLeO9qtdnidSqJQKd9AUeTUGg0ajSZxUiLOMvCePC964XUYwR9et7uvbc47rDE4H8J0YyxR57WucK732dN0HsADcWRpt9vkhSNJYqLIkmV5COZ96FyIoih8Dd73qvnnRUGpVOo9vvc+nG5NL6QPHc8GYzqdGoTw3XnXmTkQg4E4ijGEDoIosnR7HZJS0hv13wupCR0RcRTjvQuj0vte3w1c0CGwHVlrO51C4WetyENZHQwK8mWd7RPkRyODboGI3IRSD//hKPzF/Nqxf3kLfNNOhfgiIiJyZZVKhUqlwu7d116Hz3vfmx1w/tadLXCp29M0pdVqXXI2Qf/x48ePc+TIEUZGRqhUKtRqtcuuTdC/LsHx48ev6WuK45hSqUS5XKZUKl32ercM0NjYGOVyubfGwOjoaG87f/9ix5Ikuebv/bWJINYUTZEbWZplzC8usryyivOAd1jTHapnQhVdY/AG2mmb0dIY1oTXw1aacm5hnhOnz3C7jRgfH8HGMZVKuROEe4z3YEq9sN3aUCfdG7CEQLwb6DrvcUUo62atxXVG8jsXRm+Xy2WiblkWa0lKCSVKuKIgd65X9iYyhiwvQpkfuuG9J82yXpCPgTzLw2j7TtjsOo8RWYvHk2U53vtQyq1zjneeohPwQxiFX61UiCOLcx4bdcL6vpI+aZaGdWlsRJwkJKWE0epI77m3M2stY6OjTE2OE1lLZkLHTSiPpCBf1myfID++vqm0IiLXq17Av3sW/qazqG1k4E274W37Bzf3or9O73Z/syMiInKzM8b0Qu2tlqYpy8vLLC0tXfXl0tISq6uroc6zc72tO0ug/3q73abZbK67bbNGJXbrOY+MjHDPPfdcsPDwxa5f7Fh/SaFuJ4O1liSbZ7pwLM7Pr5tJ0Btx2gmp+jcRGR7ee2qNBkeOHqfeaNIdQ9+3TG3vmo0s3sfkRYYhBNp50eDIsWO0W23SLOXW/fvYOTPD9ESYheS9B+/D6PVueRlrw8K5hNeTyBiKvtfC7mj67sh9330N9R5rDN6FUfuhU6BznnOdEj0O3+kIyPMc7x3WRkRx6DxI0zSExwayPMzoCrOfYrxzFIUjK0K4XxRFr1MhiuLQfB9mIXhC56wHXOF6ob+xpvf4UZRgoyjMRIgiirygXWTknc+1WZJTKiU3Rc39yYlxdk7PUEoS2mkbaw1gN+lvn4Pao5vwuLLZtk+QLyKyhR6twbtOwOfqYX8mhu87AN+wY2vbceLECT7xiU/woQ99iKIoeqPjvPdUq1W89zz88MO89rWv5d577932b35ERERka5RKJXbt2sWuXbuu6X7ee9I07dX+798udby7NZvNdbMHnnrqKebn59mzZ89FZxJ0r7darcsGId3bGo0Gjz322HV/T7odAgAjIyO90f733xbzBz/W5Gvf+pW99Qe66xFc6rJSqVCtVnuX/Vv/sWPHjnHvvfeye/fudbMMBlUqSmS7ytKclVot1In3a6Phe+VtTIj2jQ/BuSu6ZVEcxhu8Kzg7N087yzhx5ix33XYrL3r4+ewbG6XUmRV0sTrx3QC7//Wle9kry3OF491jvfMA7xzG2k4Iv/YczodFfLutyIvQSWAMRHHcGziWFwXeeZwrMKZbBseTF67XF9HtpHTOkeehUzasHWAw3nc6D2IiG+5QFAVZnpNloeOglCSUk7g3yn+7S+KY0dFKKBcXRWSFw+AwdqO/9tBxpMomNyYF+SIi18ADp9vwrw6uHZuO4b/cB3dWtqYNS0tLfPCDH+RXfuVX+PjHP87k5GTvw1yaprzgBS/gySef7NXDfc973sPb3/529u3bx4/+6I/yxje+kR07doSFmERERES2kDFmy9ckyPOc1dXV3qyA5eVlFhcXezMFzp07x+/93u9x1113sX//fmq12rqtXq/31hToHw17setFUdBsNsnznJWVFZxzTJcNeT7KE088sWW1jpMkYWpq6oJtenp63eX528TERG8NgvNnCmRZRhRFlMvldWU2+i9FtiPnIMsK0k4Jmf+fvTsPkKsqE/7/PXervar3TndnX0kIsgUCsiiCMgIiOCqIAcnIy/ATQUcFdRQRZ2Qc13lxGXVwZQYR3EVw+AnIJvumLAnZ01l7SXdV13q38/5xb1V3Z+2QXpLO+eilbt26de+51ZXuquec8zxChHnkqzuEQXIRrmvhbRB81oK4qQjT8+zYQSGcbVRNV9bS2LjHFF9DA9jV9Z2D2q8ryF39Lrib74TSGAwVWtXR/3voTNh5pPzOnQdV1Q6A6uOaFhbKDbdXj11NGyQEaLpey89/OHA9D8/10MOUQ9XCxtqoX78IarfE5o/ycZXxoAL5iqIoI+QDd2yHrw+prX1CCv59NqTH4bdpd3c3N954I3/6059YtWoVH/nIR3jf+97HW97yFubNm4dh7NoIKSWbNm3igQceoLOzky9+8YvceOONnH/++XziE59g8eLFY99wRVEURVGUCWQYBvX19dTX1+9xny9+8Yt7fExKieu6tXoDQ+sO7Lwtm82yatUq2traMAwD27aJyk00NHwLTcvheR51dXV87GMfo1wu15ZSqbTP9aH391ajAMBxHLq7u+nu7t7v1ysajRKJRHa57enpIZ1O09HRUeuMqS7V+gWxWIx4PL7X2+qy83Y1i0A5WEkkFcemWC4NJtSpVpit3hEgfIFEIkUYmIaw4G1YDBeJ50vK5Qpbt3chwsMcMW8uLY2NRKORWofYRAavd9d5sKf7I7XHQWRDttc6AYb0aUz2IH71b4sEurp62LBlKwPFwrCUuUJ1kipDqEC+oijKCJR9uHwFrC4F9w0BMQ2+M28wjeFY8TyPhx56iDPPPJN0Os2VV17JV77ylRE9VwjBtGnT+MAHPgDAZz/7WX79619zxRVXcNttt3HDDTfwmc98ZhyKvCmKKtKkKIqiHJqEEJimiWmaxOP7TkXwtre9bfiG4mr4249qQap0Os0NN9xwQG1yXZd8Ps/mzZuxbZuBgQH6+vro7+9nx44d9Pf309fXV9s2dL1YLNZmEuxudoGUklKpRLFY3GX71q1bWbly5b4b+DoYhkEmkyGTyVBXV0cmkyGdTg+7v/PjQ5dIJFKbHTDSZej+irI7UoLn+gzkBujvz+J63rCCaGFKeIKQvY8vgtz1Q2P8YTg/GJZP0DGYLxTYsHkzFcdmIF9g3pzZNDc2ELVMDNMkHg1SrBxO783D6VohrDWTy5EvFHFdWPHaGtZv3Iht2/iqwK2yByqQryiKsg9ZFz68ajCIL4BPTYd3No19UdtCocDHP/5xfvCDH7B8+XL+7d/+jdbW1gM65oUXXshZZ53Fd7/7Xb785S/z4osv8vnPf56jjz56lFqtKDvxCiSs8kS3QlEURVEmVDqdpr+/f1SOZRhGLR3O/nJdl0qlssdR/7tbqvsMvR3JMnRfx3H22a7e3l56e3tf12ui63pt9sDQmQR7W9955sHQGQMbNmzAMAxOOOEEotHoPpdqR4IyuUjpUyoVWb1uPflCIeiQq1Z0ldXY/GBnV+09IKvP37VIa7VYrm3bbNm2nXy+wJoN60knkyTjcVpbmpkzYzpTwtoX6n01+fi+T25ggK3bu9m6rYdsZfu8YgAAIABJREFUrp91GzfQ15/Fdb2Jbp5yEFOBfEVRlL3YVIELXhq8bwi4/2hIjEN6ecdxuP766/nhD3/Ic889x1FHHTVqx06lUlx33XVceumlzJw5k97eXv74xz+OaJSZouy3+jN40w2LgIcnuiWKoiiKMmFqQXwJvj1xgRoNQcyMEjOjkBq/89q2XatT0N+fJZvtH3Y/l8vu8fFsNltLP4GsJjeRQ+b7SaQP5WKJUrE0+KgcvtdYEkKQSCRIp9PDlurMglQqRSaT4cUXX2TBggWcdNJJ1NfX09DQQENDA/X19ei6HqZiqY3hHryt5kevbh060vswIz2JZmoIoxo094Gx+TclfZ9yeYAd/V1I30bXBlOeVF/8apzelxJNeMHY/N39YMTgTfVd6bku/Vmb/EA/hmlgWRGattdTKA4ghE+71ko8HjuAC5BjP4X8UFRN4zMBr43neeQLRdauX8vqNWvZ0Z9la3cPuYEsrmsH9QHC1ExBW51gGS1SEiQO9vd8XOmDUB1INb4dvB5CD14/beJSwalAvqIoyh78pgdu3Tp4/7gUfLRj/IL4V155JXfddRcPPvjgqAbxh5oyZQpr167lvPPOY9GiRTzzzDM0NTWNybkURVEURVEUKG3Nc9/iHyN0FVyrA+qwgOZw2YkA6oPFlS6252B7NrbvBOu+Hd46VDx7p23hredQ8W1cXGxcbBwcnNp6cN8ddmvj0E0fACYGDu4+r0VKWSuQvGXLltf1epiaSUS3hi2WbhHVIkSMYD2iW0S06uMRLN3ExMDFw8SgkQwW5pDFwNzpfnXdxDgkuwLya/ppOWsGJ//8HRgpC7beBltuBT0x6ufSkNTbNhe29/H2pspOjwYheVEbYw/10QK2Z1BwrP0+V61YrtAwNYP4xhhGdwys/T8WAN4AeEWwDmxG96RkbwW0cX9tpJTg+5i2zexSmakpGzfh4ba4tc5HYFgHQ2r133ZblPiAlDcCPrzwjt000oFyJ8RmMfY5CA4RlU1BIF9PgJuDpX8NgvoTQAXyFUVRdiKBL6yH3w+Z1fvORrhh5vi14Y9//CM//vGPeemllzjyyCPH9Fzt7e3cd999TJ06lZtuuolvfvObY3o+RVEURVGUw5l0ffKr+ia6GYcsHYihESMCjM+oSImkjE2JMsVwKVGmsNN6eadtRSoUKdWes68OAcd3cHyHvFMYl+sCiBMlQYwoFpvYTguNLGIWCeLEiZEkWtsnQYx4eFt9zkR1BGy/dx3dD3fSdu4caD4fkotAjH6Iy3EcNmzcyB9e+TMDhXywUQ6ZCxIWw9b1YKRuxHDxfSg7GpquIRBIIZDSQxMamtDCYL1A4uP5EgF4vocQAl3T8XwPTRM01DfQ3tJMR2sr6VQKXdfQNC2o1xGLo+sanu+jaRrRSARDN8I2BbMGDF1iCBdhpkf9dTnkubng/aKP7Yz0ag0SX0qKpRJbt21n45bNbNq2jYF8Aen7lGybUqmMoQmk0BCAoWu4YcHbjy79IOlkcjRbBZ3fBN+BGR/f/S72dtUBNNTm74KIQOtFQQB/goL4oAL5iqIow/S58J9bhgfxr2yDy6eMXxs2b97Me97zHj7ykY+MeRC/qqmpidtvv53LL7+cZcuWsXTp0lE9/g57I99b827WF58GIKZnOKH+fSxMn8Xc5GmkzZZRPZ+iKIqiKMrBShgasz5wFOmj1CzIw40vfcrSxpYOju9iS5uKb1MZcmv7NmXp1NYr0qbi2pQrZYrF4m5rFORyuVoR4sbGxlp9gkqlgu/7e21TtZOhaju9bGdkdQoEAlOYWMLE0gwsYbHN6SatJ+mwWrGEiSmMcB8DUzN32WYIk0jEwrZtIBhkNKyOgRVhID9AqVTi2GOORW612fH7TUSxiE0Nc0OZ9WCe8Dp+Ivs20LuDv3V2s6annkI5GmyUEpAEg6t9fN/H0PUgT74f5sTXRJg332d32Z2ECB73w04BTQuTJmk6WliAuTNv8OrWEhFzM5ZpYlkWEcskFosSMeNErAi6FqRZsiyDSCSCZRpIJNFIlGQiTjyeIR6NkkolicfjGLqOrgWdCRHLUsWex4jv+7ieR8m2yQ5k6enppXdHiXUbKmzY6tCfNXDdJFIE9UE8z0WEKbOE0DCEhht2yLjRxZCqH8XWSTCbgnQxqWNH8biTmNkMWgzqTpnolqhAvqIoStU2G65YGdxCkA//pplwdsP4tuNzn/sc6XSaT3ziE+N63vPOO48zzjiD97///axatWpUP9BtLr1UC+IDlLwsD/d8l0d7/wsNg7bYQj5zxLMIlYdPURRFUZRJThga7RfMpe28ORPdFOUQIsOA79DboeueF+SI1zSttt33ffL5PH19fWSzWfr6+ujv76/dVpe+vj62bt3KI488gmEYNDQ0kM1mKZfLu2nJkDYhsaWNLe0g5XYo5+XJlfKv6zq13uD7QK0mgBC1a9Wf18NkNsH1xU67GT8cEX/iiScya9asWr2Bau2Bne+n02kMY2ShMN/36enr48VXVlAslwbPXa11qwkEOoauoSGQCNCrKXKGxu8H10T1rhCDxXIBIYfuF2z0HI+S41IqlWupVjQRtEFDIIRe+1lX0/IYuobQBLquowuNeCJOMhqjoaWJloZ64tEolmUhNI1kNIrUNCwhMC2LeCyGaRq1As6WZaFrWjDbQBkx3/fJ5gbo7ulhc08PGzs3s2XLFnIDebIDORzHrXXiCARC+pimie/5eFIifB9fG/wuPj5VPpRDhQrkK4py2JPAn/vgxvVQDD+AHpmAS1vhrNHs+B6B/v5+XnrpJc444wymTp06rue2LIuLL76YK6+8kkcffZTTTjtt1I791I7/ASCmpzm+/r3E9AwVP8/D3d/Dx8P1K8jgo6+iKIqiKIqiKDsZGtjeHdM0d7s9FovR3Lyb+gMj4LpubXR/dfT/7mYEVLcVi0U6Oztr7alUKti2PaLb559/HsuyaG1txbbt2lKpVGqdFDvPLnAGBmrrDz/8MA8//PCIry0ej5NKpWqj/4feRqNRGlvbSLe2keveTiRTj6YNGXAkIYjUS4LCw0FQvvaT2cOXGlHtAXg9X3okICS+BKTEQ4IMUrYMtk1iO344OEoghCRXLKAh2N63gw3xGBphkF8TWKaF0ARRyyIWjZHJpIjFYjQ1NNCQyZBOp0jGEyTisRF3fkw2Miyu7XkeUgazLXzPw/N9yuVyrXBtqVQmN5CjYttIKenq3cHmbdvo6ulhIF/Adhx8z0dKHynDgtbh2yHofAvOpwmBlD6RiEWpEtRkUDMmlKEOz3+JiqIoQ/xpB9ywHtzwj2erBd+aC6kJ+A3Z09PD008/zc9//vPxPzlw0UUXcckll/DKK6+MWiDf9R2e2vEzAKbFj+P907+LJnRsv8jD3d8DgumD2gTmmVMURVEURVEUZTjDMEilUqRSqdd9jOpo+p2XnR+rVCpBjvhqipoh+1QqFfr7++np6WHNYyt59Po/kCVP+uIOfvvA3fT09DB79mwcx6G/v59sNrvPdhWLRYrF4h4fX3j0sZzU2MK27d20x+JEorHwkSCALwA8PwjKC234qGkphwdmhxTDFdXh+rV9w0MSXLOGqI3SB4kUYWeBP+QMQiD9oGhq9VDhYcJUOeGW6oGkxK44eK6PLz2kP1hLVdM0TF3HsixisSipZIKBXJ6+TJrmxgZaW5qxLBNd1w+LgLIEpO/jBz0mALieT6lSxnNdfM+nYlfIDeTZuq2L7ECO7r4++rM5+nNZSpVKMEPGcalUbLwhP6OgK6eaPkcg9KCwsS40HNcLfl7SR9d1LBXIV/Zg8gTyvdc3bWukpJRUbHt4L6yijJDu+Qjfx3WcoKDIbvieH+TFU7+kx03Ogx91mfy8O7hvCTg95XLTDImQYO/+RzWm1qxdSzKZpL2jA9s58AZUp9nqmhZModzH+0vTNC644ALuv/9+/vEf//GAzw/wi00fp/oh6OSGy2oB+0d7bq3t84EZPx6VcymKoiiKoiiKcvAYaQ72WCy218dbWlqYP38+RxiziIU5/M/69Af4/s9+sMu+vu9TLBYpFAq73D7//PNs3LiR4447jkqlQrlc3mWpVCr4uklFSDpmzhgWdxdByD0MyguEtuu1BSP0g32qI7qHj8KXwf+HxOal7wMSTwp86QcdGVIGo+u1auod8MK8+xpacExNR3pBodxqm2Q4al8iwZW4EhwviN4LZJDVRwoG+xSqMwU0NAErVq9FALquBwV6Da3WSTDZDHa4EKSSEqBpwfdV6Ut83wtey3DWhecHPxuhaUGwX0h86YMUQ9LE+mEKJRF+Cw7/K0DIINYQFFgA1/EAia4bIDRA4rke/f1ZRBh/XLFqDScvOW68XhLlIDd5Avlu/5ge/qnnnuf2X/9uTM+hTF5vmfkci5o28v1ffwXbmzz/7A5lUtN5+V2fJecNbmv/80/I71jH9RPXLMqlEuddvIzrbvriKB41GJ/x3vPP45QTl+xz77e+9a3ce++9o3b21YVHa+snN30gbJHkpew9te0zEseP2vkURVEURVEURTl8aZpGMpkkmUzu8tgZZ5wxomP09vVxw5e+guM4+N7gl0bflziOg6Zp6IbO0BH61aCtaZrYjo3neoPD8EWQRZ9wxLzv+WFh3PDAYZ4V6Ulcx0UTgKbhSx9NAymDorpC6OimDloQXK+UikjPD04TXnepUKBcroSnFQhDQ9cNhOdjWBamZQVB/iA7TxCY1iVCSpxwBLkQAs0dDNxP1lpmspqnHh/HsRG6jtCMWo0DIanNkpAEsxnwQZN+NbNSLbVSNW2SCP5T68SRUoQx+iCZbNCR4uPaLq7rYpgWngQRpkoS+Oi6Vuv7WbdxowrkKzWTJ6JoNI7p4WfNmM6xi49kxrTxzVmtTA7T/QKN5HnH287EI7rrDlKycfMWWpoaiUZ387gyql4uavwyuYgBL/jTWGfAB+UapiydD8yfgBZJXNejUqnwq9/8FjyHhfPm0p/NUbEruK6L7TjkC0VM08D3fPLFIoZhEI1YOK5HKhGnLpMhGomg6xrJRBJd0zBNA03T8H2fBXNnj6g13d3d3H333aNyZY5fwZfBzIKWyHwEwQfAnspatpRfAeD0pqvCfJGKoiiKoiiKoigTrz6TobGhgVK5TDQaxbaD4L0mBIauBwFazx+SBmcwlF/Nk64JbTD1jtTRNQ9EMF5bN4KR89U86WGMH6lJdNMMR/4PpszRhIbne3i+h/QHOwFM00AagBBoQuC5DoZlUReLgRYUCg4q5AZRe+mD7zq4gO84uI5LuVSkVMxTyOUpl8u4jo3vecHMAL/ayNGjh50ghm6gGzq6bmDoepC73zAwjHBdr+4z9HEdy7SwIhEsyyJiWVhWcL+6bhgGO/p2MHXqVBKJZLA9fNw0zWEzCyq2zZZt23h55Sqy+QE81ws7RYL0RdL3a9MhhAx/KppAahpChjUbwu0iTI9UHb0/mJ5H1N4hmgi3hzMBqimktCHlEwzDJB6PBUWOgb97y5tH9fVXDm2TJ5Cv730a1oFqaWri8ovfM6bnUCaxzmegbzWnH7kU9PhEt+awdnsX/GIL5MNBFREBP1sEzeYcYM6on69cqdDX30937w4ee/oZprW1USyVGCgUyRcKDBTy5PMFXM8LijeZFlHT4sVXXsFxXIQQHH3kQtpaWjAMg+kd7cRjMSKRCMlEHEM3kFIGH2gME03XEOGHy9c79bG9vZ23vvWto3L9m0ov0GdvAuANmXNr27sqq+mzg0JYC9Ojcy5FURRFURRFUZTR8r4Lzucr3/kenucNGzkvNG3XwrXVVbHzBqgWnq2N0vZ90AhH6Ysw2A/VyL4mgg3VfOrV/PlC1zENozb6WwxJ21N9hgT02lBxwtQ/AqHJcFCVQNc0DN3AsExi0QjpZJIpzc0019dh6jq+71MplyiHBYwHBgaGLblcbo/b9lZ3YLRomrbXRQiBbdvEYkGR3qGPGYZBMpmkrq6OdDpNMpUiVVePb0bw0WopkfAZnGkhRS0eL8LX2vU98Dw8x0WYJrou0MPCxz5BrYPqrArhC1zfCYL74XtECg3DstB1PZjx4Qft1jUNTWhEIpFaIH8ypjRSXr/JE8hXFEXZC0fCtzbD/2wf3PauJvhwB6RH8JvQdhzKlQrlciW4rZSD9XKFfLFALpcnmx9g46YtrNu4kdbmJiq2DUDEihCNWLiuR7FUxjIMTNMglUjQ3NiAbdsITWPuzJm89tprfPFf/4Vnn3qKVDIxIXU5fvvb347asVbnH6Po9RPRkpzQ8L7a9id7/xuAKdGFzE2eMmrnUxRFURRFOehIGypbJroViqLsByEEM6dN5eILzuehvzzB9u7uWkFbDS0YmR3mpR/yH0RYY7YWfB0S2BcyCPRqejhAPvxfbXayCELtMsxbHwT9g4NqYZs0XUfTgtH8vu+DBN3Qg1Q/uo4mZDiSPBwlbghMLShmCxLDNEnEYsSjcSwzhhU1qEsl6JgyhfpMmmQiSSIRxzJNTNPYZQT7vvi+TynsACiVSqxfvx7fDwq4VgsMD61ZUCqVdqll4DgOtm3XlpHeL5VKuK5bG+VeKBRG9HNOJJO0TZ/BlKnTSSbTRKNRdFMPXkcAPyg6rBk6umYEr4cmMIwwBY/r4PkCDJMwgRISPwjqSxm8H9BqnTIaWjBqH4GmG9iei+55tYLCvu/jee6Q11TuofUHZvPmzTz49H9z5pln0tbWNibnUEafCuQrijLp5Vz49Dp4Mje47Z+nw/lNYISfSSoVm/5cjr7+fvqyWfqyOXp37GDF6jVYpkW5Usb1PDzXw/U8XM9FAHWZTDDtsr6exoZ6Zk2fxjv/7q00NjRgDp0CqOtI6ROJRIIPWeFIgZ0116VZv3oVxUKeTDo1Pi/QTh555BG++MXRydF/99abAJgWP4a22CIA+uxNPNt3FwDH1L2TtNk6KudSFEVRFEU5KAkTrBagZ6JboijKCAkhiEQiLF6wgG1dXfT29eG4QXBVCjmYYz4M6mo+QeoagtQqQgSpWbRqqF4IqI7R8iQSH2RQ3DRIqRME9w2h4YUjwX0EQg8K0Oq6TtQyiUVj1GfSRCMRPN+jXCqTSMSJZzKYSHQh8DwPL8zjH4lGScYTxONRkGCaFulMikw6jRAavudhRSxSySRaONtA13QM06gFlveHpmkkEgkSiQQA06dP3+/XPghke3jhrPX9uXUch3w+T2dnJ0KI2myBvS0DAwPkenvo3roV3TSJRCJYESs4phsUuzVMk2gySSKeBE0QS6ZIpTOYlokmQegapmWhx2Jono+vhXMqRDAyXwgtfD9oSC2sjSCDWRqmZYUTOMLXWoNsNlcruvuud12IkJJ4PE4sFqst1fu2bfPggw9y0UUXMW3aNFKpFKlUimQyiW3bzJw5k0wmQyKRqM1WWPXyyzzz9F+4/OZfMm3aNDZu3LjfPydlYqhAvqIok4KUklK5jG07uJ5LxbapVGy2xRr5QV+CF/PBflahj5ldK9j8wgq+PJAnXyxSrlSQvsSyzGF59iKWRXtrK40N9dSl02TSwQeeTDpFJpUmEY+N+jS3+vp65s+fz5e//GW+8Y1vjOqxR+Luu++u/bE/UN2VtZS9oPdkRnwJES34MHdH57W4sgLAKU1XHPB5DkXv++rd3PHoCmDUU06Ou3DAC9ddcAJfvvxNE9sYRVEURTkYxefBSS8zJM+GoiiHACEElmUQjUbCFDVDHqumrgmrooqwoK2sprWRw1OiaCIYYe+FedU1LUhhA9X09cGHalf66Fow6j5imEQiFplkinQyQVNjPfOPWMDUKa3Eo9EglY7noesalmWhWxZ6mJpHhOc7FNOyVNPgmKb5uo+xdOnS/X6O53mUSiVyuRz5fL42s6BQKFAsl4PbQpFisUS5UqJUqVApVygVS1TKZWzXwa2UMOMJpCZwHC/okPElUvqU83kQGlrEQCCwrAjSB00Lc/ZIEPi1mglVq9asZdumztpMgz154YUX9nmNlmXhODbf/miCiBm8N0466aT9fq2UiaMC+YqiHBIc1yWby9GfzdGfC5ZsuN6XDf7Q2o6L57l4vo/reuxoO4JVSy7ECTqyaXZyXFB8iY6MTd30xdRnMiQTCUzTCHIEGjqGrmNUR9IbBvo4p7ZpampiyZIl3H777Vx33XW0t7eP27lt2+bWW2+lpaWFs88++4CP92DXtwAwRIRz2z4LgCdd8m4wGm1q7A20REa/LsGhoBrEh8FA+KHuK795WgXyFUVRFEVRlElD0zSsSIRkMrmX9CaDxWBlGNzXqushERY+FZpAQ6vlwxdiSO71MAG7IHhME0EwO5lI0NLcQMeUKcyfO4dp06cRt6xh3YJ7CtYfikH8iaTrOslkkmQyudvH9xVIl1Ji28FM/57eHWzevo1cdgDXdWlrnUI0YmGaBn3ZLH9bsYK16zeRLxaCmR1BDqUgNZOUw74jvulNb6aQ7aNUKu126evrww7T+u6Lbdu1gWTxqOCSSy7hpz/96YieqxwcVCBfUZRxISW4roPtONi2g+3YVMJb23YolcvkBvKsWb8ByzQYyBfI5fMM5POUyxVcz8MyzSBXn2UOrpsmDXV1zJw2Fdu2ScTjTJs5m+dkhu8Wm2vnPyYJt8xNE9dPm8BXYd+EENx8883ccccd3HLLLXzpS18at3M/9NBD3Hfffdx3330HNPoBYIfdWUufc0LDxSSMRgB67XX02usBOLnx8gNr8CHsmFnNvLCum6NmNPGJC06Y6OYckH+583FWb+1nZnN6opuiKIqiKIqiKKMqalm0NDQSj8UYyOdro9yHBnX3FS6v7Tk0OivEYGHV8BhBkVOLRCJG1LBIp1PMnjmTI+bOprWpiUQ6RdQwVIB+guzrdRdCEI1GabEs6jMZZkztwA3TMUWj0VohXtd1WTh/Ps+/9BJPPvs827q6cd1gdoYfpunRw5kbAF/4wueZOW1aUOh4L6pphYrFIvl8nmeffZbvfOc7PPbYY7V9GhsbOfHEJSyYt4kzFvcx7W0fQtf11/uSKBNABfIVRRk1juuyddt2CsUiuXyevmw4gj6bJZsboGxXcB0Xxw0W13XwPJ9YNEoqmSCTTrN123ZOPO4YZkybSiadJpVIBLnmDaN2O7iu7zZv32fXwZ/6Bu+f3QCfnQGx8a8b+7pMnTqV73znO1x77bUsX76cBQsWjPk5e3t7+Yd/+AcuuugiTj311AM+3rrCE+ScrQCc1HhZbXtXeTV9dicArdGxv66DlS6CN+OSOa1cdsaRE9yaA/Pwy52s3tqPrh8i/8AURVEURVEUZYSEphGJRIjH4+QL+VosPvgOGg6nHxaOHyxuW70R1YeGPiaD+8FXWYmu68SiUTqmtDFrxlTqMxli0RjtU1qY2jYFy7JUAP8QoYXvmaDAcGDoz86yLKLRKJZ5DFJK7n/4MbK5HD5+8A6S4DgeZiQIsGdSKYwRBNtN06S+vp5oNMo3v/lNbr/9djo7O2uPX3/99Vx66aUsWrQQrfAS+EVOyZw8eheujAsVyFcUZRdSyiDY7jhUbDscQR9Ugi9XKmRzA+zo76evPxsUhu3vZ6BQwLYdPM8jHo8Rj8UwDRPLMkjE4rRPaQnzzAdLXTpFXSYdFNUZpfQ1W2xY9mpQ3BagzoBPToO3NozK4cfVZZddxoMPPsiJJ57IY489xuLFi8fsXD09PVx44YW12QCjobuyBh+PtNFKozWjtv2v2d8D0GDNYMphHMhXFEVRFEVRFOXgp2saqVSCtpYmunt6AA8IUuHInZKZDw3n757c7aO6rhONRmhtbmLxwgUsXriA+roMhhakfrUsUwXxD0F7+5lpmkYqmWT2jOm82raa3MBAUPFYC4opa+Zg4F4T2oh+/ps2beIPf/gDV1111bDtb3zjG7nmmmu4+OKLBzemjt7/C1IOCiqQryiHKdtxyOUGgnzztbzzWbZu66JYLuO6bi14X02HYxoGyWSC+kyG+roMDZkMs6ZPpb6ujmg0gmVaeJ5HIh4jFo1ihqlvxiPP/IoifGrtYBAf4FvzYEF8zE89JizL4uabb8YwDN7xjndw1113sWTJklE/T2dnJ+effz6xWIy77rqLtra2UTnuM313AtASnU/KaAGg4ud5esfPADgqcy5Nkdmjci5FURRFURRFUZSxoGkaDfX1LJw7j1dXrsbzgkC+DIPywQj9obnTJbKW637I1lqUf2gwP0jTo+sa6WSSBXNmc+yRC2ltaa6lO1EB/MnLNE2aGhtpqKtH03TwvfAtI4cNdtxXSbW+vj6+9rWvcdddd7F27dra9lNOOYVrr72Wd7zjHcRisbG4BGUCqEC+ohxCPM/D9Txc18V1PVxvp1vXpVgqk8sPUClXKBSLFIol8sViuF6kc/MWXNclEolgGkZQ6NUwMc0gXY2u65iGwcKFR9BQVxcs9RnqM3VEIta+GzkBfrAVvrtl8A9cqwU/XgDNB2dzR2zGjBl85zvf4ZJLLuHEE0/k2muv5Qtf+ALp9IHnIi+Xy/zqV7/iqquuYv78+Xz9619n6dKlo9BqKLh9dBafB6DemkpUTwHwSPd/UfT6ATit6QrEPrNJjg1X2vxq0/Xc3/V/mRY/hpTRvO8njbLtlZOANC/n7uP/rvrGmJ9vS+kV0mYrV835JY3WzDE/n6IoiqIoiqJMBkIIoqZJY0M98ViMsl3Zdadawdrdk0Oz7ww9NgJNaMRjcaa0tDC1vZ1UMomxj1zoyuQghMDUdYQMCiFLn3CehxgshMyeO3M2btzIzTffzPe+973atrq6OubOncvll1/O1VdfPR6XoYwz9dtBUQ4iUkoKxSL92Rx92WztdmtXF8ViCdfzcBwH13VxHBfHdcJbF03TiEYsdvT1k0mnmTNzBokwxU1H2xTisRiJWAzLstB1jXgshmWZWKYV3gbLoVbo5OW8z3fve5y8NEDTWBhoNzGjAAAgAElEQVSH97fC+hdh/U77btq0iUwmQyqV2usxHcehs7OT2bNHb8R4uVzmueeeY/ny5fsViE8kEvz85z/nzjvv5EMf+hBPPPEEy5Yt48Mf/vDrbssDDzzATTfdxFNPPcXVV1/NZz/7Werq6l738Xb2xI6f1NZPa7oSAE86PN33s9r2qfGJm8q3tfQqj/cGbewsvjAhbSh7i4A0/c4WXsn9/+Nyzn5nC0/1/oy3t316XM6nKIqiKIqiKJOBruvUpdO0t09hRzYYmFQdOT00970YFq0fjOwHcfzwMV/WNmq6QSIeY3pHOycvOY5F8+cRi0bH/HqUg4MQIhyVX49h6Liei5TB+2ZoQWVNGx7I7+/v55ZbbuG2225j9erVte3Lli3jyiuvZMmSJWoE/iSmAvmKMsoGR817eJ6L63lYhSJmxaZ76zbKjiA7kCeXG+Dl117D83wcx2FHfz8D+QJSytro+GpR12pB1xlTp9LU0EA6lSSdSpJKJkmnUqQSCSzLnOhLH3P5fJ6VK1eydetWPv3pT7Np0yb8I99I7rF7avusAH49cU3cpzvuuIP//d//3a9gfjQa5bLLLuNtb3sb5557Lp///Oe55ppr+Pa3v83SpUuZOnUqqVSKeHzXPEKVSoVCocCmTZtYv34911xzDd3d3cybN49HH32U448/fjQvD1faPNbzQwDmJk9jQerNAPTZnQw4XQC8o+3zCCauMGrGnEKdNZViqZ8GazpTY8eMexvu1YOOkwZrGm/InD+m56r4edYW/oLjl4nqyTE9l6IoiqIoiqJMNrquk0mnmTltGq++tqqWXmfEho3GDwK1mhAYuk5DXR1zZs6gtbGBxG6+zymTlxCCaCRCW0sLqXicSsXGR6IButBww3oM1bxMW7du5YEHHuBzn/tcLYVOXV0dM2bM4Oabb+acc86ZoCtRxpMK5CvKfqiOmM/l8+QGBsgN5Nm2vYuNW7YSj0UplytDisMGueUdx+GUtidY2LSFH993G7qZJJlMkkokAOiY0kprcxPJZJJoJELEsoLbiEXEsmopcA5XlUqF3/zmN7z88sv8+c9/5pFHHhn2uHjivglq2evz3HPPcfPNN/OlL31pv587ZcoUnnnmGZ577jnuu+8+vv/973P11VezePFimpubyWQyCCGIx+OUy2U8z6NQKNDX18dLL71EJpPh0ksv5eyzz+bUU08lOgajPVYOPEhXJRgV8ObmD9W2b6+sIutsI6bXcVTmvFE/7/4RtbQ+fzfln3lT8z+Oewt+FLmNTrazMHUmV8/96pieK+9285WVp7OtvGJMz6MoiqIoiqIok5EQgkQixuwZ02htaWLL1u21MfjBTZAORUrBsCw6g4PvQYggICvA0PXge78VoS6doqmhnkwmM74XpRwUdF2nLlNHXV2G3mwWEc7YEJqo1lUmlxvgpz/5Cd///vd59dVXg8eF4L3vfS8f+tCHWLp0KZFIZKIuQRlnh290UDnsSSlro+d936di25TLFXRdp1Kp0N3by/aeHrq6e9iwaTPrOzcRjVgIoaHrQfV4vbZoxKJRmhrqaWtpIZNJk0mnqEunqUunaCxEiBQe4V/Puw501cu+J67rks1m6erq4pFHHuH+++/nzjvv3GW/eDxOa2srU6ZMIZfLMX/+fD75yU/uMzDd1dVFMpnc7cj1ndvR1dVFe3v7AV3PUE8++STXXHMNtm3X/vi+HkIIjj/+eI4//ng+/elPs3HjRh5++GG+9rWv4XkePT09tX3T6TSVSoV3v/vd/OQnP2HhwoVjXiypq7waxy+hCZ1p8WNr25/v+xWurNBqLaAxMn1M26AoiqIoiqIoijKadE0japlBTnMxpHjtSOz0FUwChmEwd/ZMTlm6hHmzZmFZh3iBN+V1E5qgXC7XMjUJIbBME8dxATj3vPN45aW/1fY/9thj+Y//+A9OP/30CWqxMpFUIF+ZlKSU2I5DNpejUrHJF4vkCwX6+rN0btmCEKJWGLZi2ziOQzY3QF82SyqZJB6LUp/JUF+XoaGujtNPXsrb3nw6yUSCSCToOQ9GzAe3lmkOqyq+i04TCuN3/YcSx3H485//zCuvvMKTTz7JihUrePXVV4M/ZEPous6FF17IGWecwYIFCzj22GNpaGiYoFbvv5/97GfYtg3AFVdcMWrHnT59OsuWLWPZsmWjdswD8Vr+IQBmJZaSMdsAkNLnkZ7vA5A0GkkYjRPWPkVRFEVRFEVRlP0lNI1YLEZzYxOdW7YhpR/mvQ9m+4qw4C3IwYz5IsykL4ceJ8iL3tbayrzZs2msrycSiYz5gCvl4OQLQbFcplioDJnBIaiUBosqd/X0IoTg7W9/O+95z3s499xzaW5unqAWKxNNBfKVg1p11Lzn+5TLFaq/2VzPw/M8cgN5+rJZXn1tFb6E1evWsWXb9mEFW6ORCJqmoWsamq6haRoRy6K9tYVSucTsGTOYO3Mm9XUZEvE4LU2N6o/oGHEch+7ubkqlEitWrOB3v/sdd955J/39/cP2MwyDWCzGtGnTOPPMMzn++ONZvnz53jtLDmJSSv793/8dgFNPPZW3vvWtE9yiseH4FV7NBamOjky/nZge1AFYX3y6ts/ShmUTmh9fURRFURRFURRlfwnAMEySiTiapuH7/uCDIxydL4QgYlq0tTRz3NFHseTYo0nGYyr+cBjzXZdypYJuDMawHMehXKqQSAXpmJee8kau/uAHOfvstx2yMRFl9KhAvjJhfN9nIF9gw6ZNmKZJoVBkzYYNRCwL3/cpFIuUyhXKlWDp6u7GD7uyS+FI+hlTO0inkjiuy8xp03jzG08mErGIR2MEWeoEzU2NRIeNnrd2qfqtjJ3+/n6eeeYZnnjiCf7617/yyCOPsG3btl32syyLk046iTe/+c0sXLiQuro6Tj/99H2mwTkU/Nd//VdtfdGiRWOSm/5g8PPOayl5WQCOHlLA9S89PwEgaTRzQsPFE9I2RVEURVEURVGUA2FZJh1trUQjFnnXZTAjvkBW0+UPyaMjhq5IQSwaYda0aZxywvEctWgh8XhcBWYPd1Jil8sM5Afw/WCWh9AEVmww5/07zn8nRx19NJ7nqffLRCm8Cl4O+MxEt0QF8pUD5/t+bSlXKhiGge8HI+l96ZPPF+jq7WXdho04nse6DRtZvW49EcsKRtz7PhHLQtM0hABd04nFoiTicXp27OC0pSfSUF9P1LJobW6mfUqLyh93kLJtm2KxSF9fH7fccgvf/OY38Txvt/tmMhmSySSnnHIKixcv5uqrrz6kUuWMVD6f5+tf/zoAmqbxjW98Y4JbNDZ86fPX7O8A0IXJ1PgbACi4vazM3w/AsXUXYGmHfseMoiiKoiiKoiiHF03TaMhkOO6oo/jryyv424qVI3+yFEQsi9kzpnPWqadw5MIjMAwVjjvclUol/va3v/HVr36NVGsbhmHW0jLp+mDAXhMasWgE0zQnqqlK49sPmnqX6jeHsk+e57GtqxvHdcnmcry2dh3JRJxSqUy+UKRiVyhXbErlMus3dlJfl6FSscnl87iuy/SO9nDqmWT+nFkcvWghJx1/LJlUingsRqFYpKO9jVgkiq7rxOMxdNXLeMjo6enhq1/9Ktlslm3btrFy5UpWr16N4zjD9mtvb2fJkiUcf/zxNDU1cdpppzFnzpxJMeJ+b37/+9+zatUqAK6//vpJe71dlVXYflDX4Owp19e2ryn8he7KGgCOrnvnhLRNURRFURRFURTlQOm6TjwWp6O9bddA/pAc+TCYF18IQTqdZO7MmZx43DHMmztHBfEPc7Ztc/fdd3Prrbfyp/vvZ96iIzmurSN8/wiEAM9x0cLAfSIew1TvmYnVMXp1Dg+UeiccJqSUwxbfl/gyGEVvOw5d3T28tGIlpXKZlWvWIn2fXL7AQD6PJgS+lLWCrkKIoDe6LsOO/izT2ttYOH8e9ZkMRy6Yz3FHLaahvo6IGjU/6dhhYeBiscjvfvc7/ud//odHHnkE13Vr+wghsCyLVCqFaZqcddZZ3HjjjSxcuPCwzP1366234vs+DQ0NXHrppRPdnDGzofgMFT9PTM9wWtM/1rb3VNbhSw9Li5Mx2yewhYqiKIqiKIqiKAfGMHRmdAz9XiNASJDVtDrVHDvBNsMwmDG1gzNOPZmF8+ap1CiHMcdxWLFiBUuWLMG2bQB0yyIexk586YPcteRC8J45/GIpk5YMs1YIfe/77YEK5B/CpJQUSyU2btqCaRrkC0XWrF9PKpXE94IAveM4OK6L47jYjk2xVKJi2xQKJQrFIp7nYZoG8ViMcqXCrOnTmTtzJqlkgkjEwtANYrEolYrNnJkzSCWTxCIR4qogy2Fjx44dPP/88zzxxBM8/vjjbNiwgddee632h6cqkUhwzjnncMIJJ3DUUUexaNEipk6deth/UHnggQcAOOmkk1iwYMEEt2bsrMw9iC9dpsaOIWHU17Y/s+PnAByROpP22JET1TxFURRFURRFUZQDJoSgua2NaCRCuVKhFnatjcYP8+bLIADbWF/HEXPn0FhXd9h/Nz5cua7Ln/70J37wgx/wi1/8orZ9yZIlXL58Ob5h8vLqtVQqYYxFwtDAva7rCFXncfLo+hX0PwQLvhXc923I/w3SxzGSDhsVyD8IDB8p74MQSClxXZdsboAdff28+MorIKFs2/T09rJi9RoMXccPn2PoehBYF8E0nIgVIR6NEo/HiEejxGIxunp7MA2Tt5z6RlpbmpnS1DRp03wo+09KiW3b+L5PNpvl17/+NXfccQePP/74LmlydF0nEonQ0dHBZZddxqWXXsrs2bMnqOUHr5/+9Ke19Vgshq6/vh7Xg53E55WB/wVgZuIEIloSgO3l11hT+AsAx9S9E0OoWTqKoiiKoiiKohy6NE2jtaWZjrY21qxfD4gg7iplWPBW1kJxuq7T1NjA7BnTaW1pmagmKxPE8zw2b97M8uXLawP8hBBEIhEuuugivve977Gtu5vf/fE+pD84Dl8iEfpgQDcWi6FrkzOWcFgqroSuXwwG8nfcB6/+HzjmD5A6bp9PV4H8Meb7Pn3ZLMViCdtxKJZKvLZ2HalEAtu2yReLFEslSuUKO/r66NnRRzRikc0N4Pk+U1qaScbjeJ5HQ0M9mVSKBXPnsGjBfOozaWKxGN29vRwxdy7pZJJYNEokYqnR8sqIVCoVnn76ae655x4GBga499572bx5M+Vyedh+QgimTp1KJpPhrLPO4vTTT+foo49m1qxZ6r22B52dnXz605+u3f/P//zPCWzN2PrDln+hz94EwFGZc2vbf7z+A7X1o+suGPd2KYqiKIqiKIqijCYpJZV8fjephEUtMb4MxliSiMeY3tFBXaZOfW8+jPi+z0MPPcSPfvQjfvnLX1IsFhFCsHjxYpYvX8573/teOjo6GBgY4OVXVrBlezee5+FLCb4fzOsYMgI/Ypmot88kJF0QRhC81ywob1SB/LEg5fBsVa7n0ZfNsn5jJ/25AQYGBnj82edoaWpixarVw/Yd+ovbNE0a6+voz+ZIxGOcedqp1B19FPV1GWZ0dBCJRMblepTDS3Xmx/bt2/nkJz/Jbbfdtsd9hRDMmTOHZcuWcckllzBv3rxxbOmh74EHHmDLli0A3H333TQ3N09wi8bO/V3/Ea4J5iVPByDv9pB1tgGQNtpIGo0T1DpFURRFURRFUZTRIaWkUChimYOBfCElMsyQH4zODxJkpJNJ5s2dTVNjwwS1VhlPUkq6urpYvnw59957b217IpHgX//1X7n66qsxwwK2vu/Tnxvg1dVryOZy+FKiaxqyGjccErjXNQ2h0jJNMhLcPJh1EGkHsxmyT0HzvgdAqkD+brzy2irWrN8ABIH6QqFAxbapVGwG8nlWr99AfSaD67n0Z3PUpdOYlkkqkaCpsYEFc2ZTn8kwb9ZM6uvqgp7YWJwpLc3E4zGiVoRYLKp6ZJUx19fXx9NPP83TTz+N7/v84Q9/4Mknn9ztvosXL+bYY49l2rRpxONx/v7v/54jjjhinFs8edx8881A0Gk3c+bMCW7N2Okqr8KTQeqlc9tuQBPBB4wNhWcYcLdjalGunP3ziWyioiiKoiiKoijKqJBSUinbVOzyHh4PRuNLwLUdzDDAr0xeUkruuecefvOb33DXXXeRzWYRQrBgwQLe//73c9lllzF9+vRhzymXy/T19w+m2SboENqdZCKBMUnT9B6WouF7wS8AdcG6MMDpHRylvxcqkL8bDzz6GM/99SUgyGnmeR5T26fwppNOorGhnncnk3RMacUwTEDWAvJCiGHrijIRbNvmjjvu4OMf/zi5XA7P8/A8b7f7GobBLbfcwuWXX45pmmiapgrwjJLrr7+eK664gmQyibXLtMvJY3X+URxZJqqleFPT/1fb/mjvD7H9ElNjRzMlpjqEFEVRFEVRFEU59EmgbJcplkqIsL4hIhyVLwfz40spsB2bSCSi4kOTWFdXF+eccw4vvPBCLe5iWRY33HADH/3oR0kmk7t9nu045ItFHNelYlcQw2L4Igjqh2+bTCqJYajw7aQh3aDHr7gGIh3BtqZzoNw5oqerd8JuXL38A/RlszTU1U10UxRlRJ5//nnuuecevvrVr9Lf37/XfS+88ELmzp3Leeedx+mnnz5OLTz8xONxNE2jqamJRCIx0c0ZM6/k7sOXHrOSS4kZGQBcafNc310ANEZmqrQ6iqIoiqIoiqJMClICmk46lcLQdRzXDdPqhEPxh3A9D9NUYbfJ6Nlnn+W2227jv//7v+nt7QWgpaWFD37wg1xxxRXMnj17j891HIe+/n7Wbeykq7cXx3YxTIMwMdMuHT+27YzZdSgTIH1icOsNDNmogW9TfQ/sjfqNshtCCBXEVw4Z99xzD+9+97splUp73OdTn/oU5557LgsWLKCurq6Wl01RDoQvfZ7tDwL2LdH5WFoMgHu3/lttn7e0XINAzfJQFEVRFEVRFOXQ50sfgSSTTmGYBo7rDubGB0AG6XXQwPeJWmpE/mTS1dXFxz72MX75y19SqVRqdTTPOussfvSjH9HR0bHXn7cE8oUCnVu2sr2rm2KhiKbpBMWSCUbmazIoeKveNpOT2QhIKA2pq9r1K4hOC1Pr7D1eN3kC+V5+olugKOPGdV0eeughrrvuOp5//vna9lQqxXvf+17a2tp4//vfz4IFC9SHBmXM/KX3h/gymD44L3labfsTO35SW5+XfNO4t0tRFEVRFEVRFGUs6JpGQ10di+bPY8Wq1ZRKQa58TQh8KSEcnS8EeK5Hxa7g+75KYXuI++tf/8rtt9/Oj3/8Y7Zv3w7AjBkzeNe73sVVV13F/PnzR3Qcz3XJFgps3radbT3dOK6D57toehC8lSLoCAJRC+TrKj/+5BKZEtx6hSHb2iE2F7ToPp8+eQL57t7TiSjKZOG6LldffTW33XZbbRR+e3s73/72tzn11FNpaGhQHxKUMSfx+eWm6wGYEl3I8fXvAcCVFXzpA2CICPo+CrUoiqIoiqIoiqIcKnRNp6G+nmQizorVq3n48acQQqDrGtJxkQSjqZGSkuuwees22tvb1RzlQ1RPTw+f+tSnuPPOO8nn80EdBCH4p3/6Jz7xiU/Q2to64viL7/tkBwZYvW4dazZsIJvLB2mZpAQkaAKkACkRIugUAlR+/ElHQMNZUHwNpB8UvS28BKk3wAhKY0+Sd4OAmZ8BoXqplMnLtm1+8YtfcNNNN/Haa68BsGjRIt74xjfyla98hTqVDkoZRy/0/ZaynwPg7Nbr0cLfv1tKL1P2sgCc1/75CWufoiiKoiiKogBIKXFzNsWNOTRTJzoljpG0EIYKrSr7TwiIWCaWaXDcUYt5+PGnkFLie/7gPgBIXN/ntXXrWXzkIlKTuG7aZPTkk09y991388Mf/pAtW7YA0NHRwfnnn88111zDwoUL9+t4UkqKpTLrOjfx0isr2bq9C8cJc99Xh97X6tsOT9YUj8cP+HqUg8z8/4AnFgMudP8WvBJMWTaip06SQD4w/aMT3QJFGTOPPfYY73vf++jq6qJSqaBpGldddRWf+9znaG1tnejmKYehfmczMhx5/4a682rbN5VepOgFM6TekD53QtqmKIqiKIqiHJ6237+BF699gON/cDbFDTn+9smHAZCOj1dyQQMtYqAZAoTgLY9fQrQtOcGtVg5FQgjmzJiBEAIpg1H4Uogw/hqMy5eex+q1a9m6bRupOXMmuMXKSPT29nLjjTdy2223kcvlats//OEPc91119He3v66Rsg7jkNXdzcvr1jJ+s7NlErl4H3j+wgtzI8vJH6YUkeIwY7GaCQyKtemHETMpmBBQN2bYNYNEF8woqdOnkC+okxCnufx29/+luXLl5PL5dB1nVNOOYV//ud/5pxzzpno5imHsdfyf0YiOSJ1JlE9Vdu+Jv8XADJmGzFDzRJRFEVRFEVRxp7v+Gz53WqeePfvAHjw5Nv3uG+kNYHVEiM5rx7pyz3uN2pkMBpXaKp22WQTi8VobW5iW1f3rg/6PlJCdiDPylWrmdbeTjQaVTXsDlKrVq3iV7/6Fd/+9rfp7OysbV+2bBnXX389Rx111Os+tu/75AbyrN2wgTXrN5AvBDU+hRBIQNONcJBc0MFIGNwP6+iiGyr7yITo/g28+n/gDb+BulNG+CQJ7gAY6b3vJnQ4+dVgPToNpn14xM2aXIF86YN0QFO9Vcqhz3Gc/8fefYfHUV8LH//OzFbtalUtyb0X3LBNsTHGYIMhjkMJEHogFIcQuLQXMAQCBGLgQgjkJtSQcE1PuZgaEnoxYGMwxr13q1h1V9t3Z37vHyOtJVzBllaWz+d5Npq2s2dlpGjPnDmHe+65h/vvv59oNArYV4F/85vfkJeXl+XoxMHumwb7Q1JXz1AMzZXZ/lnt/wIwwD+BfGe3rMQmhBBCCCEOLtENQb657oNd7je8DorGd2PA1WPIH12KI8eBM9+NZrR9e51FN35I+etrOeypk+hyTI82fz3RfnRdz/RHV0qhNbVDsdDsRJ0ySSSTLF+9lkEDBtCrR3e8nj0PsxTtp76+nnvuuYfnnnuOqqoqVFP2fPr06Vx99dUMGDAAzz78m6VSqUxf/MUrVlJTW4OlTHunAsPhwFQWGnZVvq4sFGDoDtJm2j6sPS44HlQUVP0d/CPBt5sWSevvtr9W/X3vEvnKgi/H23np4X+HnLa5C+fAT+SrNNS9B4EjYe1t9i/LQQ+DJv3uxIFr69atzJw5kyeffBLLshg6dCj3338/06ZJqxKRfaHUtsxy95wR9h8dwJLgW1jK/mNjaODETN98IYQQQggh2pKr2Iur0ENscyMABUeUkTeyCw6fk4LDS+l13iHtkrT/tlUPzmfVg18C8OVFbzF13fR2j0G0rfFHHM4/X3+z1TYNhdLsRH8ymWRrZSXzFixA02Bgv35SlZ9lSik2bNjAG2+8we9//3s2bNgAQGFhIT/4wQ+44YYbGD169D6/jtlUib942UrmfvUVG7dsJZFKAnYXfNOy0NHQNA0NDYWFQmFZkEqnM63z0+nUPsciWlDKziOvvAom7uRummaj34MVvwAztOtjmlkxWPFLiK21178cBwWT4ZAnYD93KjjwE/npBlh2kd1PyN0VYhsAC2QmuDhALV++nB/+8IeZ/zM55phjeOaZZ+jTp0+WIxPC9vfN12Iq+4+JEXn2xSVLmfxzy40AdHH1Z1zRhVmLTwghhBBCHFyC32wjsi4IQMGYEo7595m4CrNf+Vz3RWVmWfdIkUtno5Sia0mXTJ98u8+5BpYilU5hOB0oyx5yunDpcpQCl9NJWWkpLqczU80v2k8oFOJ3v/sds2bNYvPmzZkK/IsuuogZM2bQr18/3PuhJ71pmoQaG1mxZg3zv/nGTuInk3YRXPMsW6XQlEKhoTQ7v5xKpkmlknh9PoymAuVEIrnP8YiWLEhWgG/I7g9z5ttV9WZ0z6cMLYC6t+3lopOg66Ww6mpYdgmMfHnfQ27hwE/kO4tBmZAOghmG+Dq7Sl878N+aOPisXLmSoUOHAuByufj5z3/OQw899L2GqQjRFtIqyfz6FwHQ0DLtc5aG/k1N0r76fGLZjThatNsRQgghhBCirSTr4nxz/YekG5MYPidD757QIZL4AL7e2/skD/ivMft8PmUqauZsIbK2gXV/WUxyW5Rhd0+g5zl7SEiJNqGUyjzATuJrmoZmaJiJNErTcDicpE2LhmCIBYuXEo5EGTpwAAP69Ka0tASHwyEJ/TamlGLhwoV88cUX3H///axbtw6AvLw8jj/+eG6++WaOOOKI/fZ6qXSa6ro61qxdx1eLlrBh0yYSyRbJ+KZOOZpugKHbyXzNTv5bysTj8dBypEZKKvL3r3QQgnNh3JI9H+vIAzO2+2PMmN0hxkpB15/BgPvsbjGl50LFXyC8FPzD9k/sdIZEfrP4Juh6kf2PIcQBqKqqiosvvjizfssttzBjxgxJ4osOZVN0QWb5vF6PZZYr4ytIWXEAhgSOb/e4hBBCCCHEwWnB5W/T8LXd+jEwtIiS43pmOaLt0pHtCbht726k/xWjdnpcsj7OnB/+H5qmcdhff0BgSOEOx5gJk89OnU3Nx1swY+nM9nnnvoGryEPpFLmDu71pmkaO14vb7SaRSKAAp2E09Tc3sdDQNbv8WikINYZZuHQ5m8orGLJ5C4ePOpR+vXuRk+OVdjttJBwO84c//IGHH36YmpoawG55dM4553DzzTczYMAAvF7vfnmtZDJJMNhIVU01y9esZfnq1VRUVZOIJwCa2udsp2kalmUBdh98HWAn/fATyaQ9g0H+G9k/IsvBOwBcpXs+VvfaReO7U/4XiCyxO8X0vHr79q4XwZZHIL5BEvk7yDsKoqvBPwIiS8FKgt4xrsALsTdqa2uZPn06n3/+OR6PhwcffJBf/vKX2Q5LiG9RfKnmIBsAACAASURBVFn3NwDynN04quhnmT1rwnMAGB6YRoGze1aiE0IIIYQQB5fGFXXUzi3PrA+68QiMHOc+nTNeEabyPxuo+XgL3U4bQNcf9UdrKo9VpiK0vBaH32lX2+8hsdbrp0NZ++hCAHL6bK/Oj24MEVpWg39gAbrbwdyzXqNubgUAbx/yV6Ys/hl5w4szx297byOf/+R1UvXxnb7OyvvnSyI/CzRNw+f3kePxkEjYyVqlkWmTomlgWSZooGk6Gop0KkVNbS0L4zESqQS6rtO/Ty/cbrckavcTpRQVFRW8++673HXXXaxda985bhgGkydP5o477mD8+PH77fsdTyRoDIWoqq5h4+atrN+8ha2VlTSEgiSSKRRsf63mPL1mr2jbV7CUhWmZdqJWac2bMU0Ly7IwDGnPtV+E5oO33673qxTEN4O3r51bTm7b9bEAwTlg+O3ZrS15uoNKQmo3ffi/h86RyO97J6yZYX+DXaX2N12IA0RtbS0XX3wxr7/+OgA333wzl1xySZajEmJHaZViYcMrAPT1HYnR1MIsYUZY0fgeAINyj8Wp75+KBiGEEEIIIXZn7RPfECuPADDo/x1Oz58M/l7n+fzMV0nWxpnw1hl8NPnvNK6sAwUbnl7CyAePY9D1hxPZEGThVe9R92UljhwnPc8ZwrCZE3abDCwa2zWzXPH6Wg59cBJmNMVXl79N1X82kNMrgOF12K/XwqZnljLi/mMBqHpnA1+c/2arJH7vnw2j5uMtmbkAIntKi4ooyM+jPmj/W6RSKeJpE6VA17WmbL5p12JrGmgK0zQJR6Js3FJOXt5yvB43pSVd8Ho80mZnH8ViMR599FGefvppli9fnkmAn3766Vx55ZWMGjWKvLy8733+5lZK8XicxnCYUGMj26pr2LS1nA1btlJdW080FiOdSmMps1UFvgLI5OfV9n1NvfLTponb48UwWqdqvV4vmvx3sf9EVoHZuPN9VhKW/cxO3o/8B+huaJy/+/NpTsg/BvLG7nguzWm3hN+POkci33cIhBeCssCKQ+hLe7iAEB2cUorbbruN119/HYfDwS9+8QvuuOOObIclxE5F0rU0pOyKpwH+o9E1uyLgs9r/JW42oqEzMv9H2QxRCCGEEEIcJKre28iah78CwDcgn/676UFvRlNE1gcJr2tg8U0fY5kWJ35zEYbXSawizNb/Ww3AbO/DOzw3sqaBui8q+Gr62wQX2ZWVCWDlA/MpOro7xcf0wBnYxXwoTeP4r37K1798lyG32Eme6JZGqv6zwV7eFNrp05oTfPHKCPPOfYNkrZ3EdxV6OOypkwgML+aT9/+ROb6jzAQ4GDmdTrqVlbJu4yYALNNCWRYYDgzDgbIsLM3ANE10TTUlZDWUadEQDLJq1WoCPj/ptEnX0hJycrxSef0dKaWorq7mgw8+4Ne//jWrV9s/zz6fj3HjxnHrrbdy3HHHfe8KfMuyK+ITyaTdPifUSEVlFVsrK6nYVkPVthrqQ0ES8Timslo9V6PpDo2W8bbchz0oWVNgptPQlLA3DMMejAv2BR65W2P/6X8nLJgMqTpwtmhjlqqHDTMh/A10uwwc+XYiPmcPM0hUCtJhMrdQNKv/oGlh//7bHbiJfGVB0wRnDA8YOZBusJP66YbsxibEXvr00095/PHHARgwYAB33XVXliMSYtee23g5prKH9BxecDYApkrxQfX/ANDPP44y9/erghJCCCGEEGJvpYIJvr7i3cx638tGkNMzd4fjEjVRNj2/nK3/XEVoRR3JujhYCleRF5W202mbnlm229fa9uEmNsxaihm17/wPDCtm4DVj+Oryt/nq52+TO6iAw586CV///J0+v2BMKcd9ci66085frHpgD9WdLWydvZpkXSKzfuhDk3Dmufjs1FdaXQQYfu8xe31OsX9pmsaZP5rGnHn2v6um6yjTRNfAl+PFshSxWAwNu5LbUqCcBpppYugGCqiurcXtdmE4DMr0Ynw+X3bf1AEkkUjw5z//mb/+9a8sWrQI0zRxOBxMmzaN66+/nsMOO+w7fT+VUqTTaUzLwjRNUqkUocZGgqEQNbV1VNfVUllZTW1DkFA4TCyeIJlKo5S503Stav4frWkgcnOffGWn8VEWKEimkqDpGIYDTbN75pMpwpdq/P3KWQjOLrD4DBj2LLi6wZbHoPplu5/9sBe2V9drBmh7SJ3rXjCr7IS+1tTaTVlQ9w7kDIb8ifs1/I6XyFdpCC8CKw15LfsLKTJXMeo/tG91OHrD9t1mFOaPBf9IqHgOSs9uz6iF+M4aGhq48cYbASguLuajjz6ioKAgy1EJsXNxs5FFQbv9k1v3U+Cyh4htiS2iLrkZDY1JXa5G0+SPDCGEEEII0bbqvqggXm4PIHTmuxl03eEAJGpiJLZFqZtfwfK75hJZ17rIT3PoFB/Xk3F/OxlHrl1Fn6yN7fa1NE3bnsQfWsTx889HWfDVz98mXh4mXh4mVh7eIZGvTEV4bT05Pe32OQBW2qLq3Y17fH85PXOxkiaLZ3xkN1tvEl7bwFeX/QcrZVf9Gl4HY544EX+/nV9EEO0jkOvPLOcFcqlvCIKCXt17kZubw/pNmwgFg3bbHA0cDgcel4uSokJKSkrw+3JwOhx28tiyZLDpHiilWL9+PQsWLODWW29l1apVAOTk5DBq1Chuv/12pkyZsldtipRSdsV909dEIklNXR3BUMhO4AeD1NbXs622jsZwhFgsRiQeI5UysZTKlNfb/1xaJnPfvEpzxf0uXlspha7pRMIRcvMDTf+NaGiWvc/tdtOlaMfh12IfaE7oMwPW3QHzRtvbHPkQOBxG/BOcLfNyOihz9+crOx9WXQuxDZAz0N4WmgcVs2DQn8Cx40XmfdGxEvlWDNb/FrY+aa9PbBoIsP4u8A2HktPt9dhaMCMtnqjZ04EDR0LjN3Z1vhAd3AsvvMCCBQvweDw89NBDlJSUZDskIXZpTfjTzPJlfV/MLK9s/IC0FSfgLGNIYFI2QhNCCCGEEAeZpbd9SjpiJ9cNr4O5Z7+OMhWxrY1E1gVJNSR2eI67i5cxT5xI2dS+GB47FaIsRaoxudvXCi2rBaBwXFcmvHE6htdJxVvrWh+0k6Trst98yrrHv6Fsaj+OmDUVgOr3NxHdsPN2Oi3l9Aqw4p55pBtbz/9bftfnrdYP/+sP6P7jgXs8n2g/ocYwuq5jWRbDDxnIoL59WL2uK1XbqvF43JjKxO/PJS83l5LCAvz+XBJmGpemk+v343K6JIm/G8lkkieffJL77ruPrVu3AvaFkRNPPJFrrrmG8ePH4/f7d/rc5sS5ZVmk02kSiSTRWIxEIkk8mSAUDrOtpoGq6ipCoSANoRDhSJRUKkUqlcayTExLYarWjXKaW+Bk5tna020z1fhaJo2vZZ6Dsnvka4aOUhAONtiJ/BaHptNJpp9/Lg6HFMvtd0VTIfcwaLTbs+EqswvDtW+1tdI0SNXu/lx54yBZBSuvgkEPQ9XfofpV6HYxlJ6530PvQIl8BZUvQeUL9mpz0h5g8x/tgbbNCk/Y8ek9r7a/5o1ruxCF2E+++eYbrrzySgAmT57MaaedluWIhNg1hWJFo33rcqlncKs++PNqn0WhKHEPxK3LLaBCCCGEEKJtmbE0dV9UZNbjFRHKX1nT+iANdJeB4XGQO6SQkQ8cS9HR3dF0bYdzlb+6dtcv1tT9AqDLxJ64irwAVH+4OXNI7uBCfH0CrZ5W8a91LL97LgB18ysy59j84oodXsLhd9LtxwPZ9Oz2Fj9dJvXE1cXLst98ttOwfP3yGPPEFEpP6GNvUIpkfYJ0Y5LQshpiFRF6XzAU3SW91tvL2DGjmLdgIaVdiunVvTtej4eTjjuGdDpNXiAXpSwMXSeZSmHoBl6vB7fbjcPhwDRN0qaJ0+GQYbc7oZQiGAwyZ84crr/++kwPfMMwGDp0KPfccw9Tp07NzBZQSpFIJEilUrT8ITZNk2gsRjAUIhyNEo7E7PY4sRiRSIS6hiDBxkYaQyHiqSRKaaTSJmgWKm1fBFAamQstSil7ZK2l0HQNvTl5j2ZfzGlK+GuqadCxsp/jcrtQOqTTaTvpr0DX9ebuO/a5HTqjhx/K6JHD5cJOW3GV2An93VKQ2LL7Qww/DH8JVl4JX020W/f4hkPfO3a8MLAfdJxEfvVrsOYm8PaHpAWl59rbVdr+6mxxq9i6pmGg3x5MIMQBQCnFddddl1n/4x//uMsrxkJ0BEkrwvw6uwp/oH97f7eUFacmsR6AwbmTcelyN5QQQgghhGhbi2Z8tMt9zkIPXSb2oHhiD3IHFeAq9FJweCm6c+fJFCtpEq8It9pm+JyYTdX+LSdUDrnNLho0o6lWFw5yeuXi6br981w6kmLlvfMy611/2M+uro2kiGzcsRp/4PWHYyVbt25wBtwUj++Op5s/00KoWZ/LRjDszvF4yvwEl9Sw7rGFJGpiRNY2ENsaJl4ZIadPHqUn9CanV+sLDKLteL32RZ502uQnJ0+juKkditPppKhw9y10DcOwE7mSsN1BKpXi6aefZtasWXz55Zckk0kcDgeTJk3ipz/9KSeccAKFhYWZfvbptEk0HqNqWw3BxjCN0QixaJRkPEEsHicSj9qV+PEoqbQ9xNZMW6TSKeKJOOlUCtMC0zKbEvUaWHblvE7TenNFvq41leFrmTb4OgqlLDSlmgbUaqDbw2ybW+2k0yZNpfpNlxkUxWVlKAWpZBILjQF9enPuqafg9cgg66zSXOAs3vNxhZNh5GyILIecQeAf3mYhdYxEfqoeNv8PePoClt0iJ/9Ye1+y+lsHK6h5016sextKz2nPSIXYZ5WVlZlbwH76058ydOjQLEckxO4lzCgNqXIAyjyDMtu/qv8ncasR0Bidfxr7exq7EEIIIYQQ31b17+2z8nqeOwRlKSLrggz51Vi6ndwfzdj7iubqDze1WnfmuXHmuYlGUjsca7gNYlsaWXrHp4RX1We2H/XyqWjG9r+Daz/dSs0c+/Oeq9DDyN8dB9i9+IOLtu3wesPuHM/XV7/favvG55dRMLqUAVeNZsmvPmm1b8NTi9nw1OJdvifNqZN/aBdJ4rezUcOG8uGnn5NIJonEohTz3YpOD6YkvmpKhLecBWBZVuZuBMuyCIUa+fTTOVx77bWsW7cOTdPwer0MGDiQm26+mXHjxmFZiopt29haUUEyncZSimCokYaGIJU1ddQ0NBCJRkknElhKYVr2BTO9aVlpOgrdbmejVFPPewurRQscpWhKyINq/jfS9Ka+93aLHDTQVHNKHpTS7Mp97Er85lS/ah5023ScXaKvoaHhdLkw0ymchsHggYO47IJzKJQZitmnu/Y87BYADXyH2I821jES+XXv2gNunYV2j6LBf2rRY85qfWxwLvZPiQPW3SWJfHFgSFbbU6tRLFq0iE2bNuH3+5k+fXq2IxNij5qH3Bqak+F50wCwlMU7VQ8C0M07jG7eYVmLTwghhBBCHBySdXGsxPbq9UMfmoSn9Pu3d6x4s3Wv+6P/dTofHv3iTo+de9br1MzZQrI2ntnW7ccDcPhdrY7b+OzSzHJzEh9gzZ++bvVczdAZcf+xoGk4cpytzjH/gn9h5DiYPPcC1j66kNiWxr1+T4NvPILhvz1mr48X+4enqXI6HIlQV99A7x49shxRx2RZFvF4glg8RjptYmqgWwqj6QJcOp3mtddf57XX32DB119joejety99+/Vn7JFHMnrUGJSh8fG8+aRSKaLRGKlUikQqRTKVJBZLkE4mSaZSpE17IK3KNKvf3s/e3mahsLA0rbmmnqbcexOdVrflqO0L2reK2JpT8xpNF2U0rek9aZim2Zyzb0r8a9sb/mj2rA7LtDAcTk6YfCwnHD2ewoICabPUEWgOsOJ7Pq4dZT+Rr0xY+Ut72VUKA+5v3S7H1c3+mmqwh9yuuQU8PaHsAtjymN16Z6+ujgiRRZ4ekCwHzcELL7xAPB7n0EMP5ZBD2v5qnRD7QqH4cNujAHRxD6DMMwSAbYmVVMTtDymTulyFLr+HhRBCCCFEG2tcUUeqYXtSZVdJfCtpYiUtHH7nTvcDoGDDX5ZkVrue3J/io7qju41WFwualb+6ZodtvS/asZhl03PLAXtgbZfJvTLbVz0wv9Vxvr4B+k0fAYC7647vwxlwkzeimCmLL+LtQ54msS2KstQOxwGggavQS/GEbgy9c7zcKJsFumb3SLeUwjStPT/hIGRZFqHGRsqrtlFTW0ekqV99KpUi1+9j/fr1zJ49m3A4gjfHx8Chw/DnBejTpx+6w0nacLBg2TIsZZJOWSggnUqRtiyUZdkJcWUvZ5LlLZP3mUg0O1nf6sepqQ3Ot3dozXcONB/TfKaWCX7N7qvTVKDfPOU2FrV/V+mahmboGIajqVJ/+zmT8RjJZBrD6WT44CH88MQpFPhk9lzHoYEVg/Ay8PYFw5vtgDpAIj/Y1Duu2yXQ/ed2wrMlTbMH2a6/037kDIaR/wexDWA22s/PP7r94xbiu+g+HbpdTE1tkGeeeQaAHj16UFRUlOXAhNi96sQaNse+BmByydWZP4LWhD/FUiY5RgGj8n+czRCFEEIIIcRBQvcYmdY5/oE7bzsR3RTim+s+wNc/n5H3H7vLcwWXtG7jmz+6BDToe+kI1j66MLO9y+ReVL9vt+Bx5rnx9sgltLQGI8eBv18+u+Iq9JDTMzez3u3HAyifbV8MyOmVy3GfnJsp/e159mCW3PIJVtyeERgYVsSkOfbcQFe+hx+supQt/7eKeEWEmjlbcOa6iWwMktMrQO6gArw9cimb2lfa6WRRIDeX/Pw86uob+OjzuYTCYUqKitD1735VpbxqG76cHPJyv/ssPQWs37yZkqIi/DntP8NMKdhaWYnH7aa4xWwAhT1strq2lnUbN1HX0EA8HicSjRGJxIjHYkRiEUp79aUMhdPpwuFw4HK5SKRSWMkkylJ2lbqmUJbdlqe5TU/Lq1earmOZJqZpYbgcmZ8zO1Wv2X3uW6b1NQ2l7CI2vflAu0fO9gR+UwsdVPOQWivzmlpT4XwykSSVTKFpoDsMlKlwutzoDh1LgZlMgqbwur0k4gmUZtfx9+vTi8kTJ3DU2CPxS0/8jsUMg5WCBcfCmPfBPyLbEXWERP4nkDsa+t4Oxi6uOvX5FQTGQfgb6PFzMAKgOe1q/sYvJZEvDgAaaM7MdHWAk08++aDqgycOTCtC7wMKh+ZhfNHPMttXNX6EwqK37zByHHnZC1AIIYQQQhw0IuuDpBqTAIRXb+9Tr0xFKphg3ZPfsOSWT3AVehhyy9jdnmt9iz7zmlOn76V2gmb4vcdQ/uoazLjJ0NvHMeDqw7ZX+Goab3R/DAArZaHMHSvkp665jHV/WczwmRNafd474n+n8nnoVSLrgkz49xl4yrbnP7xd/fw4eg2f//hV6uZXcMzbP8GZvz2h58h10ednzcMTd/++RHZ4PR583hzq6htYunIVS1euynZIHU6mWN1qumOhqWoepVBKw+v1oZoq2zU0lGWRSqXt5+hNfec1eyAsTUl9u1ONQtMMNE3P5PM1XccwdCzLwjItrKbhtZph4HJ7Uek0lstJyuXEHY2jNXXGd7tcWJZFfX09TocTt9tLcyOcZCqBQsPpdJJKJolFw6AUhtOJ2+3Gm+PD59/eDseyLExlgdl0x0DTANxUKomGwuP1MnXyJE6bepK00emovAPAmQ9mpMN0g8l+FPUfY/ed2s1/tJoBRVPsRzN3d/D0spP50l5HHCDKy8szy6eeemoWIxFiz9JWItMfv7t3OE7d/jChlMWChv8DoKtnKA7NtctzCCGEEEIIsb/4++XjDLhI1tktKxLVMSreWEv1h5vZ+vIq0mF7SO2o/zmegsPLdnsurUWltKZpmWp2Z8DNtC2/+Nax2/MVhtvOPQQOKcLbbceKaV//fEbcs2OPemfAzcR3z9p1PJrG+FdO223MouPy+3I4YvRINpeX48vJIRKNZjukDkcDsCwsh4GmVCahb1omlmmhaRqGw0BZCpfLTTgcRim7h73hcKBMk7Sm4TAcWLqFqRTKtDAtCzMdR5kWmg6apqPrGoFAHpYyUIbC1NL2uFldx0qnUJaFllR4UqlM33osk4aGBjRNw+l0gVIkknF0XUfXdQyHM3Nxzuly4d5D9byu62jKvgNAUwqHoTN4wAAG9u1Dv969GT50CA7DaOPvutgnjgBoLvCWgatLtqMBOkIiP3cMlP8ZPu1lV9lrGlj2FXZ6/AL63Aa6e+fPTWyFDfdC+V9h3JKdHyNEB7J+/XoAXC4XpaWlWY5GiN1LWBE2R78BYHDupMz2FY3vkbJiABS5+iBNOIUQQgghRHvIHVKIM8+dSeS/XvJIq/2622DCW2dQMqnXzp7eSvGxPVj72EKceW4mzzt/5wc1zb9sqfmOAG93P84CaYMhbJqm8aMpJ/CjKSeglCIeT3zvj0l2//Tv/xnLsqysVnjv7PWTyST/+Mc/uO3W26gLNuByuTA0jW49enLTjBmMHj2aHK8Xr8eNoRu4XC4cDiPTPieRTGE0XXwzTdNO4iuF0dTXxkLhdDgyr+UwHOi6/Vyn00k0FqexsRFNA29ODhoaiUScmppadEOnS3ExpSUl3+v7HosnmP/1QhpCIXw5ORTm59O9rJSS4qLMnTwe9y7ymqJjc+TaOWlXqd0dpgPIfiK//92QNxbiG+3K+mZWHDY+CL6RUPqTnT+3722w7k5IbmufWIXYR59//jlgT7SXtjqioyuPLSWUrsDQXAzKnQjY1fivlt8OQKGrN8d2uSKbIQohhBBCiIOI4XXQ/4pRLLrpox325Q4pZMivxtLluJ57da7upw5k8ufn4ch14euzY6vI6o83Uz57DYNnHJlpg5OsjZGstQtaPN386E5phyF2pGkaXq9c5AFIJBK8/PLLPPXUU7z//vsAGIbB2PHjueiiizjllFPweDx22xldx2iqUNd1PZMzaU7mN3/d3hefzP6Wmve3fH5BPtB1x7t0BvTrt8/v0evxcNKkXc/jEAcwI9cuOjd8oHeMTgTZT+QDFP9ox20qDRt/t/vndb3YTuRLQlQcIDZs2ABAKBTKciRC7NmH1Y80DbQNMKipIr8ysZL1kbkAnFj6/zLtdoQQQgghhGgPg248AiPHwcJr3s9UzPc4azCH/+UHGN7vkOLQIH/0Lu6SVvDxpL+jLEXZ1L6ZRH5waU1mRqa//64H3QpxsFNKMX/+fC688EJWrlyZ2e71enn++ef58Y9//J3O1zIpv6eiSCmaFPuNZkC3y8DbJ9uRZHSMRP63qRSsuQUcBeAbvOvjdDf0+y0EDm+/2ITYB71792bBggUEAh3jlhwhdiWUqmRhwysAHF18KW7d/vCyPPQOAD6jiLFFF2QtPiGEEEIIcfDqf+Vo+lwynFQwibskp1W/+32lLMWyOz5FWYqe5w6hZErvzL7QkprMsq//jlX8Qhzskskkb7/9Nk8//TRvvfUWsVgMXdc56qijmDZtGtOnT6e4uDjbYQqx97pfmu0IWulYifx0yK7ED86Fyhdh0IPgH7nr4zUDelzefvEJsY/Gjh3L7NmzSSQS+9z3Toi2tCT0b9IqgYbGiaU3AGApk5WNHwDQ3380Hl0uSAkhhBBCiOwwvE4Mr3O/n3fzSytYce8X+AcWcNgTJ7b6zBZcvD2RLxX5QrS2fPlyLr30UubNm4fVNMg2Pz+fp556itNOOy3TNkeIA05ym91ax5H93/sdJ5GvTPhiDLi7QnQt9L8LSs/5LidABi6Kjq5v376A3SeuurqakpKSLEck2oppmiilqK+vJxaLZTuc7yRlxfmq/h8A9Mg5lIDTvuU4bjayOjwHgCG5k9A1+UNMCCGEEEJ0LlVvb0CZFiXH98LwOXfY18zXL/sJHSGyLZVKMWfOHJ5++mlefvllIpEIAKNHj+bCCy/koosuoqCgIMtRCrGP5o2yu8dMrM52JB0okV/5EqSD9qPsArv//V5T8OUEGPNBhxk+IMTO9Oy5ffDSBx98wNlnn53FaERbsiwLpRQ1NTWZP2YOFDEzyJboNwAMDZyU2T6//kUiabsK6ZDAlKzEJoQQQgghRFtRpkXFG2sB6HbqgFYte9KRFCq9fcimq0BmRYmD26ZNm7jiiit49913SSaTAAQCAR566CHOO+883G63dCEQnYTa8yHtpOMk8qtftr+Wng2DHvruz0+U7994hGgDzRX5AM8++6wk8juhFStW8M477zBjxgwA3G43DkfH+VW7N6riqwilq3Bobgb6jwEgZcV4YdMvAdDQ6eo5JJshCiGEEEIIsd/NPfsNkrVxAPJHtb57Ol4ZwYynASg4sqzdYxOiI0in03z55Zc888wzPPfcczQ2NgIwZMgQzj//fC699FK6du2a5SiF2M+6nA5Y2Y4C6EiJ/C6nQO5o6H3T93t+B+hTJMSelJWVcc455/DSSy9RXl5OfX293GbWSaxevZozzjiDjRs30tjYiFL2FdsxY8bQvXv3LEf33XxS8wSWSuNzFDHQPxGATdGvM/tPKrsZTdOzFZ4QQgghhBBtonz26syyp9TXal+8MoIZsxP53U7u365xCdER1NbWcvXVV/Paa68RDocByM3N5c477+TSSy8lEAhIBb7onNI1kG7MdhRAR0rkd70o2xEI0S7OP/98Zs+ezdq1a1mxYgVHHXVUtkMS35NSig8++IAHH3yQf/3rX632HXHEEYwbN4777ruPnJycLEX43YXTNSxosO+QOrLwPDxGLqBY0fg+AH5HF07tdncWIxRCCCGEEGL/s5ImmstANVXdf3sEX7w8jNVckX+EVOSLg4NpmixZsoQXXniBJ554gmAwCNjdBs4880yuuOKKVp0HhOiUrDRYqWxHAXSkRL4QB4lRo0bRs2dP1qxZw/PPPy+J/APUkiVLuOaaa5g3b16rJsGZDQAAIABJREFUHvjDhg3jySefZPjw4eTm5h5wFQmLg/8iZcUAjeNLrwUgrVKsDX8KwNDAFHSpxhdCCCGEEJ1MdFMIK2Fm1lXaQnPorfenLIwcJ74+edkIUYh2FQ6HOfLII6moqCAYDKKUwufzcf3113PVVVdRXFyMrstnQ3EQ8A0BrWPMRek8P3FmNNsRCLFXunfvTpcuXQB45JFHWLt2bZYjEnsrmUzy3nvvcdFFFzF27Fjef/99otEovXv35owzzuCzzz5jyZIljB8//oC8rdBUKZYG3wKgn28cRa5eAETTdSwN/RuAMs+QrMUnhBBCCCFEWzFynLT8871xVV2r/RufWQaAlUijrI4z+FCI/UkpxerVq5k5cyYlJSUsX76choYGunbtyuWXX84XX3zBXXfdRUlJiSTxxUFEgw5S0Nh5KvLTdXs+RogOQNM0HnzwQcaPHw/AVVddxcsvv4zX681yZGJXlFI8/PDDPProo1RWVmb6Abrdbu69917OPvtsSkpKDrihtt8WSdezObYQgJF5J2e2r2z8EABdM+jhPTQrsQkhhBBCCNGWvF39rda3vryawNDizHq8yr4Lt+CwUjxlrfvnC9EZpNNp7rjjDp5++mmqqqqwLHu459SpU3n00Ufp2bMnhmFkOUohDm4HdtapJXePbEcgxF476qijeOCBB/jVr37Fxx9/zJtvvsmZZ56Z7bDEt9TW1vLRRx/xxBNP8Pbbb2e2Dx8+nNNPP53rrruO/PzOM2h7W2IV2xJrcOs++vm3t3z6tOZpAAKOrgzPm5qt8IQQQgghhGg737qZtnFFXaa9ztaXV5GosrsA+AcX4srvGC0WhNgftm7dyiuvvMK9997L1q1bAejSpQuTJ0/mxhtvZMyYMQfc3eZCdFYd474AIQ5CF198McOHDycajXL99dcTCoWyHZJokkgk+MMf/sBRRx3F+eefn0ni67rOHXfcwbvvvssdd9zRqZL4AJ/VPo2l0niNAnrljALs4berwh8AcHTRxRiaM5shCiGEEEII0Wb6/9fozPLWl1eTakwCsOiGjzLbvV39OyT9hTgQWZbF73//eyZMmMC1117L1q1bcTgcXHDBBbz//vs8++yzHHbYYZLEF6ID6TwV+UIcYIqKirjvvvs46aST2Lx5M+PGjWPu3LkEAoFsh3ZQau4FOGvWLGbNmpWpRMjJyWHcuHH89Kc/Zfr06TidnTORHTUbmF/3NwBG5Z+G17AvUnxR9wKmsqezH1X8s6zFJ4QQQgghRFs79KFJbH5hBYnqKGYszZLb5jDwmjGkGhIAOPPcDJ5xRJajFGLf1NbW8tZbbzFz5kxWrFgBQF5eHuPGjeOWW25h4sSJkrwXoiWVBiuZ7SgASeQLkVVTpkzhvPPO44UXXmDNmjXcf//9/Pa3v812WAedqqoq7rrrLl577TW2bNmS2X7iiSdy4403cvjhh3e66vtvWxx8g6QVATQml/xX01ZFZXx55pgu7n5ZiU0IIYQQQoj2oGkafX8+khUz5wKw7tGFbHt7A8mmRH73MwfhKpTZZuLAZJomzz77LPfffz/r1q0jkbD/u546dSq33XYbhx12GG63O8tRCtEBJbaCGc92FEBnSuRbHeMbKsR3oWkaDzzwAOXl5Xz44YfMnDmT4uJifvnLX+JyubIdXqeWTqdZvnw5L774In/84x9bDbAdO3YsN998M1OnHhz94NMqwbza5wHo5hlKqWcQACkrzrbEWgCOLr40a/EJIYQQQgjRXobefhTls1cTWlYLQHhNQ2Zfn4uHZyssIb63hoYGXnnlFWbOnMmaNWsA8Pl8jBkzhltuuYWTTz45yxEK0cF5eoPeMS7idp5Efqom2xEI8b1069aNl156ibPOOouPP/6YW2+9lcLCQi688MJsh9ZpLVq0iLvvvps5c+ZQVVWFUgqPx8Nll13GT37yE8aMGYPf7892mO0mlKrKVN4fEpiS2Z60omyNLUZDp69vbLbCE0IIIYQQot3oLoMJ/zqD9496nnhFJLO95Phe5I8qyWJkQnw36XSaV199lXvuuYeFCxdiWRYA48aN4/bbb+eYY445qD73CtEZdJ5EvrtHtiMQ4nsrLS3l+eef55RTTuHrr7/moosuIhwOc+mll8qtbftJNBpl8eLFPPLIIzz//PNYloWu63Tv3p3Jkyfz61//mgEDBmQ7zKwIpioJpipxaC4G507KbF/V+AmhVCVO3UtP76gsRiiEEEIIIUT7yekdYMrCC/niwrdIh5Johsb42afh8HXOeVniwFdXV8eqVatIpVKMGTOGL774gnvvvZd3330XpRQAffv25eqrr+baa6/NcrRCiO+r8yTyhTjA9ejRg1mzZjFy5EgArr/+erZs2cLMmTNl0Mw+UErx1FNP8cwzz7B06VLq6+sB++LJNddcw+mnn87AgQPRdT3LkWbPu1W/J60SFLp60dd3ZGb7C5uvAMChuejmHZat8IQQQgghhGh37hIfx/z7TKyUhe48eD8riI5NKcXLL7/MPffcw5IlS0gmkxx33HF8+eWXmfaxw4YN46abbuKYY46hb9++WY5YCLEvJJEvRAcyYsQIFi5cyKmnnsrGjRu59957WbZsGY888gjdu3fPdngHDKUUtbW1zJs3j7vvvpt58+YB4HA46Nu3L2effTY33XQTBQUFWY40+1JWnC/r/waAS/cRcJYBEEnXEkpVAlDs7odLz8lajEIIIYQQQmSLJPFFR1RfX8+CBQu4++67+eijj9A0LVN5/+GHH+J0OjnkkEO46qqruOKKK6Q4UIhOQhL5QnQwhx56KB9++CG33norL774Iq+99hpbt27lL3/5S6ZaX+xaTU0N06dPZ+PGjSxdupRkMpnZ9/DDD3PKKafQs2fPLEbYsSwLvZ1Znlr2q8zykuC/AdBx8It+/9fucQkhhBBCCCGEaC2RSPDYY4/xt7/9jYULF5JMJndI0hcXF3P//fczdepUysrKshSpEKItdJ5EvjKzHYEQ+02fPn3461//SllZGY8++ihffvklo0aN4tZbb2XGjBkykOZb0uk0q1at4ne/+x3PPvss6XQagJycHAYMGMANN9zA+eefj8vl+s7nTllxtiVW49b9eI08HLoLQ3NiaE40DuzqHFOlmVf3LABdPYcwrugCACxlsjT0HwB6+w6n2C23X4r956yzzsp2CEIIIYQQQhwwqqqqqK6u5rnnnuMPf/gD8Xh8h2OcTifdu3fnsMMO48UXX8TplHkOQuw3yW2g0tmOAuhMifxUdbYjEGK/crvd3HvvvRx66KFcfPHFWJbFAw88wOeff86dd97JhAkTsh1ihzB79myeeeYZ3nzzTVKpVGb7pEmTuOGGG5gwYQKBQOB7ndtSJv+u/G/eqLiTgLOMAmdP3IYPl56DW/fRxT2AYncfCp29MTQHpZ4heI0Abt2HpnX8JH9VfAXLQ+8CcETheZntjeltLGtK5A8NTMlKbKLzaZ5DYRhGliMRQgghhBCiY0skErz33nv87W9/46uvvmLlypWZgrVvO/zww7n66qs54YQT6Nq1aztHKsRBwMgFrWN8ju08iXwhOiGXy8WFF16Iz+fjhhtuoLy8nPfee485c+Zw6623cuWVV1JYWJjtMLNCKcUvfvELnnzyycw2v99PaWkps2fPZsSIEfv8GgkrzNcNdluZUKoy0zN+zzTA7k/Y1TMUr5HPushn9Mk5khF5P6LY3Yc8ZzcKXT1w6jk4NCeG1lzp78KhOdvlQsCm6AKiZgOG5qBnzqjM9vrkFhrT29DQKXRJGyIhhBBCCCGEaCvxeJxoNEooFGLx4sVcfvnlVFRU7PF5w4YN47bbbuPss8+WHvhCtCXDC7o321EAnSmR75K+X6LzOuOMM/jBD37ACy+8wO23305lZSW33347s2fPZuTIkTz++ON4PJ5sh9muNm7c2CqJf8EFF3DJJZcwceLE/Vbxm7Li1CTW49Z9nNXzD0TT9YTT1SwLvU1KJQBFfXILCSv8rWeqzFJFfFlmeUP0CzZEv2h1pM8oxGvk4TECeI0AHiMPrxHA0FzkO7vTxd2fPGcZec4yAs6u5DpK0PdTkv+FTVcC0MU9kEH+YzPbP6x+BIAcRz4j8n60X15LCCGEEEIIIYTNsiz+8Y9/MG/ePFatWsWWLVvYsGEDwWBwj88dPHgw1113HWeddRYFBQXtEK0QoqPoPIl8ITo5n8/H9OnTOf/88/nZz37Ga6+9xtdff83XX3/NV199xeOPP86oUaPw+XzZDrVdxGKxzPIDDzzADTfcsN9fI5SqImGFyXWUMKH40sz20/nvzLLCoiFZzuLgm+Q4Coilg0TNepYE/0V1cj0DfccQNevZGl8ECizSmCpN3GxE1wySKkosFcJK7n2/NUNzMNA/EVOZRM0Gji66hBxHHjEzSHfvCHyOInL0fAzdga45sVQar5HXVPVvABorGt/PXIAYFjgJj5ELQDRdz7y65wEYW3gBeU65NVMIIYQQQgghvi+lFHV1dcRiMRYvXswFF1xAXV3dHp8XCATw+/306NGDn//850QiERKJBDfeeGM7RC2E6IgkkS/EASYnJ4dnnnmGd955h+uvv541a9awZMkSJk6cyNFHH825557LueeeS35+frZDbVMtq+4nT57cJq/xwqYrADipbMYuj9HQKXD1YGKXy1ttP6nsph2OVSgSZpioWc/m6Ne49VxSKkbMbCCSrqcxvY1Qqoq14c+oTKwg39mNSLqWhBVpdR5TpVnR+H5m/e9brtlpbE7di9fII2GG6eM7klxHCV4jgENzsSj4Rua4k7v9JrP8dcMrWCqNoTmZVHL1br47QgghhBBCCHHwUUpRXV1NMpnEMAwsy8o8otEoyWQSv9/P2rVref3113E4HLz66qusX79+j+fu0aMH06ZN49BDD+WII45g5MiRuFyudnhXQogDgSTyhTgAeTweTj75ZKZNm8bs2bO55ZZbWL9+PZ988gmffPIJ9957Lw899BDHH388gUAgM2RSfDdrI58BMKnLVfvlfBoaHiMXj5FLoavXXj8vkq6jOrGWbfE1/HPr9eQ5u+HSfFQmlqOwUEqhsDBVCg0dC5OUFcdSaUKpKkCxskXiv6XDC87Ga9jDgE2VYnFTgr+vbywl7v77/J6FEEIIIYQQIhtaJtibH6lUilQqha7rWJYFgKZpKKVaPTcUCrFhwwb++c9/AhCNRtm0aRObNm1i48aNuxw8uzeaP587HA78fj+GYfD73/+e0047Db/f/73PK4To/DpPIt9KZjsCIdqdruucccYZTJ48mf/85z/MmjWLd955h82bN3PmmWdSVlbGaaedxo9+9CMmT56M19sxhnMcaBx6disgfI5CfI5C+viO4MiiczPblbJIWlHSKkVaxalPbsal+4iYdWyJfkOes4xQuoqEGSaUrqIitox1kbkUOHtSHl8CwKH5p2TOF07XsiW2CA2NkXknt/v7FEIIIYQQQhycLMsiFAqRTCaJRqOtHitWrGDDhg2MHj2a+pXVLOJLTCxW/G+YWhXE5XJRUFBAIpEgmUxmHvF4nEgkQjgcJhwOE4lE2LhxIxUVFfj9fsJhu9WoYRiYptnm77FPnz5ccskldO3aFaUUxcXFnHTSSeTk5LT5awsh9kFiK1ipbEcBdKZEfmpbtiMQImsKCgo455xzOOecc5g7dy4XXngha9asobKykscff5zHH3+coqIiZsyYwSWXXEJeXh4OR+f58W8LSlnZDmGPNE3HbfhxN6237Gc/0H/MLp+3NvwZv181CVOlyTG2D0eqiC2lOrEGj5HLAP/RbRS1EEIIIYQQoqNrrlBv+bXlsmVZpNPpTMvT5v1KKUzTpKGhgdra2l0+6urqqKmpoa6ujtraWurr6797kA99//cXjUYzCXxd1zPvyel0YpommqbhdDrRNA1d1ykoKKB379707t2bPn36UF9fT69evRg4cCC6rqPrOoZhUFtbSywWo1+/fmzcuJEePXowcuRISkpKcDqd3z9gIUT2uLuD7sl2FEBnSuQbedmOQIgOYdy4ccyfP59Zs2axceNG3n77bZYsWUJtbS033XQT9913HxMmTGDw4MGcccYZjBo1CrfbvecTH2TiTYNgO6MeOYdyevf/RtN0BuUem9n+fvWfAMhzdKW7d2S2whNCCCGEEEJ8T6ZpEo/HicfjxGKxzPLGjRvZtGkTAwYMIJFIkEgkiMfjmeWW6/F4PFPV3lzl/u2vdXV1LFq0iP79+2OaJrFYjGg0mnnNb7eq2R8cDgc5bi9WxMSBgRZwUB+qx+fz0bdvX1wuFy6XC6fTydatW9F1nSOPPJK8vDwCgQCBQCCTqC8uLsbr9VJRUcGIESOoqKigsrKSMWPGsG7dOvLy8hg1ahR+v58uXbrg8XSMJJ4QIlu0bAcAdKZEviM32xEI0WHk5eVx9dXbB5XOnTuXGTNm8Omnn1JXV8drr70GwAMPPEBhYSHnn38+l19+OUOGDEHXdTStY/yCyqaaxJ4HER2o3LqP40uvbbWtLrmZbxpeAeCIwvPwGPI7VQghhBBCiO/r24nsvV1PJpMEg0EaGhoyX3e1HAwGqa+vb7UvFou1SRJ9V1asWNHq86Omaa0eLWmahsPhoLi4mOLiYoqKiigqKsosz58/n5NPPpm+fftSUFBAYWEhBQUF5OfnZ6rZ676o4P2xzwNwwicXkT+yS7u9VyHEQSpVC6rt22/tjc6TyBdC7NK4ceP46KOPWLFiBa+++iovvfQSCxcuBKCuro4//vGP/OlPf6Jfv34ceeSRDBo0iEGDBjFx4kS6det2UA7LbUhtAcCpeVgTnoPHCICCEs9AXHrnmzXwWvmvM8sTii/LYiRCCCGEEEJkT8uK9p09ysvLWb58OYMGDWp1bCKRIBaLZSrav+8jlWr7PsxOpxO3243b7cblcmWWd/fY2XEOhwOn00lBQQE5OTl79ZC7wYUQBxzNAVrHaI0liXwhDiJDhgxhyJAh3HDDDZimySeffMJjjz3Gq6++SjqdZu3ataxduxawqyUMw6Bbt26cdNJJTJs2jRNPPPGgGZi7OWpf6EipOA+uOi6zXWP7RY0+viMIp2qpSa5jQtFlHJI3ha6eQ+jiGoChHzi/Xi1lEksHAejqGUaBq3uWIxJCCCGE6LyshEnt3ApcxTLgsi1YlkljJEwwHCTYGCIUDtHQGCQUDhEMBwk1hmgIBwk1NmaOCYaDmX2xRBxoXTH/7WXLsjJ91Xd2TFsL+HLJy80j159Lnj+PPH+AgD9AwJ/bYjlAfm4eub4AebkB/Dl+vG43RQVFOA1niy4Rmr24i3UNbTfH7rDSWqzpUQsWccLE2dcGpvXzy/fxDEII8R058qCDFHQeOJkmIcR+YxgGhmFw/PHHc/zxxxMKhZg3bx6ff/45X3zxBW+++SZKKdLpNJs2beLPf/4zf/7znzPJ/bKyMi644AJGjBjBsGHDGDRoUKdL8IfTNZllq9UtVNuX14Y/yyx/VPMYH9U8llkvcPUk39kdUJR6BpHn7IpXz0PXDHTNQRd3fzx6Lh4jgMdo+qrn4jb8zX8et5twuoZtidUAHFl4bru+thBCCCHEQUcpVsycy4qZc7MdSZuxsEiR3uGRJE2K1E73bX+kMsclmo5OkiZJqsXDXk99az1JijRp2iOlrlsafnJw4sSJAycOHE1fmx+unWxzYODC2eLhwNn01dV0NtcO644WXx1oEQ0iexNlEEWQBqChacvqtvuWtB9NkdurDtW4FmLZmm1mQaoenEVZev0m6XrQfaC7shtHqg4c+aBl825+C9JBcBRkMYaORDV9P/KzHQgkK8FVSlb7zCsTgp/bPzPfRdn5EFlufy/73to2sX0HksgXQhAIBJgyZQpTpkwhlUoRj8fZtm0b7733Hm+99RbvvPMOkUgkk9zfsmUL9913H4Zh4HQ6cTgcTJw4kVNPPZVp06bRvfuBX9E9scsv/n979x4cZZ3ne/zd93vnSq5IDAFJAEVAw4zoQixWanZwZhZxpiynRs/o4lzUmlrPbO3ZsWpu7DlbtTW7s67jzqktZh1vq6vD7qzCiHIEI+IgNxURQkAuIQkJJOl0J32/nD9iP+YKQUnSxs+r6lfPr3/P83T/OgTo59vf5/vj/3X+knWVv2BJwW20Rt/jvcBL5NsreLHtJ/htZZQ5ajkXP05PvGXE+T3xFmP8RP/uEfvNJismzJgwYTJ9tGVgfQKbycV8/2oqXPMpd86n3DWfYvtszBP0oagn3kJ79AOsJjuVrqsn5DVEREREPu9WrlzJjh07uIKyqZ7KRaVIEyFKhCitnAcyJEjST5QwEcIfbfuHbQfGo8RJkCFjBNSzvcHbkSMM600MEyYc2PHgwo0TD07cRn/o1o1r2H4nDuwffXbno63JeN6h25Gjk52wM115yntZ/n9ewJN6EvZN5c80DUx1GdoMubEIZy78LCB35pErcuT3I5Oe4i95PpKOM/A7wkCpHN8SCO4Z+JLBOQviHRA9Cd5rweyA4G4oXA21/zJQXicH5MYsRCRn2Gw2bDYbPp+Pmpoa1q9fTyqV4tixY+zbt49du3Zx7NgxDhw4QDQaJRgMArBlyxa2bNmCxWKhqqqKRYsWsWjRImpra5kzZw41NTXk5eVNyEK6v/zlL3n22We59957mTdvHnl5eSxatIi8vDyuvPLKT1Tjv8w5j/+79OOLiCJHFdfk3QrAmvIfjzg+kY4RSnTQ3NdIJB0knUnQFTtFINFGPB0hng4TTQc52f82TosfMxaiqRApkgy/VokSYnf3k0PGzCYrdpObaDpIlXspZc46PNZC7GY3bkshVpMds8lChhQ2sxuPpYhAooVK1zUU2mfhthTgthaMevHwx+4nyZDBYfFRaL/ikn9WIuORTg98YDpz5swUz0RERGRqPPvss/zXC//JLTUrKKoqueCxiUSCeDxOPBYjGosRj8eJxWJDWjz20Vh8+HiMaHzgvGg8OtBi0YGxQf1ILErMeDz0mFgiPqE/C7PZPK667IOb0+n8+LHdgdPhxGV34LS7cDqcA48dTpz2geYaPmbsc3wu1wCbTlL9UZzF12HKL2TKgpTpBEQ+BM+8qXn9rMiJgbsCrP6pnUe4GZxXgnkK64inkxA9Be6aqZtDLsmkB4LSrtlTPREIvQvehVMbDE8nBrLxS26bujlcBqbMZBZymzAZ2L0Ert899bcTiUxzmUyGeDxOOBwmk8mwf/9+Nm/ezEsvvcTx48dH1Ia0Wq04HA5cLhdXX301a9as4dZbb2Xu3Lmfah5Hjx5l3ryBD01ms9kIEsJA6SCXy2XcMWAymfjKV75CfX09fr+fiooKli9fjsVi+VRzGI9U5qNspEyaDCli6TBmBl43nUkRTvUQSLTSE2+lJ97Cf7X9DSWOuSQzcXriZ8hwKSujm4AMJsyYTRZSmQQ2swuryYYJK1aznQrnAnoT7VS5l1Ln/1OiqSD/2fo3RNNB5vtX8+DcLUPWAZiOgokO/rF5FW2R93GYvVOyJsC//uprtLcVs2jJUb56W+OEvlYiHaMn0UI6k+IbVzzCzSUPXNbnv/fRl9m47X1qyvI59uuxF0pesWIFjY2NWK3WSVnETUREZCplMhmi0SiBQIDe3t5Rt2ONdXZ2kslkjJZOp0ftX2zfRDKZTHi9XvLy8j5Rc7vdWCwWTCYTJpMJs9l8Sf2JSA4SERHJdcrIF5FLYjKZjEwYgFWrVrFq1Sr+4R/+gba2Ng4cOMC+ffs4fPgwH374ISdOnKCrq4v+/n62b9/O9u3beeihhygvL2fJkiUsWbKE+fPnU11dzezZs5kxY8Ylz2n9+vVs3LgRGMheSqVS9PUNrZW4ceNG45gsv9/PF7/4RVatWkV1dTWVlZVUVFRQVlaG3X55vhS0ZFc2/+haw272DNnvs82g1HmV8fhL5f/L6CfSUXoT7fQm2gjE22iNvk8o2UEqkyCW6qM/2U1b9BA+6wxMJgvhZDfd8dO4LH5SmSSpTIJEOkKCyMATpiCYOAtAe/QD/jgo69+EmVvLfzLtg/gA6UySdCYJQCzdx9lo06TPIZEeWEQtkuqdtNc3YSKVmboAevaC+2tf+9qUzUFERD6fstntwzPaB7doNMrx48cxmUzk5eUZ45FIhHA4PGrr7+8fc184HCaZTE7YezKZTNjtdhwOB3a7fUh/8NiFxt1uNy6XC5fLZfRH2/b29lJaWkpxcTFut9vYp2C6iIjI5FIgX0QuC5PJRGVlJZWVlaxZs4ZkMmlcxDQ3N7N161a2bNnCO++8QyaTob29nc2bN7N582asVqtxQWC321m4cCE///nPWbRoEVbrxf+Z+va3v83DDz8MDJTvSKfTNDc389RTT9Ha2sq2bdtGPS8YDLJ161a2bt1qXNw4HA48Hg+LFi3C7/ezbNky1q5dS1lZ2aTfgmszOyl2VFPsqAZgKbcDA3VD0x8F6mPpPiwmuxGkTaQjmE02IEMqkySaCtEePcz2zkcwmUxEUyFOh/ePeK0MGaq99ZP59qZMnr2Cb1zxCP924ltUe5bhsHgnfQ5brYWcB2Y4ZlNfeOeEv1575AP8tjK+UPjNCX+tsWQv9m22KbzdVkREPrMikQjBYNDIXs+2iz3u7e0lHo8bnxEv1MLhMDBwR+ng7PaJYDKZ8Hg8Y2as7969mxtvvJGrrroKv98/omUz2s1ms9GyWesXGhv8WERERD5bFMgXkQlhtVqNC42ysjJuuukmNmzYQFdXF/v27WPv3r0cPHiQkydPcvLkSTo6Oox6+y0tLfzhD3+gqKiIJUuWcN1117Fo0SKqqqqoqqqipGRoTVGLxTJigd2qqipWrVplPM5kMgSDQaO+/8GDB+nq6uL48eP09fVx7tw5Ojs7CYVCnD9/nlOnTgHw1FNP8cADD+D1epk5cyazZs3iiiuuYNasWVRWVpKfn09AJstiAAAXzElEQVRlZSXFxcUUFxdP2DoAg5kwYTHZsJhs2M3uix5f4ZrP0oKhdeCS6TjRdJDXOv6ZfYHn+ZPi+z4X2fgw8POb7/9T/n5R+5TN4V/sT3KKDq7y/gn3VH9pyuYhIiJyqdLptJHdHo/Hh/RHGxvcj0aj9Pf3Gy2b1T74cV9f34jx/v7+Cc1uz2aow8fJKaNluo/Wd7lceDwe3G43Ho9n3P1sGUgRERGR8VIgX0QmVVFREbfccgu33HILyWSS/v5++vr6aG1t5dVXXzUy6wG6urp49dVXefXVV7FYLHi9XiOgfu21117S62Zvk166dClLly4FPg7uJxIJjhw5wk033TTm+X19fRw5coQjR44MGbfZbLjdbpxOJ06nk8LCQhYuXMg111xjtNLS0py79dhqtuM1F/PliodpKL0ft6VgqqckIiIikyQWixEKhejq6uLw4cMUFBQQDAaNFggECAaDRkb74H44HCadTpNKpS55O5F12wfXa/f7/UP6+fn5I8ayfZ/Ph9VqxWw2G2u4eL1eI9t9rG22LyIiIjJZpk8gPxWe6hmIyCWyWq3GRVRlZSX19fX86Ec/IhQKsX//fnbv3s3evXtpaWmhpaWFjo4Oent7aW1tZffu3cbzfOc736GhoYHFixdz5ZVXMnPmTMrLyy96cZUN7gOUlpaOa84Wi4VUKsWcOXM4fvw4Xq/XuLgFOHXqFAcOHBhyTmFhITU1NcyZM4c5c+ZQU1NDYWEhkUiE+fPnU1FRQX5+/pTc4mwx2fBZL31dAhEREflkMpkMiUTCaPF4fMzHY+3L1m0fnNU+2nassYlcdNxqtWKz2YbUYh/+eLSxbHKEx+PB6/UO2Y42Nnifx+NRqRgRERGZ9qZPID/ZPdUzEJHLxOfzsWLFClasWEE6nTYC5WfPnmXnzp1s27aNbdu2GbdY79mzhz179mCxWPD5fOTl5VFcXMwXv/hFKisr+Yu/+AuKioou+Jpz585lx44d3HfffTQ1jb34aCqVAqCnp4drrrmGjRs3YrPZOH78OAcPHuT999/n4MGDHDt2zJhfd3c33d3d7Nmzx3geq9VKMpmkpKQEv9+Pz+ejrq6OhQsXsnDhQhYsWMCsWbPGtUaAiIiITJ54PE5fXx/BYJC+vj5CodCIdqHx/v5+UqnUiJbNWr/YeLZ2+0RyOBxGicRs1nq2P1q99sHN4XBgsVhGNKvVOur44JZrdzCKiIiI5JLpEyGagsUKRWTimc1m8vPzyc/Pp6qqimXLlvHQQw8Rj8f56le/isViwePxcOrUKdrb22lvbycQCHDq1Cn27dsHwI9//GOuvvpqbrjhBpYtW0Z1dTXl5eWUlZXhcrmM11qxYgVHjhwhFArxzDPP8Lvf/Y49e/YQCARGzKurq4uuri6uu+461q5dy1133cX69espKysDIBqNcuLECY4ePUpzczNHjx6lpaWFnp4eAoEAnZ2d9PT00NnZSWdnJ8CITH6Px0NlZSWtra088MAD1NXVUVlZSUFBAQUFBRQWFuL3+3XRKyIinyuZTIZkMnnBrPaxWjweJxwOEwqFiEajF6zJPlabyGz2LIvFgs1mM7LWs1nug9uFxhwOx5Bs9cG12Qc3k8nE2bNnqa+vJy8vzyhjqIXJRURERHLP9AnkW/OnegYiMonsdjsvvviicRt1MBikp6eH8+fPs3v3bl577TVefvllIpEI8Xicffv2sW/fPh599FF8Ph8FBQUUFxezaNEiVq5cSUNDAzNnzgQG7gi47777uOuuuzh27BgbNmzgueeeG3MumzZtYtOmTcydO5e6ujp+9atfMXPmTOrq6qirqzOOSyQSRhCgt7eXvr4+2tra+OCDDzh06BAffPABTU1NRCIRAPr7+zl69CgAf/d3fwcMZMhlL7K9Xi8FBQVGBr/NZmPt2rXMmKFSOSIiktsSiQShUIhgMDhq5vrgbPfhx/T19ZFMJkmlUhfcjrVvorPZTSbTkP+rfT7fkO3FxrxeL3a7fcxs9vH0VWZGREREZPoxZSb6k+ykyMDuJXD9bjDbp3oyIpIjotEo27Zt4+TJk7z11lscP37cyIDv7+8fcXx1dTU33ngjN9xwA9XV1dTU1FBaWorP5yMWi7F161aeeOIJNm3adNEgQG1tLX/7t39LVVUV11577bgXQ+vv7+e5555jw4YNnDhx4hO979LSUubNm0dtbS21tbXMnTuX4uJiYz2CvLw83G63Mvmn0HV/+ST7Puzgf9y8gN88+KWpns6ncu+jL7Nx2/vUlOVz7Nf3jnlcQ0MDO3bs4I477uCZZ56ZxBmKyFiywe1EImEEvkfrDx7LrgljMpmMbPbhLRQKGYvZZwPvw1ssFpuw92UymYzM9NG2iUSCVCpFSUkJVqt1yD6r1Wpks49Wn3089dudTqcC6SIiIiJy2U2fjHwRkWGcTidr1qwB4P777ycUCnH+/HnOnTvHBx98QGNjI42NjRw/fhyAEydOcOLECZ588kkAZs2aRXFxMXV1dTQ0NNDQ0MDTTz/N22+/TWtrK48//jjbtm0z6uYPduTIEW677Tby8/NZsGAB69ev584777xgQP/YsWPceeedvPvuu58qwNHR0UFHRweNjY3AQHkit9tt1Lf1+Xy4XC4KCgpYs2YN8+fPp66ujsLCwk/8miIiMvmi0eioQfLBwfThgfTBQfZYLDYig32slj0mFAoBA8HyicwHstlsQ7LWh/cHZ6/7/f4hGe0ej2dIYH54SyQSpNNpioqKjEz2wU1BeBERERHJRQrki8jnRvbCv7q6mvr6eu6++24A2traeP3112lsbOS9996jqamJ7u5uTp8+zenTp9m/fz9PP/00AFVVVaxYsYKGhgY2bNjAD37wA1544QV27dpFU1MT6XR6yGsGAgHefPNN3nzzTe666y6+973vcfvtt1NfX4/b7TaO27lzJ9/85jc5deoUMFAff/HixXzjG9/g3nvvxel0Gsfu2bOHH/7wh3R0dNDU1GQEUpYvX863v/1tTpw4weHDhzlz5syQUgTnzp2jvb19yPz++7//2+iXlpYaQf26ujpqa2vxer0kEglmzZrFjBkzcLlcyuQXEflIJpO5YBB8cCZ7LBYjGAwa2eLJZJJoNDpmxvp4gvLZRdUnSnaugxuA2+2mqKhozEB5NsPd5XKNCMKPFZgf3nc4HBP63kREREREPmumTyA/2TvVMxCRz6iKigruuOMO7rjjDqLRKEeOHOH8+fN0d3fzxhtv8MYbb3Do0CGSySSnTp3iiSee4IknnsDj8VBaWkpZWRnFxcWcPXuWpUuX8tZbb41augfgscce47HHHuOGG25gyZIl/NM//RN79+7ltttuMxa9vfvuu1m/fj1f+MIXRg2aX3/99ezYsYOzZ8/yxz/+kT//8z8H4M0336SkpIRNmzYBEIvF6O3tNVpPT49RZuiZZ54hPz+frq4uIxCUzeTfvn07MBDAsdvtxONxZs+eTWlpKSUlJVx11VXU1tYyb9485s2bR1FR0WX/MxERmSyJRGJcgfTRxrMLnw4vQTPaNhqNEggEMJlM2Gw2ksnkiC9/Lzer1WqUexleDmb42Gh9l8s1ovRMV1cXXq+XGTNmXLB8jc1m0xe/IiIiIiKX0fSpkd9YAje2qka+iEyIzs5OGhsb2bZtG2+//Tbd3d10d3fT19c3orRARUUFLpeLkydPjlp250LWrl3LCy+8cEnBj1deeYV169YZ5Q5efvllVq9ePa5zw+EwTU1NHDp0iPfff59Dhw5x5swZo+xCT08P0Wj0gs9RWlpKXV0dPT09rF27lpUrV1JYWDiiXrACOh9TjXzVyJeh2eyRSASz2Uw6nSaVSo1o2dIuw1s8HjcC6oOD68NLyAzeFwqF6OnpobW1dcLfo8lkMkq3wEApHJvNRn5+/qiLlA4fG7zA+SfJbLfb7fq3V0RERERkmpg+Gfk2ZYSKyMQpKSlh3bp1rFu3jlgsRltbG21tbTQ3N/PWW2+xdetWoyxOW1vbJ34dn8/HuXPnKCkpGfc5t9xyC7///e+5+eabAXj00UdZuXLluMoSuN1uFi9ezOLFi42xaDRKT08PgUCAtrY2+vr6aGlp4ejRozQ3N9PU1ERLS8uITH6Ad999F5PJhM/no6CggIKCAvLz85kxYwZz587lqquuory83FhMWHWIRT57MpkM0WiUSCRCOBymv7+fcDg8pA0e6+/vJxKJjBjL1mdPJBKEQiEsFgupVOqiGe6D+5f6ZeknYbPZxsxmH7zYqc/nG3GMy+XCbrcb2el9fX04nU5KS0ux2WwjWjaTPdvGu1C6iIiIiIhMf9MnkG92TfUMRORzwuFwUF1dTXV1NcuXLzdq7Z89e9bI2t+9ezcnT54kGo0amaPj8dvf/pbf/va3VFRU8NRTTzFv3jwqKiouel5DQwP33HMPGzdu5KWXXuLMmTPU1NR8ovfndDopLy+nvLycurq6UY/JZvK/9957HDx4kHfeeYfTp08Ti8WIRqOEw2FaWlqMLzcuZuXKlaxYsYK1a9fi8/koLy8fsi6ATB/T4kbAHJLJZEin00My1kfrDx8bXHorEAgY2zNnzvD888+zevVqI3t9cFZ7KBQiHA5PSgAdPs5ot1gsmM1mo58Nrg8fH/7YbDYbWe2DF0c1m83s27ePpUuXsmTJEmMx8Gwb/Fi12kVEREREJBdMn0C+iMgUKysr4+tf/zpf//rXicVi7N27l0AgQCwWY//+/Tz++OPjLuXQ1tbGzTffzJw5c1iyZAk//elPqa2tveA5S5cuZePGjQBEIpFP/X4uZLRM/mAwSDAYpKenh66uLrq6ujh16hTHjh0z2unTp0cNAO7YsYMdO3bw05/+lNLSUhYvXozf7+eKK64gk8mQTCb57ne/y7x581Qm4jMqWwt8586dUzyT3JVOp43FqYPBIE1NTZw/f56ioqIhddoH12vPZrbHYjHi8bixHauf3V5skdTnn3/+U78fh8OB2+02msvlGrLNNofDQWdnJ7Nnz6a4uHjIMQ6Hw8hoH6tdbL+y2kVEREREZDpQIF9EZAI4HA6WL19uPF67di0bNmwgEAjw13/912zevJn29vaLZrVmA+D/8R//AcCGDRu4+eabqaioMMo5ZOvPezweozTFrl27WLhw4YS+x+Gy2aszZ84c85hIJMKWLVt44403aGxsJJlMGnctdHd3EwgE6Ojo4OWXXx5x7iOPPILb7WbZsmVcf/31VFdX09DQgNlsxm6343Q6sdvtFBQUTOTblE/I7XYDAwuL5qrB9dmzGey9vb3AwJ0q6XSaTCZjBMezWd/pdNpo8XjcKB+TLT0TDodpa2tj//79VFdXEwwGjXU2BrdAIHDZ39Pw7HSLxTJqJvvwvslkorKyckTt9QvVah+8L/vvkYiIiIiIiFweCuSLiEyi/Px8fv3rX9PZ2clrr73GHXfcAYDFYsHtdhsL1o7l4YcfNmrQz5w5k1mzZlFcXIzFYqGpqcn4YsButxMMBo3zwuEw8Xj8smWzZ2tku1yXXtasvr6e+vp6HnroIWMsFovxzjvvcODAAU6cOEFzczN79+6lqqqKlpYWI5s7HA6zfft2tm/fPuQ58/PzKSoqIj8/n5/97GdcffXVn+4NfiSVSpFOp7HZbEPGE4nEiLFLEU/EAejrDxvvL51OGwtiXg6JRAKr1XrZ/sxjsdioC2f29fcDkEwmaGlpGfP873//+9TV1fFnf/ZntLS0UFxc/Il+f0YTj8cJBoNGID3bent7+fDDD6msrCSZTBKPx4lEIrz55pskk0kjqN7b28u5c+eMRVej0ahRA765uZl0Os2MGTNIJpMkk0mjJI3D4cDhcBjjiURiwkoHZcvDDK7PPrxW+/Axt9uN0+k05jnedjl/b0REREREROTyMGWmRbHaDDSWwI2tYLZP9WRERMbNbDaTyWRYsGAB77zzDhaLhZ07d/Ktb32LcDhMIBAgHo9P9TTlcmv4S/CXQ7ADDr041bP5dBasAX8ZhHvg1f897tNqamrYtm2bkQWeyWSMeu+RSIRAIEAgEDDKNHV1dbF582ZOnjzJtddeS3d3N11dXZw7d45wODyBb3BANkvdbDYbmftWq9X4ciO7L9sf7XEmkzEWNM1++VRUVERhYaGxLS4uprCwkMLCQvx+P16vl5kzZ2K36/ONiIiIiIjI59n0CeQ3PQhX/SOYdJOBiHx23HPPPfzmN7/B4/Hw4osv0tDQYOxra2tj165d/Pu//zubNm0ace5f/dVfMXv2bJqamnj00UdzumSJDPPVv5/qGUyM3/9w3IdaLBZKS0tpa2vD4/EYWe2TuYhqNmieXdD02LFjrFq1ivz8fGOxU5/Ph9Vqxel0GkH4eDxOf38/fr+fGTNmYLVajX3ZuuzD+2azmVQqRVFRkVEOS0RERERERGS8pkkgf5DwUTj6P8G/ZKpnIhMiAx3PQ9GXwOqb6snIREgGB/4e+6+b6plMirPtZ3nyqacAKCws4J577hn1uHg8we9+9zvOnDljjD344IM4HANZultfeYX33n0PGFh0d8GC+fBRoDCTTvPewYMEA734/Jfn781A7e8Ifr/vU5WYGayvr49EPIHP77usJWY+jYGFROMUFn5cdz+eSBAKhigsLPjEwdiwq4yIa8blmmZOcEXP4Q6fBWDV4jgP/OssuvpGzyLv7u7m9ttv5xe/+AWRSGRIyR6TyWQE8x0OB2azeUg2PEBtbS3FxcVGi0QidHR08OUvfxmv14vL5cLlcmGz2ejt7WXOnDl4PB5jAdXL9TsrIiIiIiIiMlmmXyA/dADa/g0s7qmeiUyUeCfYiwHzVM9EJkImBekIWLxTPZNJ84c//IHjxz8EwG63ceutt1JeXj7u81955RWOHm02Ht9///cv+xxFLkmiB2p+BvbSCx729ttv8+6773LllVditVqN1tPTg9lspqamBrfbbQTmL1dNfREREREREZHPmukXyBcR+YxJpVL4/f4hdb5feeUVbrrpJpxO55jntLa2UltbSyQSAcBms7Fz507q6+snZd4iIiIiIiIiIjI5FMgXEckB7e3trF69moMHDxpj11xzDatXr8ZsNpOXl4fX6+XcuXPEYjFaW1t5+umnhzzHc889x7p164zyIyIiIiIiIiIiMj0okC8ikkN+8pOfsGHDhnEv+Gk2m1mwYAG7du3C6/38lCMSEREREREREfk8USBfRCTHHD58mGeffZbXX3+d119/fdRj8vPzufvuu7nxxhv5yle+osU7RURERERERESmMQXyRURyVDqdJp1Ok8lkaG1tBaC0tBSbzYbJZMJisUzxDEVEREREREREZDIokC8iIiIiIiIiIiIiksO0IqKIiIiIiIiIiIiISA5TIF9EREREREREREREJIcpkC8iIiIiIiIiIiIiksMUyBcRERERERERERERyWEK5IuIiIiIiIiIiIiI5DAF8kVEREREREREREREcpgC+SIiIiIiIiIiIiIiOUyBfBERERERERERERGRHKZAvoiIiIiIiIiIiIhIDlMgX0REREREREREREQkhymQLyIiIiIiIiIiIiKSwxTIFxERERERERERERHJYQrki4iIiIiIiIiIiIjkMAXyRURERERERERERERymAL5IiIiIiIiIiIiIiI5TIF8EREREREREREREZEcpkC+iIiIiIiIiIiIiEgOUyBfRERERERERERERCSHKZAvIiIiIiIiIiIiIpLDFMgXEREREREREREREclhCuSLiIiIiIiIiIiIiOQwBfJFRERERERERERERHKYAvkiIiIiIiIiIiIiIjlMgXwRERERERERERERkRymQL6IiIiIiIiIiIiISA5TIF9EREREREREREREJIcpkC8iIiIiIiIiIiIiksMUyBcRERERERERERERyWEK5IuIiIiIiIiIiIiI5DAF8kVEREREREREREREcpgC+SIiIiIiIiIiIiIiOUyBfBERERERERERERGRHKZAvoiIiIiIiIiIiIhIDlMgX0REREREREREREQkhymQLyIiIiIiIiIiIiKSwxTIFxERERERERERERHJYQrki4iIiIiIiIiIiIjkMAXyRURERERERERERERymAL5IiIiIiIiIiIiIiI57P8D7rfgt+7FjLAAAAAASUVORK5CYII=;" parent="1" vertex="1">
          <mxGeometry x="155" y="178" width="1530" height="323.69" as="geometry" />
        </mxCell>
        <mxCell id="n3eoc5fLVPkFFxaEzCm6-2" value="" style="endArrow=none;dashed=1;html=1;dashPattern=1 3;strokeWidth=4;rounded=0;" parent="1" edge="1">
          <mxGeometry width="50" height="50" relative="1" as="geometry">
            <mxPoint x="379" y="940" as="sourcePoint" />
            <mxPoint x="379" y="48" as="targetPoint" />
          </mxGeometry>
        </mxCell>
        <mxCell id="n3eoc5fLVPkFFxaEzCm6-3" value="&lt;h1 style=&quot;font-size: 17px;&quot;&gt;&lt;font style=&quot;font-size: 17px;&quot;&gt;DATUM&lt;/font&gt;&lt;/h1&gt;" style="text;html=1;align=center;verticalAlign=middle;resizable=0;points=[];autosize=1;strokeColor=none;fillColor=none;fontSize=17;" parent="1" vertex="1">
          <mxGeometry x="275" y="40" width="80" height="60" as="geometry" />
        </mxCell>
        <mxCell id="n3eoc5fLVPkFFxaEzCm6-5" value="" style="endArrow=none;dashed=1;html=1;rounded=0;strokeWidth=4;fontSize=17;startArrow=none;" parent="1" source="n3eoc5fLVPkFFxaEzCm6-132" edge="1">
          <mxGeometry width="50" height="50" relative="1" as="geometry">
            <mxPoint x="380" y="460" as="sourcePoint" />
            <mxPoint x="2000" y="450" as="targetPoint" />
          </mxGeometry>
        </mxCell>
        <mxCell id="n3eoc5fLVPkFFxaEzCm6-8" value="" style="shape=image;verticalLabelPosition=bottom;labelBackgroundColor=default;verticalAlign=top;aspect=fixed;imageAspect=0;image=https://static.thenounproject.com/png/2999185-200.png;" parent="1" vertex="1">
          <mxGeometry x="787" y="502" width="30" height="30" as="geometry" />
        </mxCell>
        <mxCell id="n3eoc5fLVPkFFxaEzCm6-10" value="" style="endArrow=none;html=1;rounded=0;strokeWidth=4;fontSize=17;entryX=0;entryY=0.5;entryDx=0;entryDy=0;fillColor=#e1d5e7;strokeColor=#9673a6;" parent="1" target="n3eoc5fLVPkFFxaEzCm6-12" edge="1">
          <mxGeometry width="50" height="50" relative="1" as="geometry">
            <mxPoint x="377" y="560" as="sourcePoint" />
            <mxPoint x="787" y="555" as="targetPoint" />
          </mxGeometry>
        </mxCell>
        <mxCell id="n3eoc5fLVPkFFxaEzCm6-11" value="CG&lt;span style=&quot;font-size: 14.1667px;&quot;&gt;&lt;sub&gt;pwr&amp;nbsp;&lt;/sub&gt;&amp;nbsp;= 492&quot;&lt;/span&gt;" style="edgeLabel;html=1;align=center;verticalAlign=middle;resizable=0;points=[];fontSize=17;" parent="n3eoc5fLVPkFFxaEzCm6-10" vertex="1" connectable="0">
          <mxGeometry x="-0.0998" y="2" relative="1" as="geometry">
            <mxPoint x="-5" y="-13" as="offset" />
          </mxGeometry>
        </mxCell>
        <mxCell id="n3eoc5fLVPkFFxaEzCm6-12" value="" style="shape=image;verticalLabelPosition=bottom;labelBackgroundColor=default;verticalAlign=top;aspect=fixed;imageAspect=0;image=https://static.thenounproject.com/png/2999185-200.png;" parent="1" vertex="1">
          <mxGeometry x="1220" y="545" width="30" height="30" as="geometry" />
        </mxCell>
        <mxCell id="n3eoc5fLVPkFFxaEzCm6-13" value="emp HS LE = 33 f&lt;br&gt;HS Root c = 9.5 ft&lt;br&gt;hs tip c = 8.6 ft&lt;br&gt;emp VS LS = 35.6 ft&lt;br&gt;vs rt c = 8.5 ft&lt;br&gt;" style="text;html=1;align=center;verticalAlign=middle;resizable=0;points=[];autosize=1;strokeColor=none;fillColor=none;fontSize=17;" parent="1" vertex="1">
          <mxGeometry x="385" y="1015" width="180" height="120" as="geometry" />
        </mxCell>
        <mxCell id="n3eoc5fLVPkFFxaEzCm6-14" value="L_fuse = 618 in" style="text;html=1;align=center;verticalAlign=middle;resizable=0;points=[];autosize=1;strokeColor=none;fillColor=none;fontSize=17;" parent="1" vertex="1">
          <mxGeometry x="405" y="1205" width="140" height="30" as="geometry" />
        </mxCell>
        <mxCell id="n3eoc5fLVPkFFxaEzCm6-15" value="engine 84 in&amp;nbsp;" style="text;html=1;align=center;verticalAlign=middle;resizable=0;points=[];autosize=1;strokeColor=none;fillColor=none;fontSize=17;" parent="1" vertex="1">
          <mxGeometry x="405" y="1125" width="120" height="30" as="geometry" />
        </mxCell>
        <mxCell id="n3eoc5fLVPkFFxaEzCm6-17" value="lengthened fuselage ~30%" style="text;html=1;align=center;verticalAlign=middle;resizable=0;points=[];autosize=1;strokeColor=none;fillColor=none;fontSize=17;" parent="1" vertex="1">
          <mxGeometry x="345" y="975" width="230" height="30" as="geometry" />
        </mxCell>
        <mxCell id="n3eoc5fLVPkFFxaEzCm6-18" value="135.5&quot;" style="text;html=1;align=center;verticalAlign=middle;resizable=0;points=[];autosize=1;strokeColor=none;fillColor=default;fontSize=17;" parent="1" vertex="1">
          <mxGeometry x="600" y="230" width="70" height="30" as="geometry" />
        </mxCell>
        <mxCell id="n3eoc5fLVPkFFxaEzCm6-19" value="314.5&quot;" style="text;html=1;align=center;verticalAlign=middle;resizable=0;points=[];autosize=1;strokeColor=none;fillColor=default;fontSize=17;" parent="1" vertex="1">
          <mxGeometry x="990" y="230" width="70" height="30" as="geometry" />
        </mxCell>
        <mxCell id="n3eoc5fLVPkFFxaEzCm6-20" value="168&quot;" style="text;html=1;align=center;verticalAlign=middle;resizable=0;points=[];autosize=1;strokeColor=none;fillColor=default;fontSize=17;" parent="1" vertex="1">
          <mxGeometry x="1220" y="230" width="60" height="30" as="geometry" />
        </mxCell>
        <mxCell id="n3eoc5fLVPkFFxaEzCm6-21" value="" style="endArrow=none;html=1;rounded=0;strokeWidth=4;fontSize=17;entryX=0;entryY=0.5;entryDx=0;entryDy=0;fillColor=#fff2cc;strokeColor=#d6b656;" parent="1" target="n3eoc5fLVPkFFxaEzCm6-23" edge="1">
          <mxGeometry width="50" height="50" relative="1" as="geometry">
            <mxPoint x="377" y="599" as="sourcePoint" />
            <mxPoint x="787" y="594" as="targetPoint" />
          </mxGeometry>
        </mxCell>
        <mxCell id="n3eoc5fLVPkFFxaEzCm6-22" value="CG&lt;sub&gt;vs&lt;/sub&gt;&lt;span style=&quot;font-size: 14.1667px;&quot;&gt;&lt;sub&gt;&amp;nbsp;&lt;/sub&gt;&amp;nbsp;= &quot;&lt;/span&gt;" style="edgeLabel;html=1;align=center;verticalAlign=middle;resizable=0;points=[];fontSize=17;" parent="n3eoc5fLVPkFFxaEzCm6-21" vertex="1" connectable="0">
          <mxGeometry x="-0.0998" y="2" relative="1" as="geometry">
            <mxPoint x="-5" y="-13" as="offset" />
          </mxGeometry>
        </mxCell>
        <mxCell id="n3eoc5fLVPkFFxaEzCm6-23" value="" style="shape=image;verticalLabelPosition=bottom;labelBackgroundColor=default;verticalAlign=top;aspect=fixed;imageAspect=0;image=https://static.thenounproject.com/png/2999185-200.png;" parent="1" vertex="1">
          <mxGeometry x="1440" y="584" width="30" height="30" as="geometry" />
        </mxCell>
        <mxCell id="n3eoc5fLVPkFFxaEzCm6-24" value="" style="rounded=0;whiteSpace=wrap;html=1;fontSize=17;fillColor=#dae8fc;strokeColor=#6c8ebf;" parent="1" vertex="1">
          <mxGeometry x="920" y="310" width="170" height="20" as="geometry" />
        </mxCell>
        <mxCell id="n3eoc5fLVPkFFxaEzCm6-26" value="wing 60% along cargo bay" style="text;html=1;align=center;verticalAlign=middle;resizable=0;points=[];autosize=1;strokeColor=none;fillColor=none;fontSize=17;" parent="1" vertex="1">
          <mxGeometry x="895" y="340" width="220" height="30" as="geometry" />
        </mxCell>
        <mxCell id="n3eoc5fLVPkFFxaEzCm6-27" value="Fixed &lt;br&gt;Equipment &lt;br&gt;1 (1/4)" style="text;html=1;align=center;verticalAlign=middle;resizable=0;points=[];autosize=1;strokeColor=#666666;fillColor=#f5f5f5;fontSize=17;fontColor=#333333;" parent="1" vertex="1">
          <mxGeometry x="380" y="360" width="100" height="70" as="geometry" />
        </mxCell>
        <mxCell id="n3eoc5fLVPkFFxaEzCm6-28" value="Fixed &lt;br&gt;Equipment &lt;br&gt;2 (2/4)" style="text;html=1;align=center;verticalAlign=middle;resizable=0;points=[];autosize=1;strokeColor=#666666;fillColor=#f5f5f5;fontSize=17;fontColor=#333333;" parent="1" vertex="1">
          <mxGeometry x="540" y="360" width="100" height="70" as="geometry" />
        </mxCell>
        <mxCell id="n3eoc5fLVPkFFxaEzCm6-29" value="Fixed &lt;br&gt;Equipment &lt;br&gt;3 (1/4)" style="text;html=1;align=center;verticalAlign=middle;resizable=0;points=[];autosize=1;strokeColor=#666666;fillColor=#f5f5f5;fontSize=17;fontColor=#333333;" parent="1" vertex="1">
          <mxGeometry x="760" y="360" width="100" height="70" as="geometry" />
        </mxCell>
        <mxCell id="n3eoc5fLVPkFFxaEzCm6-30" value="Fuel" style="text;html=1;align=center;verticalAlign=middle;resizable=0;points=[];autosize=1;strokeColor=#9673a6;fillColor=#e1d5e7;fontSize=17;" parent="1" vertex="1">
          <mxGeometry x="975" y="305" width="60" height="30" as="geometry" />
        </mxCell>
        <mxCell id="n3eoc5fLVPkFFxaEzCm6-31" value="Powerplant" style="rounded=0;whiteSpace=wrap;html=1;fontSize=17;fillColor=#e1d5e7;strokeColor=#9673a6;" parent="1" vertex="1">
          <mxGeometry x="1155" y="335" width="205" height="100" as="geometry" />
        </mxCell>
        <mxCell id="n3eoc5fLVPkFFxaEzCm6-33" value="" style="group" parent="1" vertex="1" connectable="0">
          <mxGeometry x="377" y="502" width="440" height="30" as="geometry" />
        </mxCell>
        <mxCell id="n3eoc5fLVPkFFxaEzCm6-6" value="" style="endArrow=none;html=1;rounded=0;strokeWidth=4;fontSize=17;entryX=0;entryY=0.5;entryDx=0;entryDy=0;fillColor=#dae8fc;strokeColor=#6c8ebf;" parent="n3eoc5fLVPkFFxaEzCm6-33" target="n3eoc5fLVPkFFxaEzCm6-8" edge="1">
          <mxGeometry width="50" height="50" relative="1" as="geometry">
            <mxPoint y="15" as="sourcePoint" />
            <mxPoint x="410" y="10" as="targetPoint" />
          </mxGeometry>
        </mxCell>
        <mxCell id="n3eoc5fLVPkFFxaEzCm6-9" value="CG&lt;span style=&quot;font-size: 14.1667px;&quot;&gt;&lt;sub&gt;fuse&amp;nbsp;&lt;/sub&gt;&amp;nbsp;= 247.2 &quot;&lt;/span&gt;" style="edgeLabel;html=1;align=center;verticalAlign=middle;resizable=0;points=[];fontSize=17;" parent="n3eoc5fLVPkFFxaEzCm6-6" vertex="1" connectable="0">
          <mxGeometry x="-0.0998" y="2" relative="1" as="geometry">
            <mxPoint x="-5" y="-13" as="offset" />
          </mxGeometry>
        </mxCell>
        <mxCell id="n3eoc5fLVPkFFxaEzCm6-32" value="" style="shape=image;verticalLabelPosition=bottom;labelBackgroundColor=default;verticalAlign=top;aspect=fixed;imageAspect=0;image=https://static.thenounproject.com/png/2999185-200.png;" parent="n3eoc5fLVPkFFxaEzCm6-33" vertex="1">
          <mxGeometry x="410" width="30" height="30" as="geometry" />
        </mxCell>
        <mxCell id="n3eoc5fLVPkFFxaEzCm6-35" value="" style="endArrow=none;html=1;rounded=0;strokeWidth=4;fontSize=17;entryX=0;entryY=0.5;entryDx=0;entryDy=0;fillColor=#f5f5f5;strokeColor=#666666;" parent="1" target="n3eoc5fLVPkFFxaEzCm6-37" edge="1">
          <mxGeometry width="50" height="50" relative="1" as="geometry">
            <mxPoint x="380" y="680" as="sourcePoint" />
            <mxPoint x="490" y="675" as="targetPoint" />
          </mxGeometry>
        </mxCell>
        <mxCell id="n3eoc5fLVPkFFxaEzCm6-36" value="CG&lt;sub&gt;FE1&lt;/sub&gt;&lt;span style=&quot;font-size: 14.1667px;&quot;&gt;&lt;sub&gt;&amp;nbsp;&lt;/sub&gt;&amp;nbsp;= 13.55 &quot; (10% Cockpit)&lt;/span&gt;" style="edgeLabel;html=1;align=center;verticalAlign=middle;resizable=0;points=[];fontSize=17;labelBackgroundColor=none;" parent="n3eoc5fLVPkFFxaEzCm6-35" vertex="1" connectable="0">
          <mxGeometry x="-0.0998" y="2" relative="1" as="geometry">
            <mxPoint x="156" y="2" as="offset" />
          </mxGeometry>
        </mxCell>
        <mxCell id="n3eoc5fLVPkFFxaEzCm6-37" value="" style="shape=image;verticalLabelPosition=bottom;labelBackgroundColor=default;verticalAlign=top;aspect=fixed;imageAspect=0;image=https://static.thenounproject.com/png/2999185-200.png;" parent="1" vertex="1">
          <mxGeometry x="410" y="665" width="30" height="30" as="geometry" />
        </mxCell>
        <mxCell id="n3eoc5fLVPkFFxaEzCm6-38" value="" style="endArrow=none;html=1;rounded=0;strokeWidth=4;fontSize=17;entryX=0;entryY=0.5;entryDx=0;entryDy=0;fillColor=#f5f5f5;strokeColor=#666666;" parent="1" target="n3eoc5fLVPkFFxaEzCm6-40" edge="1">
          <mxGeometry width="50" height="50" relative="1" as="geometry">
            <mxPoint x="378" y="718" as="sourcePoint" />
            <mxPoint x="488" y="713" as="targetPoint" />
          </mxGeometry>
        </mxCell>
        <mxCell id="n3eoc5fLVPkFFxaEzCm6-39" value="CG&lt;sub&gt;FE2&lt;/sub&gt;&lt;span style=&quot;font-size: 14.1667px;&quot;&gt;&lt;sub&gt;&amp;nbsp;&lt;/sub&gt;&amp;nbsp;= 89.43&quot; (66% Cockpit)&lt;/span&gt;" style="edgeLabel;html=1;align=center;verticalAlign=middle;resizable=0;points=[];fontSize=17;labelBackgroundColor=none;" parent="n3eoc5fLVPkFFxaEzCm6-38" vertex="1" connectable="0">
          <mxGeometry x="-0.0998" y="2" relative="1" as="geometry">
            <mxPoint x="254" y="2" as="offset" />
          </mxGeometry>
        </mxCell>
        <mxCell id="n3eoc5fLVPkFFxaEzCm6-40" value="" style="shape=image;verticalLabelPosition=bottom;labelBackgroundColor=default;verticalAlign=top;aspect=fixed;imageAspect=0;image=https://static.thenounproject.com/png/2999185-200.png;" parent="1" vertex="1">
          <mxGeometry x="575" y="703" width="30" height="30" as="geometry" />
        </mxCell>
        <mxCell id="n3eoc5fLVPkFFxaEzCm6-41" value="" style="endArrow=none;html=1;rounded=0;strokeWidth=4;fontSize=17;entryX=0;entryY=0.5;entryDx=0;entryDy=0;fillColor=#f5f5f5;strokeColor=#666666;" parent="1" target="n3eoc5fLVPkFFxaEzCm6-43" edge="1">
          <mxGeometry width="50" height="50" relative="1" as="geometry">
            <mxPoint x="377" y="760" as="sourcePoint" />
            <mxPoint x="487" y="755" as="targetPoint" />
          </mxGeometry>
        </mxCell>
        <mxCell id="n3eoc5fLVPkFFxaEzCm6-42" value="CG&lt;sub&gt;FE3&lt;/sub&gt;&lt;span style=&quot;font-size: 14.1667px;&quot;&gt;&lt;sub&gt;&amp;nbsp;&lt;/sub&gt;&amp;nbsp;= 214.125&quot;&amp;nbsp; (25% Payload Bay)&lt;/span&gt;" style="edgeLabel;html=1;align=center;verticalAlign=middle;resizable=0;points=[];fontSize=17;labelBackgroundColor=none;" parent="n3eoc5fLVPkFFxaEzCm6-41" vertex="1" connectable="0">
          <mxGeometry x="-0.0998" y="2" relative="1" as="geometry">
            <mxPoint x="275" y="2" as="offset" />
          </mxGeometry>
        </mxCell>
        <mxCell id="n3eoc5fLVPkFFxaEzCm6-43" value="" style="shape=image;verticalLabelPosition=bottom;labelBackgroundColor=default;verticalAlign=top;aspect=fixed;imageAspect=0;image=https://static.thenounproject.com/png/2999185-200.png;" parent="1" vertex="1">
          <mxGeometry x="574" y="745" width="30" height="30" as="geometry" />
        </mxCell>
        <mxCell id="n3eoc5fLVPkFFxaEzCm6-44" value="FE1 = 623.75 lbm&lt;br&gt;FE2 = 1247.5 lbm&lt;br&gt;FE3 = 623.75 lbm&lt;br&gt;FUSE = 3467.2 lbm&lt;br&gt;WING = 3116 lbm&lt;br&gt;EMP = 854.2 lbm&lt;br&gt;LG = 997.5 lbm&lt;br&gt;PWR= 3602.1 lbm&lt;br&gt;FUEL =&amp;nbsp;" style="text;html=1;align=center;verticalAlign=middle;resizable=0;points=[];autosize=1;strokeColor=none;fillColor=none;fontSize=17;" parent="1" vertex="1">
          <mxGeometry x="670" y="1090" width="170" height="200" as="geometry" />
        </mxCell>
        <mxCell id="n3eoc5fLVPkFFxaEzCm6-46" value="" style="endArrow=none;html=1;rounded=0;strokeWidth=4;fontSize=17;entryX=0;entryY=0.5;entryDx=0;entryDy=0;fillColor=#dae8fc;strokeColor=#6c8ebf;" parent="1" target="n3eoc5fLVPkFFxaEzCm6-48" edge="1">
          <mxGeometry width="50" height="50" relative="1" as="geometry">
            <mxPoint x="380" y="798" as="sourcePoint" />
            <mxPoint x="790" y="793" as="targetPoint" />
          </mxGeometry>
        </mxCell>
        <mxCell id="n3eoc5fLVPkFFxaEzCm6-47" value="CG&lt;sub&gt;wing&lt;/sub&gt;&lt;span style=&quot;font-size: 14.1667px;&quot;&gt;&lt;sub&gt;&amp;nbsp;&lt;/sub&gt;&amp;nbsp;= &quot;&lt;/span&gt;" style="edgeLabel;html=1;align=center;verticalAlign=middle;resizable=0;points=[];fontSize=17;" parent="n3eoc5fLVPkFFxaEzCm6-46" vertex="1" connectable="0">
          <mxGeometry x="-0.0998" y="2" relative="1" as="geometry">
            <mxPoint x="416" as="offset" />
          </mxGeometry>
        </mxCell>
        <mxCell id="n3eoc5fLVPkFFxaEzCm6-48" value="" style="shape=image;verticalLabelPosition=bottom;labelBackgroundColor=default;verticalAlign=top;aspect=fixed;imageAspect=0;image=https://static.thenounproject.com/png/2999185-200.png;" parent="1" vertex="1">
          <mxGeometry x="990" y="784" width="30" height="30" as="geometry" />
        </mxCell>
        <mxCell id="n3eoc5fLVPkFFxaEzCm6-49" value="Gear" style="shape=table;startSize=30;container=1;collapsible=0;childLayout=tableLayout;fontStyle=1;align=center;labelBackgroundColor=none;fontSize=17;fillColor=default;" parent="1" vertex="1">
          <mxGeometry x="1530" y="1090" width="850" height="560" as="geometry" />
        </mxCell>
        <mxCell id="n3eoc5fLVPkFFxaEzCm6-50" value="" style="shape=tableRow;horizontal=0;startSize=0;swimlaneHead=0;swimlaneBody=0;top=0;left=0;bottom=0;right=0;collapsible=0;dropTarget=0;fillColor=none;points=[[0,0.5],[1,0.5]];portConstraint=eastwest;labelBackgroundColor=none;fontSize=17;" parent="n3eoc5fLVPkFFxaEzCm6-49" vertex="1">
          <mxGeometry y="30" width="850" height="48" as="geometry" />
        </mxCell>
        <mxCell id="n3eoc5fLVPkFFxaEzCm6-51" value="part&lt;span style=&quot;white-space: pre;&quot;&gt;	&lt;/span&gt;" style="shape=partialRectangle;html=1;whiteSpace=wrap;connectable=0;fillColor=none;top=0;left=0;bottom=0;right=0;overflow=hidden;labelBackgroundColor=none;fontSize=17;" parent="n3eoc5fLVPkFFxaEzCm6-50" vertex="1">
          <mxGeometry width="123" height="48" as="geometry">
            <mxRectangle width="123" height="48" as="alternateBounds" />
          </mxGeometry>
        </mxCell>
        <mxCell id="n3eoc5fLVPkFFxaEzCm6-52" value="x [ft]" style="shape=partialRectangle;html=1;whiteSpace=wrap;connectable=0;fillColor=none;top=0;left=0;bottom=0;right=0;overflow=hidden;labelBackgroundColor=none;fontSize=17;" parent="n3eoc5fLVPkFFxaEzCm6-50" vertex="1">
          <mxGeometry x="123" width="87" height="48" as="geometry">
            <mxRectangle width="87" height="48" as="alternateBounds" />
          </mxGeometry>
        </mxCell>
        <mxCell id="n3eoc5fLVPkFFxaEzCm6-53" value="y [ft]" style="shape=partialRectangle;html=1;whiteSpace=wrap;connectable=0;fillColor=none;top=0;left=0;bottom=0;right=0;overflow=hidden;labelBackgroundColor=none;fontSize=17;" parent="n3eoc5fLVPkFFxaEzCm6-50" vertex="1">
          <mxGeometry x="210" width="90" height="48" as="geometry">
            <mxRectangle width="90" height="48" as="alternateBounds" />
          </mxGeometry>
        </mxCell>
        <mxCell id="n3eoc5fLVPkFFxaEzCm6-62" value="z [ft]" style="shape=partialRectangle;html=1;whiteSpace=wrap;connectable=0;fillColor=none;top=0;left=0;bottom=0;right=0;overflow=hidden;labelBackgroundColor=none;fontSize=17;" parent="n3eoc5fLVPkFFxaEzCm6-50" vertex="1">
          <mxGeometry x="300" width="120" height="48" as="geometry">
            <mxRectangle width="120" height="48" as="alternateBounds" />
          </mxGeometry>
        </mxCell>
        <mxCell id="n3eoc5fLVPkFFxaEzCm6-95" value="Weight [lbm\" style="shape=partialRectangle;html=1;whiteSpace=wrap;connectable=0;fillColor=none;top=0;left=0;bottom=0;right=0;overflow=hidden;labelBackgroundColor=none;fontSize=17;" parent="n3eoc5fLVPkFFxaEzCm6-50" vertex="1">
          <mxGeometry x="420" width="100" height="48" as="geometry">
            <mxRectangle width="100" height="48" as="alternateBounds" />
          </mxGeometry>
        </mxCell>
        <mxCell id="n3eoc5fLVPkFFxaEzCm6-137" value="Notes" style="shape=partialRectangle;html=1;whiteSpace=wrap;connectable=0;fillColor=none;top=0;left=0;bottom=0;right=0;overflow=hidden;labelBackgroundColor=none;fontSize=17;" parent="n3eoc5fLVPkFFxaEzCm6-50" vertex="1">
          <mxGeometry x="520" width="170" height="48" as="geometry">
            <mxRectangle width="170" height="48" as="alternateBounds" />
          </mxGeometry>
        </mxCell>
        <mxCell id="n3eoc5fLVPkFFxaEzCm6-159" value="AAA NAME" style="shape=partialRectangle;html=1;whiteSpace=wrap;connectable=0;fillColor=none;top=0;left=0;bottom=0;right=0;overflow=hidden;labelBackgroundColor=none;fontSize=17;" parent="n3eoc5fLVPkFFxaEzCm6-50" vertex="1">
          <mxGeometry x="690" width="160" height="48" as="geometry">
            <mxRectangle width="160" height="48" as="alternateBounds" />
          </mxGeometry>
        </mxCell>
        <mxCell id="n3eoc5fLVPkFFxaEzCm6-54" value="" style="shape=tableRow;horizontal=0;startSize=0;swimlaneHead=0;swimlaneBody=0;top=0;left=0;bottom=0;right=0;collapsible=0;dropTarget=0;fillColor=none;points=[[0,0.5],[1,0.5]];portConstraint=eastwest;labelBackgroundColor=none;fontSize=17;" parent="n3eoc5fLVPkFFxaEzCm6-49" vertex="1">
          <mxGeometry y="78" width="850" height="46" as="geometry" />
        </mxCell>
        <mxCell id="n3eoc5fLVPkFFxaEzCm6-55" value="FUSE" style="shape=partialRectangle;html=1;whiteSpace=wrap;connectable=0;fillColor=none;top=0;left=0;bottom=0;right=0;overflow=hidden;labelBackgroundColor=none;fontSize=17;" parent="n3eoc5fLVPkFFxaEzCm6-54" vertex="1">
          <mxGeometry width="123" height="46" as="geometry">
            <mxRectangle width="123" height="46" as="alternateBounds" />
          </mxGeometry>
        </mxCell>
        <mxCell id="n3eoc5fLVPkFFxaEzCm6-56" value="20.6" style="shape=partialRectangle;html=1;whiteSpace=wrap;connectable=0;fillColor=none;top=0;left=0;bottom=0;right=0;overflow=hidden;labelBackgroundColor=none;fontSize=17;" parent="n3eoc5fLVPkFFxaEzCm6-54" vertex="1">
          <mxGeometry x="123" width="87" height="46" as="geometry">
            <mxRectangle width="87" height="46" as="alternateBounds" />
          </mxGeometry>
        </mxCell>
        <mxCell id="n3eoc5fLVPkFFxaEzCm6-57" value="0" style="shape=partialRectangle;html=1;whiteSpace=wrap;connectable=0;fillColor=none;top=0;left=0;bottom=0;right=0;overflow=hidden;labelBackgroundColor=none;fontSize=17;" parent="n3eoc5fLVPkFFxaEzCm6-54" vertex="1">
          <mxGeometry x="210" width="90" height="46" as="geometry">
            <mxRectangle width="90" height="46" as="alternateBounds" />
          </mxGeometry>
        </mxCell>
        <mxCell id="n3eoc5fLVPkFFxaEzCm6-63" value="2.25" style="shape=partialRectangle;html=1;whiteSpace=wrap;connectable=0;fillColor=none;top=0;left=0;bottom=0;right=0;overflow=hidden;labelBackgroundColor=none;fontSize=17;" parent="n3eoc5fLVPkFFxaEzCm6-54" vertex="1">
          <mxGeometry x="300" width="120" height="46" as="geometry">
            <mxRectangle width="120" height="46" as="alternateBounds" />
          </mxGeometry>
        </mxCell>
        <mxCell id="n3eoc5fLVPkFFxaEzCm6-96" value="3466.3" style="shape=partialRectangle;html=1;whiteSpace=wrap;connectable=0;fillColor=none;top=0;left=0;bottom=0;right=0;overflow=hidden;labelBackgroundColor=none;fontSize=17;" parent="n3eoc5fLVPkFFxaEzCm6-54" vertex="1">
          <mxGeometry x="420" width="100" height="46" as="geometry">
            <mxRectangle width="100" height="46" as="alternateBounds" />
          </mxGeometry>
        </mxCell>
        <mxCell id="n3eoc5fLVPkFFxaEzCm6-138" value="0.4 length" style="shape=partialRectangle;html=1;whiteSpace=wrap;connectable=0;fillColor=none;top=0;left=0;bottom=0;right=0;overflow=hidden;labelBackgroundColor=none;fontSize=17;" parent="n3eoc5fLVPkFFxaEzCm6-54" vertex="1">
          <mxGeometry x="520" width="170" height="46" as="geometry">
            <mxRectangle width="170" height="46" as="alternateBounds" />
          </mxGeometry>
        </mxCell>
        <mxCell id="n3eoc5fLVPkFFxaEzCm6-160" value="Fuselage" style="shape=partialRectangle;html=1;whiteSpace=wrap;connectable=0;fillColor=none;top=0;left=0;bottom=0;right=0;overflow=hidden;labelBackgroundColor=none;fontSize=17;" parent="n3eoc5fLVPkFFxaEzCm6-54" vertex="1">
          <mxGeometry x="690" width="160" height="46" as="geometry">
            <mxRectangle width="160" height="46" as="alternateBounds" />
          </mxGeometry>
        </mxCell>
        <mxCell id="n3eoc5fLVPkFFxaEzCm6-58" value="" style="shape=tableRow;horizontal=0;startSize=0;swimlaneHead=0;swimlaneBody=0;top=0;left=0;bottom=0;right=0;collapsible=0;dropTarget=0;fillColor=none;points=[[0,0.5],[1,0.5]];portConstraint=eastwest;labelBackgroundColor=none;fontSize=17;" parent="n3eoc5fLVPkFFxaEzCm6-49" vertex="1">
          <mxGeometry y="124" width="850" height="48" as="geometry" />
        </mxCell>
        <mxCell id="n3eoc5fLVPkFFxaEzCm6-59" value="WING" style="shape=partialRectangle;html=1;whiteSpace=wrap;connectable=0;fillColor=none;top=0;left=0;bottom=0;right=0;overflow=hidden;labelBackgroundColor=none;fontSize=17;" parent="n3eoc5fLVPkFFxaEzCm6-58" vertex="1">
          <mxGeometry width="123" height="48" as="geometry">
            <mxRectangle width="123" height="48" as="alternateBounds" />
          </mxGeometry>
        </mxCell>
        <mxCell id="n3eoc5fLVPkFFxaEzCm6-60" value="19.5" style="shape=partialRectangle;html=1;whiteSpace=wrap;connectable=0;fillColor=none;top=0;left=0;bottom=0;right=0;overflow=hidden;labelBackgroundColor=none;fontSize=17;" parent="n3eoc5fLVPkFFxaEzCm6-58" vertex="1">
          <mxGeometry x="123" width="87" height="48" as="geometry">
            <mxRectangle width="87" height="48" as="alternateBounds" />
          </mxGeometry>
        </mxCell>
        <mxCell id="n3eoc5fLVPkFFxaEzCm6-61" value="0" style="shape=partialRectangle;html=1;whiteSpace=wrap;connectable=0;fillColor=none;top=0;left=0;bottom=0;right=0;overflow=hidden;labelBackgroundColor=none;fontSize=17;" parent="n3eoc5fLVPkFFxaEzCm6-58" vertex="1">
          <mxGeometry x="210" width="90" height="48" as="geometry">
            <mxRectangle width="90" height="48" as="alternateBounds" />
          </mxGeometry>
        </mxCell>
        <mxCell id="n3eoc5fLVPkFFxaEzCm6-64" value="4.4" style="shape=partialRectangle;html=1;whiteSpace=wrap;connectable=0;fillColor=none;top=0;left=0;bottom=0;right=0;overflow=hidden;labelBackgroundColor=none;fontSize=17;" parent="n3eoc5fLVPkFFxaEzCm6-58" vertex="1">
          <mxGeometry x="300" width="120" height="48" as="geometry">
            <mxRectangle width="120" height="48" as="alternateBounds" />
          </mxGeometry>
        </mxCell>
        <mxCell id="n3eoc5fLVPkFFxaEzCm6-97" value="3115.2" style="shape=partialRectangle;html=1;whiteSpace=wrap;connectable=0;fillColor=none;top=0;left=0;bottom=0;right=0;overflow=hidden;labelBackgroundColor=none;fontSize=17;" parent="n3eoc5fLVPkFFxaEzCm6-58" vertex="1">
          <mxGeometry x="420" width="100" height="48" as="geometry">
            <mxRectangle width="100" height="48" as="alternateBounds" />
          </mxGeometry>
        </mxCell>
        <mxCell id="n3eoc5fLVPkFFxaEzCm6-139" value="30% bay" style="shape=partialRectangle;html=1;whiteSpace=wrap;connectable=0;fillColor=none;top=0;left=0;bottom=0;right=0;overflow=hidden;labelBackgroundColor=none;fontSize=17;" parent="n3eoc5fLVPkFFxaEzCm6-58" vertex="1">
          <mxGeometry x="520" width="170" height="48" as="geometry">
            <mxRectangle width="170" height="48" as="alternateBounds" />
          </mxGeometry>
        </mxCell>
        <mxCell id="n3eoc5fLVPkFFxaEzCm6-161" value="Wing" style="shape=partialRectangle;html=1;whiteSpace=wrap;connectable=0;fillColor=none;top=0;left=0;bottom=0;right=0;overflow=hidden;labelBackgroundColor=none;fontSize=17;" parent="n3eoc5fLVPkFFxaEzCm6-58" vertex="1">
          <mxGeometry x="690" width="160" height="48" as="geometry">
            <mxRectangle width="160" height="48" as="alternateBounds" />
          </mxGeometry>
        </mxCell>
        <mxCell id="n3eoc5fLVPkFFxaEzCm6-65" style="shape=tableRow;horizontal=0;startSize=0;swimlaneHead=0;swimlaneBody=0;top=0;left=0;bottom=0;right=0;collapsible=0;dropTarget=0;fillColor=none;points=[[0,0.5],[1,0.5]];portConstraint=eastwest;labelBackgroundColor=none;fontSize=17;" parent="n3eoc5fLVPkFFxaEzCm6-49" vertex="1">
          <mxGeometry y="172" width="850" height="46" as="geometry" />
        </mxCell>
        <mxCell id="n3eoc5fLVPkFFxaEzCm6-66" value="HSTAB" style="shape=partialRectangle;html=1;whiteSpace=wrap;connectable=0;fillColor=none;top=0;left=0;bottom=0;right=0;overflow=hidden;labelBackgroundColor=none;fontSize=17;" parent="n3eoc5fLVPkFFxaEzCm6-65" vertex="1">
          <mxGeometry width="123" height="46" as="geometry">
            <mxRectangle width="123" height="46" as="alternateBounds" />
          </mxGeometry>
        </mxCell>
        <mxCell id="n3eoc5fLVPkFFxaEzCm6-67" value="44.5" style="shape=partialRectangle;html=1;whiteSpace=wrap;connectable=0;fillColor=none;top=0;left=0;bottom=0;right=0;overflow=hidden;labelBackgroundColor=none;fontSize=17;" parent="n3eoc5fLVPkFFxaEzCm6-65" vertex="1">
          <mxGeometry x="123" width="87" height="46" as="geometry">
            <mxRectangle width="87" height="46" as="alternateBounds" />
          </mxGeometry>
        </mxCell>
        <mxCell id="n3eoc5fLVPkFFxaEzCm6-68" value="0" style="shape=partialRectangle;html=1;whiteSpace=wrap;connectable=0;fillColor=none;top=0;left=0;bottom=0;right=0;overflow=hidden;labelBackgroundColor=none;fontSize=17;" parent="n3eoc5fLVPkFFxaEzCm6-65" vertex="1">
          <mxGeometry x="210" width="90" height="46" as="geometry">
            <mxRectangle width="90" height="46" as="alternateBounds" />
          </mxGeometry>
        </mxCell>
        <mxCell id="n3eoc5fLVPkFFxaEzCm6-69" value="4.4" style="shape=partialRectangle;html=1;whiteSpace=wrap;connectable=0;fillColor=none;top=0;left=0;bottom=0;right=0;overflow=hidden;labelBackgroundColor=none;fontSize=17;" parent="n3eoc5fLVPkFFxaEzCm6-65" vertex="1">
          <mxGeometry x="300" width="120" height="46" as="geometry">
            <mxRectangle width="120" height="46" as="alternateBounds" />
          </mxGeometry>
        </mxCell>
        <mxCell id="n3eoc5fLVPkFFxaEzCm6-98" value="399.75" style="shape=partialRectangle;html=1;whiteSpace=wrap;connectable=0;fillColor=none;top=0;left=0;bottom=0;right=0;overflow=hidden;labelBackgroundColor=none;fontSize=17;" parent="n3eoc5fLVPkFFxaEzCm6-65" vertex="1">
          <mxGeometry x="420" width="100" height="46" as="geometry">
            <mxRectangle width="100" height="46" as="alternateBounds" />
          </mxGeometry>
        </mxCell>
        <mxCell id="n3eoc5fLVPkFFxaEzCm6-140" value="" style="shape=partialRectangle;html=1;whiteSpace=wrap;connectable=0;fillColor=none;top=0;left=0;bottom=0;right=0;overflow=hidden;labelBackgroundColor=none;fontSize=17;" parent="n3eoc5fLVPkFFxaEzCm6-65" vertex="1">
          <mxGeometry x="520" width="170" height="46" as="geometry">
            <mxRectangle width="170" height="46" as="alternateBounds" />
          </mxGeometry>
        </mxCell>
        <mxCell id="n3eoc5fLVPkFFxaEzCm6-162" value="Hstab" style="shape=partialRectangle;html=1;whiteSpace=wrap;connectable=0;fillColor=none;top=0;left=0;bottom=0;right=0;overflow=hidden;labelBackgroundColor=none;fontSize=17;" parent="n3eoc5fLVPkFFxaEzCm6-65" vertex="1">
          <mxGeometry x="690" width="160" height="46" as="geometry">
            <mxRectangle width="160" height="46" as="alternateBounds" />
          </mxGeometry>
        </mxCell>
        <mxCell id="n3eoc5fLVPkFFxaEzCm6-70" style="shape=tableRow;horizontal=0;startSize=0;swimlaneHead=0;swimlaneBody=0;top=0;left=0;bottom=0;right=0;collapsible=0;dropTarget=0;fillColor=none;points=[[0,0.5],[1,0.5]];portConstraint=eastwest;labelBackgroundColor=none;fontSize=17;" parent="n3eoc5fLVPkFFxaEzCm6-49" vertex="1">
          <mxGeometry y="218" width="850" height="48" as="geometry" />
        </mxCell>
        <mxCell id="n3eoc5fLVPkFFxaEzCm6-71" value="VSTAB" style="shape=partialRectangle;html=1;whiteSpace=wrap;connectable=0;fillColor=none;top=0;left=0;bottom=0;right=0;overflow=hidden;labelBackgroundColor=none;fontSize=17;" parent="n3eoc5fLVPkFFxaEzCm6-70" vertex="1">
          <mxGeometry width="123" height="48" as="geometry">
            <mxRectangle width="123" height="48" as="alternateBounds" />
          </mxGeometry>
        </mxCell>
        <mxCell id="n3eoc5fLVPkFFxaEzCm6-72" value="44.5" style="shape=partialRectangle;html=1;whiteSpace=wrap;connectable=0;fillColor=none;top=0;left=0;bottom=0;right=0;overflow=hidden;labelBackgroundColor=none;fontSize=17;" parent="n3eoc5fLVPkFFxaEzCm6-70" vertex="1">
          <mxGeometry x="123" width="87" height="48" as="geometry">
            <mxRectangle width="87" height="48" as="alternateBounds" />
          </mxGeometry>
        </mxCell>
        <mxCell id="n3eoc5fLVPkFFxaEzCm6-73" value="0" style="shape=partialRectangle;html=1;whiteSpace=wrap;connectable=0;fillColor=none;top=0;left=0;bottom=0;right=0;overflow=hidden;labelBackgroundColor=none;fontSize=17;" parent="n3eoc5fLVPkFFxaEzCm6-70" vertex="1">
          <mxGeometry x="210" width="90" height="48" as="geometry">
            <mxRectangle width="90" height="48" as="alternateBounds" />
          </mxGeometry>
        </mxCell>
        <mxCell id="n3eoc5fLVPkFFxaEzCm6-74" value="4.4" style="shape=partialRectangle;html=1;whiteSpace=wrap;connectable=0;fillColor=none;top=0;left=0;bottom=0;right=0;overflow=hidden;labelBackgroundColor=none;fontSize=17;" parent="n3eoc5fLVPkFFxaEzCm6-70" vertex="1">
          <mxGeometry x="300" width="120" height="48" as="geometry">
            <mxRectangle width="120" height="48" as="alternateBounds" />
          </mxGeometry>
        </mxCell>
        <mxCell id="n3eoc5fLVPkFFxaEzCm6-99" style="shape=partialRectangle;html=1;whiteSpace=wrap;connectable=0;fillColor=none;top=0;left=0;bottom=0;right=0;overflow=hidden;labelBackgroundColor=none;fontSize=17;" parent="n3eoc5fLVPkFFxaEzCm6-70" vertex="1">
          <mxGeometry x="420" width="100" height="48" as="geometry">
            <mxRectangle width="100" height="48" as="alternateBounds" />
          </mxGeometry>
        </mxCell>
        <mxCell id="n3eoc5fLVPkFFxaEzCm6-141" value="" style="shape=partialRectangle;html=1;whiteSpace=wrap;connectable=0;fillColor=none;top=0;left=0;bottom=0;right=0;overflow=hidden;labelBackgroundColor=none;fontSize=17;" parent="n3eoc5fLVPkFFxaEzCm6-70" vertex="1">
          <mxGeometry x="520" width="170" height="48" as="geometry">
            <mxRectangle width="170" height="48" as="alternateBounds" />
          </mxGeometry>
        </mxCell>
        <mxCell id="n3eoc5fLVPkFFxaEzCm6-163" value="Vstab" style="shape=partialRectangle;html=1;whiteSpace=wrap;connectable=0;fillColor=none;top=0;left=0;bottom=0;right=0;overflow=hidden;labelBackgroundColor=none;fontSize=17;" parent="n3eoc5fLVPkFFxaEzCm6-70" vertex="1">
          <mxGeometry x="690" width="160" height="48" as="geometry">
            <mxRectangle width="160" height="48" as="alternateBounds" />
          </mxGeometry>
        </mxCell>
        <mxCell id="n3eoc5fLVPkFFxaEzCm6-75" style="shape=tableRow;horizontal=0;startSize=0;swimlaneHead=0;swimlaneBody=0;top=0;left=0;bottom=0;right=0;collapsible=0;dropTarget=0;fillColor=none;points=[[0,0.5],[1,0.5]];portConstraint=eastwest;labelBackgroundColor=none;fontSize=17;" parent="n3eoc5fLVPkFFxaEzCm6-49" vertex="1">
          <mxGeometry y="266" width="850" height="46" as="geometry" />
        </mxCell>
        <mxCell id="n3eoc5fLVPkFFxaEzCm6-76" value="Nose Gear&amp;nbsp;" style="shape=partialRectangle;html=1;whiteSpace=wrap;connectable=0;fillColor=none;top=0;left=0;bottom=0;right=0;overflow=hidden;labelBackgroundColor=none;fontSize=17;" parent="n3eoc5fLVPkFFxaEzCm6-75" vertex="1">
          <mxGeometry width="123" height="46" as="geometry">
            <mxRectangle width="123" height="46" as="alternateBounds" />
          </mxGeometry>
        </mxCell>
        <mxCell id="n3eoc5fLVPkFFxaEzCm6-77" value="3.39" style="shape=partialRectangle;html=1;whiteSpace=wrap;connectable=0;fillColor=none;top=0;left=0;bottom=0;right=0;overflow=hidden;labelBackgroundColor=none;fontSize=17;" parent="n3eoc5fLVPkFFxaEzCm6-75" vertex="1">
          <mxGeometry x="123" width="87" height="46" as="geometry">
            <mxRectangle width="87" height="46" as="alternateBounds" />
          </mxGeometry>
        </mxCell>
        <mxCell id="n3eoc5fLVPkFFxaEzCm6-78" value="0" style="shape=partialRectangle;html=1;whiteSpace=wrap;connectable=0;fillColor=none;top=0;left=0;bottom=0;right=0;overflow=hidden;labelBackgroundColor=none;fontSize=17;" parent="n3eoc5fLVPkFFxaEzCm6-75" vertex="1">
          <mxGeometry x="210" width="90" height="46" as="geometry">
            <mxRectangle width="90" height="46" as="alternateBounds" />
          </mxGeometry>
        </mxCell>
        <mxCell id="n3eoc5fLVPkFFxaEzCm6-79" value="-0.5" style="shape=partialRectangle;html=1;whiteSpace=wrap;connectable=0;fillColor=none;top=0;left=0;bottom=0;right=0;overflow=hidden;labelBackgroundColor=none;fontSize=17;" parent="n3eoc5fLVPkFFxaEzCm6-75" vertex="1">
          <mxGeometry x="300" width="120" height="46" as="geometry">
            <mxRectangle width="120" height="46" as="alternateBounds" />
          </mxGeometry>
        </mxCell>
        <mxCell id="n3eoc5fLVPkFFxaEzCm6-100" value="149.625&lt;br&gt;(15%)" style="shape=partialRectangle;html=1;whiteSpace=wrap;connectable=0;fillColor=none;top=0;left=0;bottom=0;right=0;overflow=hidden;labelBackgroundColor=none;fontSize=17;" parent="n3eoc5fLVPkFFxaEzCm6-75" vertex="1">
          <mxGeometry x="420" width="100" height="46" as="geometry">
            <mxRectangle width="100" height="46" as="alternateBounds" />
          </mxGeometry>
        </mxCell>
        <mxCell id="n3eoc5fLVPkFFxaEzCm6-142" value="BICYCLE" style="shape=partialRectangle;html=1;whiteSpace=wrap;connectable=0;fillColor=none;top=0;left=0;bottom=0;right=0;overflow=hidden;labelBackgroundColor=none;fontSize=17;" parent="n3eoc5fLVPkFFxaEzCm6-75" vertex="1">
          <mxGeometry x="520" width="170" height="46" as="geometry">
            <mxRectangle width="170" height="46" as="alternateBounds" />
          </mxGeometry>
        </mxCell>
        <mxCell id="n3eoc5fLVPkFFxaEzCm6-164" value="Nose Gear" style="shape=partialRectangle;html=1;whiteSpace=wrap;connectable=0;fillColor=none;top=0;left=0;bottom=0;right=0;overflow=hidden;labelBackgroundColor=none;fontSize=17;" parent="n3eoc5fLVPkFFxaEzCm6-75" vertex="1">
          <mxGeometry x="690" width="160" height="46" as="geometry">
            <mxRectangle width="160" height="46" as="alternateBounds" />
          </mxGeometry>
        </mxCell>
        <mxCell id="n3eoc5fLVPkFFxaEzCm6-115" style="shape=tableRow;horizontal=0;startSize=0;swimlaneHead=0;swimlaneBody=0;top=0;left=0;bottom=0;right=0;collapsible=0;dropTarget=0;fillColor=none;points=[[0,0.5],[1,0.5]];portConstraint=eastwest;labelBackgroundColor=none;fontSize=17;" parent="n3eoc5fLVPkFFxaEzCm6-49" vertex="1">
          <mxGeometry y="312" width="850" height="48" as="geometry" />
        </mxCell>
        <mxCell id="n3eoc5fLVPkFFxaEzCm6-116" value="Bay Gear" style="shape=partialRectangle;html=1;whiteSpace=wrap;connectable=0;fillColor=none;top=0;left=0;bottom=0;right=0;overflow=hidden;labelBackgroundColor=none;fontSize=17;" parent="n3eoc5fLVPkFFxaEzCm6-115" vertex="1">
          <mxGeometry width="123" height="48" as="geometry">
            <mxRectangle width="123" height="48" as="alternateBounds" />
          </mxGeometry>
        </mxCell>
        <mxCell id="n3eoc5fLVPkFFxaEzCm6-117" value="37.54" style="shape=partialRectangle;html=1;whiteSpace=wrap;connectable=0;fillColor=none;top=0;left=0;bottom=0;right=0;overflow=hidden;labelBackgroundColor=none;fontSize=17;" parent="n3eoc5fLVPkFFxaEzCm6-115" vertex="1">
          <mxGeometry x="123" width="87" height="48" as="geometry">
            <mxRectangle width="87" height="48" as="alternateBounds" />
          </mxGeometry>
        </mxCell>
        <mxCell id="n3eoc5fLVPkFFxaEzCm6-118" value="0" style="shape=partialRectangle;html=1;whiteSpace=wrap;connectable=0;fillColor=none;top=0;left=0;bottom=0;right=0;overflow=hidden;labelBackgroundColor=none;fontSize=17;" parent="n3eoc5fLVPkFFxaEzCm6-115" vertex="1">
          <mxGeometry x="210" width="90" height="48" as="geometry">
            <mxRectangle width="90" height="48" as="alternateBounds" />
          </mxGeometry>
        </mxCell>
        <mxCell id="n3eoc5fLVPkFFxaEzCm6-119" value="-0.5" style="shape=partialRectangle;html=1;whiteSpace=wrap;connectable=0;fillColor=none;top=0;left=0;bottom=0;right=0;overflow=hidden;labelBackgroundColor=none;fontSize=17;" parent="n3eoc5fLVPkFFxaEzCm6-115" vertex="1">
          <mxGeometry x="300" width="120" height="48" as="geometry">
            <mxRectangle width="120" height="48" as="alternateBounds" />
          </mxGeometry>
        </mxCell>
        <mxCell id="n3eoc5fLVPkFFxaEzCm6-120" value="847.875 (85%)" style="shape=partialRectangle;html=1;whiteSpace=wrap;connectable=0;fillColor=none;top=0;left=0;bottom=0;right=0;overflow=hidden;labelBackgroundColor=none;fontSize=17;" parent="n3eoc5fLVPkFFxaEzCm6-115" vertex="1">
          <mxGeometry x="420" width="100" height="48" as="geometry">
            <mxRectangle width="100" height="48" as="alternateBounds" />
          </mxGeometry>
        </mxCell>
        <mxCell id="n3eoc5fLVPkFFxaEzCm6-143" value="BICYCLE" style="shape=partialRectangle;html=1;whiteSpace=wrap;connectable=0;fillColor=none;top=0;left=0;bottom=0;right=0;overflow=hidden;labelBackgroundColor=none;fontSize=17;" parent="n3eoc5fLVPkFFxaEzCm6-115" vertex="1">
          <mxGeometry x="520" width="170" height="48" as="geometry">
            <mxRectangle width="170" height="48" as="alternateBounds" />
          </mxGeometry>
        </mxCell>
        <mxCell id="n3eoc5fLVPkFFxaEzCm6-165" value="main Gear" style="shape=partialRectangle;html=1;whiteSpace=wrap;connectable=0;fillColor=none;top=0;left=0;bottom=0;right=0;overflow=hidden;labelBackgroundColor=none;fontSize=17;" parent="n3eoc5fLVPkFFxaEzCm6-115" vertex="1">
          <mxGeometry x="690" width="160" height="48" as="geometry">
            <mxRectangle width="160" height="48" as="alternateBounds" />
          </mxGeometry>
        </mxCell>
        <mxCell id="n3eoc5fLVPkFFxaEzCm6-80" style="shape=tableRow;horizontal=0;startSize=0;swimlaneHead=0;swimlaneBody=0;top=0;left=0;bottom=0;right=0;collapsible=0;dropTarget=0;fillColor=none;points=[[0,0.5],[1,0.5]];portConstraint=eastwest;labelBackgroundColor=none;fontSize=17;" parent="n3eoc5fLVPkFFxaEzCm6-49" vertex="1">
          <mxGeometry y="360" width="850" height="46" as="geometry" />
        </mxCell>
        <mxCell id="n3eoc5fLVPkFFxaEzCm6-81" value="FE1" style="shape=partialRectangle;html=1;whiteSpace=wrap;connectable=0;fillColor=none;top=0;left=0;bottom=0;right=0;overflow=hidden;labelBackgroundColor=none;fontSize=17;" parent="n3eoc5fLVPkFFxaEzCm6-80" vertex="1">
          <mxGeometry width="123" height="46" as="geometry">
            <mxRectangle width="123" height="46" as="alternateBounds" />
          </mxGeometry>
        </mxCell>
        <mxCell id="n3eoc5fLVPkFFxaEzCm6-82" value="1.13" style="shape=partialRectangle;html=1;whiteSpace=wrap;connectable=0;fillColor=none;top=0;left=0;bottom=0;right=0;overflow=hidden;labelBackgroundColor=none;fontSize=17;" parent="n3eoc5fLVPkFFxaEzCm6-80" vertex="1">
          <mxGeometry x="123" width="87" height="46" as="geometry">
            <mxRectangle width="87" height="46" as="alternateBounds" />
          </mxGeometry>
        </mxCell>
        <mxCell id="n3eoc5fLVPkFFxaEzCm6-83" value="0" style="shape=partialRectangle;html=1;whiteSpace=wrap;connectable=0;fillColor=none;top=0;left=0;bottom=0;right=0;overflow=hidden;labelBackgroundColor=none;fontSize=17;" parent="n3eoc5fLVPkFFxaEzCm6-80" vertex="1">
          <mxGeometry x="210" width="90" height="46" as="geometry">
            <mxRectangle width="90" height="46" as="alternateBounds" />
          </mxGeometry>
        </mxCell>
        <mxCell id="n3eoc5fLVPkFFxaEzCm6-84" value="2" style="shape=partialRectangle;html=1;whiteSpace=wrap;connectable=0;fillColor=none;top=0;left=0;bottom=0;right=0;overflow=hidden;labelBackgroundColor=none;fontSize=17;" parent="n3eoc5fLVPkFFxaEzCm6-80" vertex="1">
          <mxGeometry x="300" width="120" height="46" as="geometry">
            <mxRectangle width="120" height="46" as="alternateBounds" />
          </mxGeometry>
        </mxCell>
        <mxCell id="n3eoc5fLVPkFFxaEzCm6-101" value="623.75 &lt;br&gt;(25%)" style="shape=partialRectangle;html=1;whiteSpace=wrap;connectable=0;fillColor=none;top=0;left=0;bottom=0;right=0;overflow=hidden;labelBackgroundColor=none;fontSize=17;" parent="n3eoc5fLVPkFFxaEzCm6-80" vertex="1">
          <mxGeometry x="420" width="100" height="46" as="geometry">
            <mxRectangle width="100" height="46" as="alternateBounds" />
          </mxGeometry>
        </mxCell>
        <mxCell id="n3eoc5fLVPkFFxaEzCm6-144" value="RADOME" style="shape=partialRectangle;html=1;whiteSpace=wrap;connectable=0;fillColor=none;top=0;left=0;bottom=0;right=0;overflow=hidden;labelBackgroundColor=none;fontSize=17;" parent="n3eoc5fLVPkFFxaEzCm6-80" vertex="1">
          <mxGeometry x="520" width="170" height="46" as="geometry">
            <mxRectangle width="170" height="46" as="alternateBounds" />
          </mxGeometry>
        </mxCell>
        <mxCell id="n3eoc5fLVPkFFxaEzCm6-166" value="Instruments/&lt;br&gt;avionics/&lt;br&gt;electronics" style="shape=partialRectangle;html=1;whiteSpace=wrap;connectable=0;fillColor=none;top=0;left=0;bottom=0;right=0;overflow=hidden;labelBackgroundColor=none;fontSize=17;" parent="n3eoc5fLVPkFFxaEzCm6-80" vertex="1">
          <mxGeometry x="690" width="160" height="46" as="geometry">
            <mxRectangle width="160" height="46" as="alternateBounds" />
          </mxGeometry>
        </mxCell>
        <mxCell id="n3eoc5fLVPkFFxaEzCm6-85" style="shape=tableRow;horizontal=0;startSize=0;swimlaneHead=0;swimlaneBody=0;top=0;left=0;bottom=0;right=0;collapsible=0;dropTarget=0;fillColor=none;points=[[0,0.5],[1,0.5]];portConstraint=eastwest;labelBackgroundColor=none;fontSize=17;" parent="n3eoc5fLVPkFFxaEzCm6-49" vertex="1">
          <mxGeometry y="406" width="850" height="48" as="geometry" />
        </mxCell>
        <mxCell id="n3eoc5fLVPkFFxaEzCm6-86" value="FE2" style="shape=partialRectangle;html=1;whiteSpace=wrap;connectable=0;fillColor=none;top=0;left=0;bottom=0;right=0;overflow=hidden;labelBackgroundColor=none;fontSize=17;" parent="n3eoc5fLVPkFFxaEzCm6-85" vertex="1">
          <mxGeometry width="123" height="48" as="geometry">
            <mxRectangle width="123" height="48" as="alternateBounds" />
          </mxGeometry>
        </mxCell>
        <mxCell id="n3eoc5fLVPkFFxaEzCm6-87" value="7.453" style="shape=partialRectangle;html=1;whiteSpace=wrap;connectable=0;fillColor=none;top=0;left=0;bottom=0;right=0;overflow=hidden;labelBackgroundColor=none;fontSize=17;" parent="n3eoc5fLVPkFFxaEzCm6-85" vertex="1">
          <mxGeometry x="123" width="87" height="48" as="geometry">
            <mxRectangle width="87" height="48" as="alternateBounds" />
          </mxGeometry>
        </mxCell>
        <mxCell id="n3eoc5fLVPkFFxaEzCm6-88" value="0" style="shape=partialRectangle;html=1;whiteSpace=wrap;connectable=0;fillColor=none;top=0;left=0;bottom=0;right=0;overflow=hidden;labelBackgroundColor=none;fontSize=17;" parent="n3eoc5fLVPkFFxaEzCm6-85" vertex="1">
          <mxGeometry x="210" width="90" height="48" as="geometry">
            <mxRectangle width="90" height="48" as="alternateBounds" />
          </mxGeometry>
        </mxCell>
        <mxCell id="n3eoc5fLVPkFFxaEzCm6-89" value="1.5" style="shape=partialRectangle;html=1;whiteSpace=wrap;connectable=0;fillColor=none;top=0;left=0;bottom=0;right=0;overflow=hidden;labelBackgroundColor=none;fontSize=17;" parent="n3eoc5fLVPkFFxaEzCm6-85" vertex="1">
          <mxGeometry x="300" width="120" height="48" as="geometry">
            <mxRectangle width="120" height="48" as="alternateBounds" />
          </mxGeometry>
        </mxCell>
        <mxCell id="n3eoc5fLVPkFFxaEzCm6-102" value="1247.5&lt;br&gt;(50%)" style="shape=partialRectangle;html=1;whiteSpace=wrap;connectable=0;fillColor=none;top=0;left=0;bottom=0;right=0;overflow=hidden;labelBackgroundColor=none;fontSize=17;" parent="n3eoc5fLVPkFFxaEzCm6-85" vertex="1">
          <mxGeometry x="420" width="100" height="48" as="geometry">
            <mxRectangle width="100" height="48" as="alternateBounds" />
          </mxGeometry>
        </mxCell>
        <mxCell id="n3eoc5fLVPkFFxaEzCm6-145" value="SEATS" style="shape=partialRectangle;html=1;whiteSpace=wrap;connectable=0;fillColor=none;top=0;left=0;bottom=0;right=0;overflow=hidden;labelBackgroundColor=none;fontSize=17;" parent="n3eoc5fLVPkFFxaEzCm6-85" vertex="1">
          <mxGeometry x="520" width="170" height="48" as="geometry">
            <mxRectangle width="170" height="48" as="alternateBounds" />
          </mxGeometry>
        </mxCell>
        <mxCell id="n3eoc5fLVPkFFxaEzCm6-167" value="Furnishings" style="shape=partialRectangle;html=1;whiteSpace=wrap;connectable=0;fillColor=none;top=0;left=0;bottom=0;right=0;overflow=hidden;labelBackgroundColor=none;fontSize=17;" parent="n3eoc5fLVPkFFxaEzCm6-85" vertex="1">
          <mxGeometry x="690" width="160" height="48" as="geometry">
            <mxRectangle width="160" height="48" as="alternateBounds" />
          </mxGeometry>
        </mxCell>
        <mxCell id="n3eoc5fLVPkFFxaEzCm6-90" style="shape=tableRow;horizontal=0;startSize=0;swimlaneHead=0;swimlaneBody=0;top=0;left=0;bottom=0;right=0;collapsible=0;dropTarget=0;fillColor=none;points=[[0,0.5],[1,0.5]];portConstraint=eastwest;labelBackgroundColor=none;fontSize=17;" parent="n3eoc5fLVPkFFxaEzCm6-49" vertex="1">
          <mxGeometry y="454" width="850" height="58" as="geometry" />
        </mxCell>
        <mxCell id="n3eoc5fLVPkFFxaEzCm6-91" value="FE3" style="shape=partialRectangle;html=1;whiteSpace=wrap;connectable=0;fillColor=none;top=0;left=0;bottom=0;right=0;overflow=hidden;labelBackgroundColor=none;fontSize=17;" parent="n3eoc5fLVPkFFxaEzCm6-90" vertex="1">
          <mxGeometry width="123" height="58" as="geometry">
            <mxRectangle width="123" height="58" as="alternateBounds" />
          </mxGeometry>
        </mxCell>
        <mxCell id="n3eoc5fLVPkFFxaEzCm6-92" value="17.844" style="shape=partialRectangle;html=1;whiteSpace=wrap;connectable=0;fillColor=none;top=0;left=0;bottom=0;right=0;overflow=hidden;labelBackgroundColor=none;fontSize=17;" parent="n3eoc5fLVPkFFxaEzCm6-90" vertex="1">
          <mxGeometry x="123" width="87" height="58" as="geometry">
            <mxRectangle width="87" height="58" as="alternateBounds" />
          </mxGeometry>
        </mxCell>
        <mxCell id="n3eoc5fLVPkFFxaEzCm6-93" value="0" style="shape=partialRectangle;html=1;whiteSpace=wrap;connectable=0;fillColor=none;top=0;left=0;bottom=0;right=0;overflow=hidden;labelBackgroundColor=none;fontSize=17;" parent="n3eoc5fLVPkFFxaEzCm6-90" vertex="1">
          <mxGeometry x="210" width="90" height="58" as="geometry">
            <mxRectangle width="90" height="58" as="alternateBounds" />
          </mxGeometry>
        </mxCell>
        <mxCell id="n3eoc5fLVPkFFxaEzCm6-94" value="1.5" style="shape=partialRectangle;html=1;whiteSpace=wrap;connectable=0;fillColor=none;top=0;left=0;bottom=0;right=0;overflow=hidden;labelBackgroundColor=none;fontSize=17;" parent="n3eoc5fLVPkFFxaEzCm6-90" vertex="1">
          <mxGeometry x="300" width="120" height="58" as="geometry">
            <mxRectangle width="120" height="58" as="alternateBounds" />
          </mxGeometry>
        </mxCell>
        <mxCell id="n3eoc5fLVPkFFxaEzCm6-103" value="623.75&lt;br&gt;(25%)" style="shape=partialRectangle;html=1;whiteSpace=wrap;connectable=0;fillColor=none;top=0;left=0;bottom=0;right=0;overflow=hidden;labelBackgroundColor=none;fontSize=17;" parent="n3eoc5fLVPkFFxaEzCm6-90" vertex="1">
          <mxGeometry x="420" width="100" height="58" as="geometry">
            <mxRectangle width="100" height="58" as="alternateBounds" />
          </mxGeometry>
        </mxCell>
        <mxCell id="n3eoc5fLVPkFFxaEzCm6-146" value="INFRA" style="shape=partialRectangle;html=1;whiteSpace=wrap;connectable=0;fillColor=none;top=0;left=0;bottom=0;right=0;overflow=hidden;labelBackgroundColor=none;fontSize=17;" parent="n3eoc5fLVPkFFxaEzCm6-90" vertex="1">
          <mxGeometry x="520" width="170" height="58" as="geometry">
            <mxRectangle width="170" height="58" as="alternateBounds" />
          </mxGeometry>
        </mxCell>
        <mxCell id="n3eoc5fLVPkFFxaEzCm6-168" value="Operational Items" style="shape=partialRectangle;html=1;whiteSpace=wrap;connectable=0;fillColor=none;top=0;left=0;bottom=0;right=0;overflow=hidden;labelBackgroundColor=none;fontSize=17;" parent="n3eoc5fLVPkFFxaEzCm6-90" vertex="1">
          <mxGeometry x="690" width="160" height="58" as="geometry">
            <mxRectangle width="160" height="58" as="alternateBounds" />
          </mxGeometry>
        </mxCell>
        <mxCell id="n3eoc5fLVPkFFxaEzCm6-109" style="shape=tableRow;horizontal=0;startSize=0;swimlaneHead=0;swimlaneBody=0;top=0;left=0;bottom=0;right=0;collapsible=0;dropTarget=0;fillColor=none;points=[[0,0.5],[1,0.5]];portConstraint=eastwest;labelBackgroundColor=none;fontSize=17;" parent="n3eoc5fLVPkFFxaEzCm6-49" vertex="1">
          <mxGeometry y="512" width="850" height="48" as="geometry" />
        </mxCell>
        <mxCell id="n3eoc5fLVPkFFxaEzCm6-110" value="Powerplant" style="shape=partialRectangle;html=1;whiteSpace=wrap;connectable=0;fillColor=none;top=0;left=0;bottom=0;right=0;overflow=hidden;labelBackgroundColor=none;fontSize=17;" parent="n3eoc5fLVPkFFxaEzCm6-109" vertex="1">
          <mxGeometry width="123" height="48" as="geometry">
            <mxRectangle width="123" height="48" as="alternateBounds" />
          </mxGeometry>
        </mxCell>
        <mxCell id="n3eoc5fLVPkFFxaEzCm6-111" value="41" style="shape=partialRectangle;html=1;whiteSpace=wrap;connectable=0;fillColor=none;top=0;left=0;bottom=0;right=0;overflow=hidden;labelBackgroundColor=none;fontSize=17;" parent="n3eoc5fLVPkFFxaEzCm6-109" vertex="1">
          <mxGeometry x="123" width="87" height="48" as="geometry">
            <mxRectangle width="87" height="48" as="alternateBounds" />
          </mxGeometry>
        </mxCell>
        <mxCell id="n3eoc5fLVPkFFxaEzCm6-112" value="0" style="shape=partialRectangle;html=1;whiteSpace=wrap;connectable=0;fillColor=none;top=0;left=0;bottom=0;right=0;overflow=hidden;labelBackgroundColor=none;fontSize=17;" parent="n3eoc5fLVPkFFxaEzCm6-109" vertex="1">
          <mxGeometry x="210" width="90" height="48" as="geometry">
            <mxRectangle width="90" height="48" as="alternateBounds" />
          </mxGeometry>
        </mxCell>
        <mxCell id="n3eoc5fLVPkFFxaEzCm6-113" value="1.67" style="shape=partialRectangle;html=1;whiteSpace=wrap;connectable=0;fillColor=none;top=0;left=0;bottom=0;right=0;overflow=hidden;labelBackgroundColor=none;fontSize=17;" parent="n3eoc5fLVPkFFxaEzCm6-109" vertex="1">
          <mxGeometry x="300" width="120" height="48" as="geometry">
            <mxRectangle width="120" height="48" as="alternateBounds" />
          </mxGeometry>
        </mxCell>
        <mxCell id="n3eoc5fLVPkFFxaEzCm6-114" value="3602.1" style="shape=partialRectangle;html=1;whiteSpace=wrap;connectable=0;fillColor=none;top=0;left=0;bottom=0;right=0;overflow=hidden;labelBackgroundColor=none;fontSize=17;" parent="n3eoc5fLVPkFFxaEzCm6-109" vertex="1">
          <mxGeometry x="420" width="100" height="48" as="geometry">
            <mxRectangle width="100" height="48" as="alternateBounds" />
          </mxGeometry>
        </mxCell>
        <mxCell id="n3eoc5fLVPkFFxaEzCm6-147" value="twin" style="shape=partialRectangle;html=1;whiteSpace=wrap;connectable=0;fillColor=none;top=0;left=0;bottom=0;right=0;overflow=hidden;labelBackgroundColor=none;fontSize=17;" parent="n3eoc5fLVPkFFxaEzCm6-109" vertex="1">
          <mxGeometry x="520" width="170" height="48" as="geometry">
            <mxRectangle width="170" height="48" as="alternateBounds" />
          </mxGeometry>
        </mxCell>
        <mxCell id="n3eoc5fLVPkFFxaEzCm6-169" style="shape=partialRectangle;html=1;whiteSpace=wrap;connectable=0;fillColor=none;top=0;left=0;bottom=0;right=0;overflow=hidden;labelBackgroundColor=none;fontSize=17;" parent="n3eoc5fLVPkFFxaEzCm6-109" vertex="1">
          <mxGeometry x="690" width="160" height="48" as="geometry">
            <mxRectangle width="160" height="48" as="alternateBounds" />
          </mxGeometry>
        </mxCell>
        <mxCell id="n3eoc5fLVPkFFxaEzCm6-104" value="" style="endArrow=none;html=1;rounded=0;strokeWidth=4;fontSize=17;entryX=0;entryY=0.5;entryDx=0;entryDy=0;fillColor=#d5e8d4;strokeColor=#82b366;" parent="1" target="n3eoc5fLVPkFFxaEzCm6-106" edge="1">
          <mxGeometry width="50" height="50" relative="1" as="geometry">
            <mxPoint x="377" y="640" as="sourcePoint" />
            <mxPoint x="1440" y="640" as="targetPoint" />
          </mxGeometry>
        </mxCell>
        <mxCell id="n3eoc5fLVPkFFxaEzCm6-105" value="CG&lt;sub&gt;hs&lt;/sub&gt;&lt;span style=&quot;font-size: 14.1667px;&quot;&gt;&lt;sub&gt;&amp;nbsp;&lt;/sub&gt;&amp;nbsp;= &quot;&lt;/span&gt;" style="edgeLabel;html=1;align=center;verticalAlign=middle;resizable=0;points=[];fontSize=17;" parent="n3eoc5fLVPkFFxaEzCm6-104" vertex="1" connectable="0">
          <mxGeometry x="-0.0998" y="2" relative="1" as="geometry">
            <mxPoint x="-5" y="-13" as="offset" />
          </mxGeometry>
        </mxCell>
        <mxCell id="n3eoc5fLVPkFFxaEzCm6-106" value="" style="shape=image;verticalLabelPosition=bottom;labelBackgroundColor=default;verticalAlign=top;aspect=fixed;imageAspect=0;image=https://static.thenounproject.com/png/2999185-200.png;" parent="1" vertex="1">
          <mxGeometry x="1460" y="625" width="30" height="30" as="geometry" />
        </mxCell>
        <mxCell id="n3eoc5fLVPkFFxaEzCm6-107" value="&lt;br&gt;&lt;br&gt;&lt;br&gt;&lt;br&gt;&lt;br&gt;&lt;br&gt;Vertical Stabilizer" style="rounded=0;whiteSpace=wrap;html=1;labelBackgroundColor=none;fontSize=17;fillColor=#fff2cc;strokeColor=#d6b656;" parent="1" vertex="1">
          <mxGeometry x="1400" y="200" width="150" height="300" as="geometry" />
        </mxCell>
        <mxCell id="n3eoc5fLVPkFFxaEzCm6-108" value="Horizontal Stabilizer" style="rounded=0;whiteSpace=wrap;html=1;labelBackgroundColor=none;fontSize=17;fillColor=#d5e8d4;strokeColor=#82b366;" parent="1" vertex="1">
          <mxGeometry x="1400" y="350" width="150" height="40" as="geometry" />
        </mxCell>
        <mxCell id="n3eoc5fLVPkFFxaEzCm6-121" value="" style="endArrow=none;html=1;rounded=0;strokeWidth=4;fontSize=17;entryX=0;entryY=0.5;entryDx=0;entryDy=0;fillColor=#d5e8d4;strokeColor=#82b366;" parent="1" target="n3eoc5fLVPkFFxaEzCm6-123" edge="1">
          <mxGeometry width="50" height="50" relative="1" as="geometry">
            <mxPoint x="380" y="841" as="sourcePoint" />
            <mxPoint x="490" y="836" as="targetPoint" />
          </mxGeometry>
        </mxCell>
        <mxCell id="n3eoc5fLVPkFFxaEzCm6-122" value="CG&lt;sub&gt;nose gear&lt;/sub&gt;&lt;span style=&quot;font-size: 14.1667px;&quot;&gt;&lt;sub&gt;&amp;nbsp;&lt;/sub&gt;&amp;nbsp;=&amp;nbsp; 40.65&quot; (40% Cockpit)&lt;/span&gt;" style="edgeLabel;html=1;align=center;verticalAlign=middle;resizable=0;points=[];fontSize=17;labelBackgroundColor=none;" parent="n3eoc5fLVPkFFxaEzCm6-121" vertex="1" connectable="0">
          <mxGeometry x="-0.0998" y="2" relative="1" as="geometry">
            <mxPoint x="172" y="2" as="offset" />
          </mxGeometry>
        </mxCell>
        <mxCell id="n3eoc5fLVPkFFxaEzCm6-123" value="" style="shape=image;verticalLabelPosition=bottom;labelBackgroundColor=default;verticalAlign=top;aspect=fixed;imageAspect=0;image=https://static.thenounproject.com/png/2999185-200.png;" parent="1" vertex="1">
          <mxGeometry x="410" y="826" width="30" height="30" as="geometry" />
        </mxCell>
        <mxCell id="n3eoc5fLVPkFFxaEzCm6-125" value="Nose&lt;br&gt;Gear" style="rounded=0;whiteSpace=wrap;html=1;labelBackgroundColor=none;fontSize=17;fillColor=#d5e8d4;strokeColor=#82b366;" parent="1" vertex="1">
          <mxGeometry x="495" y="432" width="50" height="55" as="geometry" />
        </mxCell>
        <mxCell id="n3eoc5fLVPkFFxaEzCm6-129" value="" style="endArrow=none;dashed=1;html=1;rounded=0;strokeWidth=4;fontSize=17;" parent="1" target="n3eoc5fLVPkFFxaEzCm6-125" edge="1">
          <mxGeometry width="50" height="50" relative="1" as="geometry">
            <mxPoint x="380" y="460" as="sourcePoint" />
            <mxPoint x="2000" y="450" as="targetPoint" />
          </mxGeometry>
        </mxCell>
        <mxCell id="n3eoc5fLVPkFFxaEzCm6-132" value="Bay Gear" style="rounded=0;whiteSpace=wrap;html=1;labelBackgroundColor=none;fontSize=17;fillColor=#d5e8d4;strokeColor=#82b366;" parent="1" vertex="1">
          <mxGeometry x="1030" y="433" width="50" height="55" as="geometry" />
        </mxCell>
        <mxCell id="n3eoc5fLVPkFFxaEzCm6-133" value="" style="endArrow=none;dashed=1;html=1;rounded=0;strokeWidth=4;fontSize=17;startArrow=none;" parent="1" source="n3eoc5fLVPkFFxaEzCm6-125" target="n3eoc5fLVPkFFxaEzCm6-132" edge="1">
          <mxGeometry width="50" height="50" relative="1" as="geometry">
            <mxPoint x="545" y="459.33952702702686" as="sourcePoint" />
            <mxPoint x="2000" y="450" as="targetPoint" />
          </mxGeometry>
        </mxCell>
        <mxCell id="n3eoc5fLVPkFFxaEzCm6-134" value="" style="endArrow=none;html=1;rounded=0;strokeWidth=4;fontSize=17;entryX=0;entryY=0.5;entryDx=0;entryDy=0;fillColor=#d5e8d4;strokeColor=#82b366;" parent="1" target="n3eoc5fLVPkFFxaEzCm6-136" edge="1">
          <mxGeometry width="50" height="50" relative="1" as="geometry">
            <mxPoint x="376" y="881.0000000000002" as="sourcePoint" />
            <mxPoint x="486" y="876" as="targetPoint" />
          </mxGeometry>
        </mxCell>
        <mxCell id="n3eoc5fLVPkFFxaEzCm6-135" value="CG&lt;sub&gt;bay&amp;nbsp;gear&lt;/sub&gt;&lt;span style=&quot;font-size: 14.1667px;&quot;&gt;&lt;sub&gt;&amp;nbsp;&lt;/sub&gt;&amp;nbsp;=&amp;nbsp; 450.5&quot; (70% Bay)&lt;/span&gt;" style="edgeLabel;html=1;align=center;verticalAlign=middle;resizable=0;points=[];fontSize=17;labelBackgroundColor=none;" parent="n3eoc5fLVPkFFxaEzCm6-134" vertex="1" connectable="0">
          <mxGeometry x="-0.0998" y="2" relative="1" as="geometry">
            <mxPoint x="187" y="-18" as="offset" />
          </mxGeometry>
        </mxCell>
        <mxCell id="n3eoc5fLVPkFFxaEzCm6-136" value="" style="shape=image;verticalLabelPosition=bottom;labelBackgroundColor=default;verticalAlign=top;aspect=fixed;imageAspect=0;image=https://static.thenounproject.com/png/2999185-200.png;" parent="1" vertex="1">
          <mxGeometry x="1035" y="863" width="30" height="30" as="geometry" />
        </mxCell>
        <mxCell id="n3eoc5fLVPkFFxaEzCm6-155" value="" style="endArrow=none;html=1;rounded=0;strokeWidth=4;fontSize=17;" parent="1" edge="1">
          <mxGeometry width="50" height="50" relative="1" as="geometry">
            <mxPoint x="377" y="260" as="sourcePoint" />
            <mxPoint x="1570" y="256" as="targetPoint" />
          </mxGeometry>
        </mxCell>
        <mxCell id="n3eoc5fLVPkFFxaEzCm6-156" value="" style="endArrow=none;html=1;rounded=0;strokeWidth=4;fontSize=17;" parent="1" edge="1">
          <mxGeometry width="50" height="50" relative="1" as="geometry">
            <mxPoint x="700" y="184.16333333333333" as="sourcePoint" />
            <mxPoint x="700" y="455.83" as="targetPoint" />
          </mxGeometry>
        </mxCell>
        <mxCell id="n3eoc5fLVPkFFxaEzCm6-157" value="" style="endArrow=none;html=1;rounded=0;strokeWidth=4;fontSize=17;" parent="1" edge="1">
          <mxGeometry width="50" height="50" relative="1" as="geometry">
            <mxPoint x="1155" y="190.00333333333342" as="sourcePoint" />
            <mxPoint x="1155" y="461.6699999999999" as="targetPoint" />
          </mxGeometry>
        </mxCell>
        <mxCell id="n3eoc5fLVPkFFxaEzCm6-158" value="" style="endArrow=none;html=1;rounded=0;strokeWidth=4;fontSize=17;" parent="1" edge="1">
          <mxGeometry width="50" height="50" relative="1" as="geometry">
            <mxPoint x="1575" y="184.16333333333333" as="sourcePoint" />
            <mxPoint x="1575" y="455.82999999999987" as="targetPoint" />
          </mxGeometry>
        </mxCell>
      </root>
    </mxGraphModel>
  </diagram>
  <diagram id="X-VrwYhL_DhxyDWHb8YH" name="Page-2">
    <mxGraphModel dx="1356" dy="1371" grid="1" gridSize="10" guides="1" tooltips="1" connect="1" arrows="1" fold="1" page="1" pageScale="1" pageWidth="850" pageHeight="1100" math="0" shadow="0">
      <root>
        <mxCell id="0" />
        <mxCell id="1" parent="0" />
        <mxCell id="lSDOA7JojfMt_AjVU9iU-3" value="" style="rounded=1;whiteSpace=wrap;html=1;" vertex="1" parent="1">
          <mxGeometry x="-2" y="-22.25" width="4" height="51.5" as="geometry" />
        </mxCell>
        <mxCell id="lSDOA7JojfMt_AjVU9iU-1" value="" style="rounded=0;whiteSpace=wrap;html=1;" vertex="1" parent="1">
          <mxGeometry x="-63.5" width="127" height="7" as="geometry" />
        </mxCell>
        <mxCell id="lSDOA7JojfMt_AjVU9iU-9" value="" style="ellipse;whiteSpace=wrap;html=1;aspect=fixed;" vertex="1" parent="1">
          <mxGeometry x="-20" y="90" width="40" height="40" as="geometry" />
        </mxCell>
      </root>
    </mxGraphModel>
  </diagram>
</mxfile>
